<mxfile host="Electron" agent="Mozilla/5.0 (Windows NT 10.0; Win64; x64) AppleWebKit/537.36 (KHTML, like Gecko) draw.io/26.0.9 Chrome/128.0.6613.186 Electron/32.2.5 Safari/537.36" version="26.0.9" pages="2">
  <diagram id="g3efRKUIFH3CFgadWszy" name="Versiones">
    <mxGraphModel dx="1723" dy="928" grid="1" gridSize="10" guides="1" tooltips="1" connect="1" arrows="1" fold="1" page="1" pageScale="1" pageWidth="827" pageHeight="1169" math="0" shadow="0">
      <root>
        <mxCell id="0" />
        <mxCell id="1" parent="0" />
        <mxCell id="QOJwp3pk0zYt3Cambvdv-1" value="" style="shape=table;startSize=0;container=1;collapsible=0;childLayout=tableLayout;fontFamily=Roboto;fontSource=https://fonts.googleapis.com/css?family=Roboto;fontSize=16;strokeWidth=1;align=left;" parent="1" vertex="1">
          <mxGeometry x="80" y="101" width="1200" height="699" as="geometry" />
        </mxCell>
        <mxCell id="QOJwp3pk0zYt3Cambvdv-2" value="" style="shape=partialRectangle;collapsible=0;dropTarget=0;pointerEvents=0;fillColor=none;top=0;left=0;bottom=0;right=0;points=[[0,0.5],[1,0.5]];portConstraint=eastwest;fontFamily=Roboto;fontSource=https://fonts.googleapis.com/css?family=Roboto;fontSize=16;strokeWidth=1;" parent="QOJwp3pk0zYt3Cambvdv-1" vertex="1">
          <mxGeometry width="1200" height="140" as="geometry" />
        </mxCell>
        <mxCell id="QOJwp3pk0zYt3Cambvdv-3" value="NOMBRE" style="shape=partialRectangle;html=1;whiteSpace=wrap;connectable=0;overflow=hidden;fillColor=none;top=0;left=0;bottom=0;right=0;pointerEvents=1;fontFamily=Roboto;fontSource=https://fonts.googleapis.com/css?family=Roboto;fontSize=16;strokeWidth=1;" parent="QOJwp3pk0zYt3Cambvdv-2" vertex="1">
          <mxGeometry width="423" height="140" as="geometry">
            <mxRectangle width="423" height="140" as="alternateBounds" />
          </mxGeometry>
        </mxCell>
        <mxCell id="QOJwp3pk0zYt3Cambvdv-4" value="FECHA" style="shape=partialRectangle;html=1;whiteSpace=wrap;connectable=0;overflow=hidden;fillColor=none;top=0;left=0;bottom=0;right=0;pointerEvents=1;fontFamily=Roboto;fontSource=https://fonts.googleapis.com/css?family=Roboto;fontSize=16;strokeWidth=1;" parent="QOJwp3pk0zYt3Cambvdv-2" vertex="1">
          <mxGeometry x="423" width="128" height="140" as="geometry">
            <mxRectangle width="128" height="140" as="alternateBounds" />
          </mxGeometry>
        </mxCell>
        <mxCell id="QOJwp3pk0zYt3Cambvdv-5" value="VERSION" style="shape=partialRectangle;html=1;whiteSpace=wrap;connectable=0;overflow=hidden;fillColor=none;top=0;left=0;bottom=0;right=0;pointerEvents=1;fontFamily=Roboto;fontSource=https://fonts.googleapis.com/css?family=Roboto;fontSize=16;strokeWidth=1;" parent="QOJwp3pk0zYt3Cambvdv-2" vertex="1">
          <mxGeometry x="551" width="98" height="140" as="geometry">
            <mxRectangle width="98" height="140" as="alternateBounds" />
          </mxGeometry>
        </mxCell>
        <mxCell id="QOJwp3pk0zYt3Cambvdv-6" value="COMENTARIO" style="shape=partialRectangle;html=1;whiteSpace=wrap;connectable=0;overflow=hidden;fillColor=none;top=0;left=0;bottom=0;right=0;pointerEvents=1;fontFamily=Roboto;fontSource=https://fonts.googleapis.com/css?family=Roboto;fontSize=16;strokeWidth=1;" parent="QOJwp3pk0zYt3Cambvdv-2" vertex="1">
          <mxGeometry x="649" width="551" height="140" as="geometry">
            <mxRectangle width="551" height="140" as="alternateBounds" />
          </mxGeometry>
        </mxCell>
        <mxCell id="QOJwp3pk0zYt3Cambvdv-7" value="" style="shape=partialRectangle;collapsible=0;dropTarget=0;pointerEvents=0;fillColor=none;top=0;left=0;bottom=0;right=0;points=[[0,0.5],[1,0.5]];portConstraint=eastwest;fontFamily=Roboto;fontSource=https://fonts.googleapis.com/css?family=Roboto;fontSize=16;strokeWidth=1;" parent="QOJwp3pk0zYt3Cambvdv-1" vertex="1">
          <mxGeometry y="140" width="1200" height="140" as="geometry" />
        </mxCell>
        <mxCell id="QOJwp3pk0zYt3Cambvdv-8" value="Alberto Ozciel Salazar Rivera" style="shape=partialRectangle;html=1;whiteSpace=wrap;connectable=0;overflow=hidden;fillColor=none;top=0;left=0;bottom=0;right=0;pointerEvents=1;fontFamily=Roboto;fontSource=https://fonts.googleapis.com/css?family=Roboto;fontSize=16;strokeWidth=1;" parent="QOJwp3pk0zYt3Cambvdv-7" vertex="1">
          <mxGeometry width="423" height="140" as="geometry">
            <mxRectangle width="423" height="140" as="alternateBounds" />
          </mxGeometry>
        </mxCell>
        <mxCell id="QOJwp3pk0zYt3Cambvdv-9" value="18/10/2024" style="shape=partialRectangle;html=1;whiteSpace=wrap;connectable=0;overflow=hidden;fillColor=none;top=0;left=0;bottom=0;right=0;pointerEvents=1;fontFamily=Roboto;fontSource=https://fonts.googleapis.com/css?family=Roboto;fontSize=16;strokeWidth=1;" parent="QOJwp3pk0zYt3Cambvdv-7" vertex="1">
          <mxGeometry x="423" width="128" height="140" as="geometry">
            <mxRectangle width="128" height="140" as="alternateBounds" />
          </mxGeometry>
        </mxCell>
        <mxCell id="QOJwp3pk0zYt3Cambvdv-10" value="1.0" style="shape=partialRectangle;html=1;whiteSpace=wrap;connectable=0;overflow=hidden;fillColor=none;top=0;left=0;bottom=0;right=0;pointerEvents=1;fontFamily=Roboto;fontSource=https://fonts.googleapis.com/css?family=Roboto;fontSize=16;strokeWidth=1;" parent="QOJwp3pk0zYt3Cambvdv-7" vertex="1">
          <mxGeometry x="551" width="98" height="140" as="geometry">
            <mxRectangle width="98" height="140" as="alternateBounds" />
          </mxGeometry>
        </mxCell>
        <mxCell id="QOJwp3pk0zYt3Cambvdv-11" value="Creación del Documento" style="shape=partialRectangle;html=1;whiteSpace=wrap;connectable=0;overflow=hidden;fillColor=none;top=0;left=0;bottom=0;right=0;pointerEvents=1;fontFamily=Roboto;fontSource=https://fonts.googleapis.com/css?family=Roboto;fontSize=16;strokeWidth=1;align=center;" parent="QOJwp3pk0zYt3Cambvdv-7" vertex="1">
          <mxGeometry x="649" width="551" height="140" as="geometry">
            <mxRectangle width="551" height="140" as="alternateBounds" />
          </mxGeometry>
        </mxCell>
        <mxCell id="QOJwp3pk0zYt3Cambvdv-12" value="" style="shape=partialRectangle;collapsible=0;dropTarget=0;pointerEvents=0;fillColor=none;top=0;left=0;bottom=0;right=0;points=[[0,0.5],[1,0.5]];portConstraint=eastwest;fontFamily=Roboto;fontSource=https://fonts.googleapis.com/css?family=Roboto;fontSize=16;strokeWidth=1;" parent="QOJwp3pk0zYt3Cambvdv-1" vertex="1">
          <mxGeometry y="280" width="1200" height="139" as="geometry" />
        </mxCell>
        <mxCell id="QOJwp3pk0zYt3Cambvdv-13" value="Alberto Ozciel Salazar Rivera" style="shape=partialRectangle;html=1;whiteSpace=wrap;connectable=0;overflow=hidden;fillColor=none;top=0;left=0;bottom=0;right=0;pointerEvents=1;fontFamily=Roboto;fontSource=https://fonts.googleapis.com/css?family=Roboto;fontSize=16;strokeWidth=1;" parent="QOJwp3pk0zYt3Cambvdv-12" vertex="1">
          <mxGeometry width="423" height="139" as="geometry">
            <mxRectangle width="423" height="139" as="alternateBounds" />
          </mxGeometry>
        </mxCell>
        <mxCell id="QOJwp3pk0zYt3Cambvdv-14" value="21/04/2025" style="shape=partialRectangle;html=1;whiteSpace=wrap;connectable=0;overflow=hidden;fillColor=none;top=0;left=0;bottom=0;right=0;pointerEvents=1;fontFamily=Roboto;fontSource=https://fonts.googleapis.com/css?family=Roboto;fontSize=16;strokeWidth=1;" parent="QOJwp3pk0zYt3Cambvdv-12" vertex="1">
          <mxGeometry x="423" width="128" height="139" as="geometry">
            <mxRectangle width="128" height="139" as="alternateBounds" />
          </mxGeometry>
        </mxCell>
        <mxCell id="QOJwp3pk0zYt3Cambvdv-15" value="1.1" style="shape=partialRectangle;html=1;whiteSpace=wrap;connectable=0;overflow=hidden;fillColor=none;top=0;left=0;bottom=0;right=0;pointerEvents=1;fontFamily=Roboto;fontSource=https://fonts.googleapis.com/css?family=Roboto;fontSize=16;strokeWidth=1;" parent="QOJwp3pk0zYt3Cambvdv-12" vertex="1">
          <mxGeometry x="551" width="98" height="139" as="geometry">
            <mxRectangle width="98" height="139" as="alternateBounds" />
          </mxGeometry>
        </mxCell>
        <mxCell id="QOJwp3pk0zYt3Cambvdv-16" value="&lt;div style=&quot;text-align: center;&quot;&gt;&lt;span style=&quot;font-size: 12px; background-color: transparent; color: light-dark(rgb(0, 0, 0), rgb(255, 255, 255));&quot;&gt;CENTEL -&amp;nbsp;MP3C -&amp;nbsp;CONSULTA BLOQUEOS&lt;/span&gt;&lt;/div&gt;&lt;div&gt;&lt;ul&gt;&lt;li&gt;&lt;font style=&quot;font-size: 12px;&quot;&gt;Santander debe cerrar la migración a PLARD de las tablas de parametría PAMPA para el cierre de los campos&amp;nbsp;DESCRIP BLOQUEO, DESC REDU BLQUEO.&lt;/font&gt;&lt;/li&gt;&lt;li&gt;&lt;font style=&quot;font-size: 12px;&quot;&gt;Quedan pendientes de mapeo los siguientes campos:&amp;nbsp;INDICADOR BLQ LIQ (INDICADOR DE BLOQUEO DE LIQUIDACION), INDICADOR BONIF, INDICADOR CUOTA, COD BLQ PAL SIA (CODIGO DE BLQUEO PARA EL SIA)&lt;/font&gt;&lt;/li&gt;&lt;/ul&gt;&lt;/div&gt;" style="shape=partialRectangle;html=1;whiteSpace=wrap;connectable=0;overflow=hidden;fillColor=none;top=0;left=0;bottom=0;right=0;pointerEvents=1;fontFamily=Roboto;fontSource=https://fonts.googleapis.com/css?family=Roboto;fontSize=16;strokeWidth=1;align=left;" parent="QOJwp3pk0zYt3Cambvdv-12" vertex="1">
          <mxGeometry x="649" width="551" height="139" as="geometry">
            <mxRectangle width="551" height="139" as="alternateBounds" />
          </mxGeometry>
        </mxCell>
        <mxCell id="QOJwp3pk0zYt3Cambvdv-17" style="shape=partialRectangle;collapsible=0;dropTarget=0;pointerEvents=0;fillColor=none;top=0;left=0;bottom=0;right=0;points=[[0,0.5],[1,0.5]];portConstraint=eastwest;fontFamily=Roboto;fontSource=https://fonts.googleapis.com/css?family=Roboto;fontSize=16;strokeWidth=1;" parent="QOJwp3pk0zYt3Cambvdv-1" vertex="1">
          <mxGeometry y="419" width="1200" height="140" as="geometry" />
        </mxCell>
        <mxCell id="QOJwp3pk0zYt3Cambvdv-18" value="" style="shape=partialRectangle;html=1;whiteSpace=wrap;connectable=0;overflow=hidden;fillColor=none;top=0;left=0;bottom=0;right=0;pointerEvents=1;fontFamily=Roboto;fontSource=https://fonts.googleapis.com/css?family=Roboto;fontSize=16;strokeWidth=1;" parent="QOJwp3pk0zYt3Cambvdv-17" vertex="1">
          <mxGeometry width="423" height="140" as="geometry">
            <mxRectangle width="423" height="140" as="alternateBounds" />
          </mxGeometry>
        </mxCell>
        <mxCell id="QOJwp3pk0zYt3Cambvdv-19" value="" style="shape=partialRectangle;html=1;whiteSpace=wrap;connectable=0;overflow=hidden;fillColor=none;top=0;left=0;bottom=0;right=0;pointerEvents=1;fontFamily=Roboto;fontSource=https://fonts.googleapis.com/css?family=Roboto;fontSize=16;strokeWidth=1;" parent="QOJwp3pk0zYt3Cambvdv-17" vertex="1">
          <mxGeometry x="423" width="128" height="140" as="geometry">
            <mxRectangle width="128" height="140" as="alternateBounds" />
          </mxGeometry>
        </mxCell>
        <mxCell id="QOJwp3pk0zYt3Cambvdv-20" value="" style="shape=partialRectangle;html=1;whiteSpace=wrap;connectable=0;overflow=hidden;fillColor=none;top=0;left=0;bottom=0;right=0;pointerEvents=1;fontFamily=Roboto;fontSource=https://fonts.googleapis.com/css?family=Roboto;fontSize=16;strokeWidth=1;" parent="QOJwp3pk0zYt3Cambvdv-17" vertex="1">
          <mxGeometry x="551" width="98" height="140" as="geometry">
            <mxRectangle width="98" height="140" as="alternateBounds" />
          </mxGeometry>
        </mxCell>
        <mxCell id="QOJwp3pk0zYt3Cambvdv-21" value="" style="shape=partialRectangle;html=1;whiteSpace=wrap;connectable=0;overflow=hidden;fillColor=none;top=0;left=0;bottom=0;right=0;pointerEvents=1;fontFamily=Roboto;fontSource=https://fonts.googleapis.com/css?family=Roboto;fontSize=16;strokeWidth=1;align=left;" parent="QOJwp3pk0zYt3Cambvdv-17" vertex="1">
          <mxGeometry x="649" width="551" height="140" as="geometry">
            <mxRectangle width="551" height="140" as="alternateBounds" />
          </mxGeometry>
        </mxCell>
        <mxCell id="QOJwp3pk0zYt3Cambvdv-22" style="shape=partialRectangle;collapsible=0;dropTarget=0;pointerEvents=0;fillColor=none;top=0;left=0;bottom=0;right=0;points=[[0,0.5],[1,0.5]];portConstraint=eastwest;fontFamily=Roboto;fontSource=https://fonts.googleapis.com/css?family=Roboto;fontSize=16;strokeWidth=1;" parent="QOJwp3pk0zYt3Cambvdv-1" vertex="1">
          <mxGeometry y="559" width="1200" height="140" as="geometry" />
        </mxCell>
        <mxCell id="QOJwp3pk0zYt3Cambvdv-23" style="shape=partialRectangle;html=1;whiteSpace=wrap;connectable=0;overflow=hidden;fillColor=none;top=0;left=0;bottom=0;right=0;pointerEvents=1;fontFamily=Roboto;fontSource=https://fonts.googleapis.com/css?family=Roboto;fontSize=16;strokeWidth=1;" parent="QOJwp3pk0zYt3Cambvdv-22" vertex="1">
          <mxGeometry width="423" height="140" as="geometry">
            <mxRectangle width="423" height="140" as="alternateBounds" />
          </mxGeometry>
        </mxCell>
        <mxCell id="QOJwp3pk0zYt3Cambvdv-24" style="shape=partialRectangle;html=1;whiteSpace=wrap;connectable=0;overflow=hidden;fillColor=none;top=0;left=0;bottom=0;right=0;pointerEvents=1;fontFamily=Roboto;fontSource=https://fonts.googleapis.com/css?family=Roboto;fontSize=16;strokeWidth=1;" parent="QOJwp3pk0zYt3Cambvdv-22" vertex="1">
          <mxGeometry x="423" width="128" height="140" as="geometry">
            <mxRectangle width="128" height="140" as="alternateBounds" />
          </mxGeometry>
        </mxCell>
        <mxCell id="QOJwp3pk0zYt3Cambvdv-25" style="shape=partialRectangle;html=1;whiteSpace=wrap;connectable=0;overflow=hidden;fillColor=none;top=0;left=0;bottom=0;right=0;pointerEvents=1;fontFamily=Roboto;fontSource=https://fonts.googleapis.com/css?family=Roboto;fontSize=16;strokeWidth=1;" parent="QOJwp3pk0zYt3Cambvdv-22" vertex="1">
          <mxGeometry x="551" width="98" height="140" as="geometry">
            <mxRectangle width="98" height="140" as="alternateBounds" />
          </mxGeometry>
        </mxCell>
        <mxCell id="QOJwp3pk0zYt3Cambvdv-26" style="shape=partialRectangle;html=1;whiteSpace=wrap;connectable=0;overflow=hidden;fillColor=none;top=0;left=0;bottom=0;right=0;pointerEvents=1;fontFamily=Roboto;fontSource=https://fonts.googleapis.com/css?family=Roboto;fontSize=16;strokeWidth=1;align=left;" parent="QOJwp3pk0zYt3Cambvdv-22" vertex="1">
          <mxGeometry x="649" width="551" height="140" as="geometry">
            <mxRectangle width="551" height="140" as="alternateBounds" />
          </mxGeometry>
        </mxCell>
        <mxCell id="QOJwp3pk0zYt3Cambvdv-27" value="&lt;font style=&quot;font-size: 20px;&quot;&gt;CONTROL DE VERSIONES&lt;/font&gt;" style="rounded=0;whiteSpace=wrap;html=1;fontColor=#FFFFFF;labelBackgroundColor=none;fillColor=#36393D;fontSize=20;align=left;" parent="1" vertex="1">
          <mxGeometry x="80" y="50" width="1200" height="41" as="geometry" />
        </mxCell>
      </root>
    </mxGraphModel>
  </diagram>
  <diagram name="CENTEL_MP3C - CONSULTA BLOQUEOS" id="2YBvvXClWsGukQMizWep">
    <mxGraphModel dx="2573" dy="3128" grid="1" gridSize="10" guides="1" tooltips="1" connect="1" arrows="1" fold="1" page="1" pageScale="1" pageWidth="850" pageHeight="1100" math="0" shadow="0">
      <root>
        <mxCell id="0" />
        <mxCell id="1" parent="0" />
        <mxCell id="EzSESSrQrR8SRDhSGEhN-12" value="&lt;div&gt;&lt;b&gt;&amp;lt;&amp;lt;Repositorio&amp;gt;&amp;gt;&lt;/b&gt;&lt;b&gt;&lt;br&gt;&lt;/b&gt;&lt;/div&gt;&lt;b&gt;Kafka&lt;/b&gt;" style="shape=umlLifeline;perimeter=lifelinePerimeter;whiteSpace=wrap;html=1;container=1;dropTarget=0;collapsible=0;recursiveResize=0;outlineConnect=0;portConstraint=eastwest;newEdgeStyle={&quot;edgeStyle&quot;:&quot;elbowEdgeStyle&quot;,&quot;elbow&quot;:&quot;vertical&quot;,&quot;curved&quot;:0,&quot;rounded&quot;:0};align=center;" parent="1" vertex="1">
          <mxGeometry x="1517" y="360" width="160" height="3080" as="geometry" />
        </mxCell>
        <mxCell id="EzSESSrQrR8SRDhSGEhN-7" value="&lt;div&gt;&lt;b&gt;&amp;lt;&amp;lt;Componente&amp;gt;&amp;gt;&lt;/b&gt;&lt;br&gt;&lt;/div&gt;&lt;b&gt;Launcher PLARD&lt;/b&gt;" style="shape=umlLifeline;perimeter=lifelinePerimeter;whiteSpace=wrap;html=1;container=1;dropTarget=0;collapsible=0;recursiveResize=0;outlineConnect=0;portConstraint=eastwest;newEdgeStyle={&quot;edgeStyle&quot;:&quot;elbowEdgeStyle&quot;,&quot;elbow&quot;:&quot;vertical&quot;,&quot;curved&quot;:0,&quot;rounded&quot;:0};align=center;" parent="1" vertex="1">
          <mxGeometry x="797" y="360" width="160" height="3080" as="geometry" />
        </mxCell>
        <mxCell id="UOhI1Jb9BPqGJdpc2Sex-45" value="&lt;div&gt;&amp;lt;&amp;lt;Altair 390&amp;gt;&amp;gt;&lt;br&gt;&lt;/div&gt;&lt;b&gt;PAMPA&lt;/b&gt;" style="shape=umlLifeline;perimeter=lifelinePerimeter;whiteSpace=wrap;html=1;container=1;dropTarget=0;collapsible=0;recursiveResize=0;outlineConnect=0;portConstraint=eastwest;newEdgeStyle={&quot;edgeStyle&quot;:&quot;elbowEdgeStyle&quot;,&quot;elbow&quot;:&quot;vertical&quot;,&quot;curved&quot;:0,&quot;rounded&quot;:0};align=center;fontStyle=1" parent="1" vertex="1">
          <mxGeometry x="2239" y="360" width="160" height="3080" as="geometry" />
        </mxCell>
        <mxCell id="UOhI1Jb9BPqGJdpc2Sex-1" value="&lt;div&gt;&lt;b&gt;&amp;lt;&amp;lt;Plataforma SaaS&amp;gt;&amp;gt;&lt;/b&gt;&lt;br&gt;&lt;/div&gt;&lt;b&gt;PLARD&lt;/b&gt;" style="shape=umlLifeline;perimeter=lifelinePerimeter;whiteSpace=wrap;html=1;container=1;dropTarget=0;collapsible=0;recursiveResize=0;outlineConnect=0;portConstraint=eastwest;newEdgeStyle={&quot;edgeStyle&quot;:&quot;elbowEdgeStyle&quot;,&quot;elbow&quot;:&quot;vertical&quot;,&quot;curved&quot;:0,&quot;rounded&quot;:0};align=center;" parent="1" vertex="1">
          <mxGeometry x="1998" y="359" width="160" height="3081" as="geometry" />
        </mxCell>
        <mxCell id="Bnk67_aWibF8yN_9XxKm-28" value="&lt;div&gt;&lt;b&gt;&amp;lt;&amp;lt;Queque&amp;gt;&amp;gt;&amp;nbsp;&lt;/b&gt;&lt;br&gt;&lt;/div&gt;&lt;b&gt;MQ Canal&lt;/b&gt;" style="shape=umlLifeline;perimeter=lifelinePerimeter;whiteSpace=wrap;html=1;container=1;dropTarget=0;collapsible=0;recursiveResize=0;outlineConnect=0;portConstraint=eastwest;newEdgeStyle={&quot;edgeStyle&quot;:&quot;elbowEdgeStyle&quot;,&quot;elbow&quot;:&quot;vertical&quot;,&quot;curved&quot;:0,&quot;rounded&quot;:0};align=center;" parent="1" vertex="1">
          <mxGeometry x="558" y="359" width="161" height="3081" as="geometry" />
        </mxCell>
        <mxCell id="Bnk67_aWibF8yN_9XxKm-1" value="&lt;span style=&quot;text-align: left;&quot;&gt;PLARD CENTEL -&amp;nbsp;&lt;/span&gt;MP3C - CONSULTA BLOQUEOS&lt;span style=&quot;text-align: left;&quot;&gt;&amp;nbsp;- MODELO FUNCIONAL DE SECUENCIA&lt;/span&gt;" style="rounded=0;whiteSpace=wrap;html=1;align=center;fontSize=16;fontStyle=1" parent="1" vertex="1">
          <mxGeometry x="-1" y="201" width="2601" height="79" as="geometry" />
        </mxCell>
        <mxCell id="Bnk67_aWibF8yN_9XxKm-202" value="&lt;img alt=&quot;&quot; src=&quot;data:image/png;base64,iVBORw0KGgoAAAANSUhEUgAAAOgAAABXCAYAAAAONQnYAAAAAXNSR0IArs4c6QAAAARnQU1BAACxjwv8YQUAAAAJcEhZcwAAFxEAABcRAcom8z8AACX3SURBVHhe7Z0JmBTVtcdPL9N797BIFEWFqIiAskgU0IggGiMvbhF5aDQmrnFHBBVRjGwSQEUNboDGGBeeu2ERVBCVXYFhBGbt6a7uWnudGTZR6v1PTzEOAwPTQ4+A1P/7zlfLPXWreub++pxbdes2mTJlypQpU6ZMmTJlypQpU6ZMmTJlypQpU6ZMmTJlypQpU6ZMmTJlqokqpEKH1lrz89LYZcpU47WI+tkjdHlrJW9wd9l2zcCY/U9nB+nPLqPYVHayhNzasUGvcH4ooFwUDqhDQ375CSxfLW4h9jN8TJnat3Qia4L+51zZdtk/ZPvlMyT7Ve/K9qvXxB3XKJrjmk9C7r8ea7iaykLlPvG8cL48N+xXhEhAVYSAmhQCmi600PTyFsr1hpspU/tWMV0cSNove3tb3mA9lXeVnswboicdQ/Wtjj/riuPabyOuIccbrqayUIU3ckesRVrX8lO6lB/XRZiUn9RD+cqOsoB8reFmytS+FaberZL2yxdsB6BS3hW6DEhlxxA95fgTltesFNzXtjNcTWWhoC9yWzRf1dlC+RJM1iP5MT2cr243ATXVaIXo3JYp++VztgBME9DcyQTUVE5kAto8MgHNocJErXYSOY3NI0omoM0jE9DcyKIRdUoRvRIjegTrfmP/ESMT0ObRoQCoTrqlhOLHl5PYr5SUK8spenMpSSNLKPo7w+XQVoioZZzo/R/xWdJE25JEY3Uij1F8RMgEtHl0MAEtoIKjyylyaTlJU2ELg6SUV5CaCpG2TaSkXkryDMP10JZE5E0QPQE4t+wApAB0G6Lok9j/K8PlFy8T0OZRuU+4+ecGtJCiJ4QpdiPsgyDJ8Shg1GiLrlC1HqW0HiRNj1AyFSR1snHIoa8oIqaK9BaRdPP3NZDuBKQzKomOMlx+VhUSOYrJ1yZJ+R0k8nZVKb9nglr8VqWjB6l0zCUqHTdIoXa/i1GHs2TqeEaSOnYoo1/nG4dnreYENEzD3FHXAydIeaO7iPZxvWTn+Askx7hBomPCJYJj4qCoc8rvZPvU3pG8p7qLjmmdo64XT9BaT/JzamZU0WjxMWvpNa/qmdc24pjTUfDOPUN0L+gV8i4cKHgWDBI8n11SY58PCjm/uEjwL+8d8XzdI0iLWhhV7FeraXVekbvoONFX3DnqKekZ8hah7tJBFbAST/BiwS30rvCJncu8ZUeHvMI9kXxl588BaOa6SBoUInVeiGJbGEoVUCK1rS4lcR1sZhlFH0I0vXsjRa8JkdTFOPTwUJDIBSiHA84ER1JE1B8B7CyA29ZwaRYhnbag/9syRo7TFHJcmbQ67k9Y3FNiFu+HmiWwVrO0KNIsrUtVy1EhzXqMpFmPhbWTFGt7UbF2KFetp5Ro1o7fqrZOryfsXR9Sbd1/L1PXo43qG6VcA6rRCL9oH9VLcT5yu+p49J+i49Gvo67HiqOux8uirrGRqGucHHVNlKKuSbApYsT9ZDDqfrok6p5WFHE9u0JxPz9T9bw0OuT65/WC5/luwfxX9gqQTrNtQc/sYyT3e2eJrnevlz0fjZa9/50e8Xz8ueCdsyHsnVsc9s4vE3wLImHfAlnwfSYJvs9hi6Wwd0lU8H1VEfZ9XSx4ll1iVLlXLaJF9gpfYeewf+NfooHiyYK3aHHIt6m4wl9UGvKXRcL+MinsL5dC/qAY8oeCwfxQcUVA+CIciH4dzpd+EABmcwJaSOFWxRQZgzRWZihV2oxIqcbKSX4TgF5XSsIpG2nj4X9vZTaRDenuHTCNIynAQXpAb8NONVxyLpnoaHwZPFtNlpVxylMSFtePKYtHr7T49CpLPqwVrA22f6WnrW1h7WAnwDrATtIrrR1hnfSUrbMet3XdmbB1E+LW7h+K1h7DZGevXxun2adyBWgh3e6THCMGq46Rr2jOh9cprtFbY64xetw1Vk+4JmA5QY+5n4BNgk3WNfdTsGlYf06Pu6fDntfjnhd1wKnLnpd2iu6X0gnXa99G3bPGLaIx9pqz/KRyx79PVT3vvR7zfFQY9bxXKXk/2ql45+iad76u+T7NmOpbpCu+xYZ9CfsathS2XE/4v9GlwAo95P1qiFFlfVkirvV9BV/BP8RA8fKof1OVHCjRlUCFrgbCWIZ1OSDAIqhHzJgckHWlhZaxSAZK0bDmATREm48FmC/AdnDURFq7HWC+i0h5dZCSjc4MDhvxuFSF6IYYuqcM6WYY1ucB0k6GS07F9eKLIKSTVa8kh560uPQEAI0BUA2AapaWsKNgbXREUNhxsONh7XXV+mvYKbBT9ZjtNAZUT9u66VW2M/WE7cztMduZSzQ6+9LZNNhmnG6vygWgSt493SXH8JdVx4hYwjVKT7oe0VXXaF3GUnI9qouuv8Me10X3ONgE2BN6FJBG3VNhT8OmwZ7Ro57ndMnzPAMKUGfp27xv6RHPzBU6vbLHgP2g8/X+iuedZLV3nq54P9YBqC7Cot7/6oJvDmwu7BPYQsM+hy2GfQH7Upf9y/WIf1la8C/7vVFlrYL5a1qEvOvviXrXF0v+TboWKAOAxXoksEkXsAxnrARWBivXQ4C2xkIAUQCEEVi0WQEtoLKjS0l6LUxxtNGtgFOJlZH04Foq/eXfPwE41wCciu0/Qfq5RHS2UZwzcXRGxC7ZAkCR5gJMF8wDIGsATQDQJABNAdAUAE0hgqYQQZMANA5ANQNQFYCqti6wM2A99CQgrbadBVB7C6K9z/0SXeg1TrmHDhRQ1XHvoLhz+IqEc4SecD4IKB8AjA/CRsFGwx7Fvsd1xTUOEXMCbBJssq66n4Q9rSvuZ3UZtgvQqGc67AXYS3rS+5oueGZ8uTdAw67/9BM9/6do3g/1iPd92AcwXv9YjwBOEXBKiKIyomiNLYF9BfsatkxP+tegfEVJifez3fpjUdfqE6Legumif/1mLVCkR/0bAOF3MF6yFQHSEj0KMEUAKSGSioFoxqKwCIAUAGdzAlpMYhtEyplhiukyVeoVpFYA1r+MoTFWw+WXL6Sfl6MfuokhZcP6ylxDyoCi31u8D0B/SFhabUEUTSGCauiDyoig8bi1fWXM2mFHGilulfU0gNh5N0BVW09YL73K3ldP2PtUadbetxqn3EMHAqhsu/0C1XF3SbVzpK4679clmOgaWQuoAjgTSHFjgBOAfi+7xqdF13gNfVAl4vpHPOKamhRd06oB6fcNAzpzSUOASp535L0DOm+n6Jv/fcS3sFrwfpIMexdq3AcN+xYpgndxXPAtSWr+Vdtk36pPiml5wKiSYq2WB0TvupkKoGQL+wtg62sB5Qiq5iPFzQ9hvfyHiD9YhX5oHNFTrghUaGF/OB0NiNujADKa6Xs2D6BIZe8TKPFjDGktQA0D2KuMoiNLAGgAwFyxDYBuhSHarUQ0vdAoPmA1BGjK4gegATlOLR+LU+BWjVpfF6djBmvU9nKVjh2i0gk3Is0dGbecMiNpPXVFzNZpWyVSXK0eoIr9bEB6LlLgvmWa7ZzzjdPupqYCKuXd1EV03Lm8ElDKzmGA877dAI1l0ttHdqiux1ZKrr+/gCg6POIc+xfJPXFw2DHxCsk1+eqoa8q1Uee0myTns49HnM9qSgbOAwNU8c1D9Jy3TPTOuy/qWXBT2Dv/WtH36VUh9+eXBd2fXRnxfj6kwrvkT2Hfktsj/pXoAszOdAF00m0R37ePSIH1O2Q/gPSv3Q1QKRM1S7As3RDxl/8n5Ct5OOwruykcKP3foK/0ipAvNDjkD90Q8gv3IsV9IuSPruQbROEMqLkDtIQifUKklXNaGyK1EoDebBQdmQKQZ8FWMqBGJC0CWJcbxQekhgDdDEBjFv+3q6ntPgdNKNTGF6OTO2vWjiM1a+fSSgAaqweoau+jV9vP0zX7uXNidFZttNilpgBaSIMdkuNvL6UBpuK8F2Cy1QAqIcWNM5zOUQLS20fkvJGnR2nMfj7HP46JOp8p4ptEBwpoEv1NyffJ04Zbo1XhXD5A8K6Oa5zGZuD8CVAFfU7BvxH91aLnBX9x74L8gpbGYQ0qCFD5EUskh49ZFlHQVU7S63ynltPbMlKeX0pht1F85Aog9YJ9xZDyzSNE0nKF6IDTiv0BupaObrDvWFf8uEaiLv3j1q7LqwGnBlMMQBUAmkAUVey/3Spb+w01DqlVUwCV7bf0UR23y6kMmHfXART9UNfDgPahCsHx0FX7u0G1SzGaehwALc4VoEqWgBbSbJ/gW/1GHJFSQN+0LqAy0tpIYKOCFPfOKEUbPcqsOQYqlJE8EH3NJA88KCNpY5C0Zrl5eVgKfdIzAOaCaiOSptBGVKIbxxA1uWO+P0A3Uuusnl8p9u5949YewWqGsw6gqv0cpLrnY/38t9fWu2HUFEDVvNsmpQGm4rxrN0Djzgd1xfGAEHU8cIXh2ihFaMrxuQV0wTS4NHqwQ8S1ok/Ut1pRMxHz21pAo0h1xcCGbYJ/wzCkwFn9n3M91I/Pj+g5XaJKHg2kV5A82igytUsC0SlIcd+pxN+LBzRgPQZIb0IEa1SkqK9cA8rSrN1Gpm09d8Rtv6kFVAGglQA0bhsQVGlAT8M1o2wBFdw3tVMdt62qdt4DKO+sBVR2DtdjzgdQx4jHDddG62ADKnhXDdP86/SI/5vdANWQ2oZ8hfPX0JqsnynmGtBiEtqh77k6RTt4IELpJhLOMIpM1VWE6HiAOZMHMhjproJ0d0SYKOu+QHMAGqZux8WsPQsr6wGaAqAJe//qsO283aJbtoCGbTderDpu3RrLwPkToAnnSETUEd9F6L6OhmujdTAB5bRV9K1+Kx4oBJSrawEV/YUAtgDRc/11NZ7ZKdeABkk6H/1OrYp+1AWKvTGbZpszAzYkQNoacM0AXD8ag+yrAe3jPK7XcGmUmgNQlmrp+QwDqtp71wIas/cDoAN2Stb+Iwy3jLIFVLTfeGvSeTtgvH03QKucD+mxvBHTm/Is7mACKrq+PjHiXbFRy6S3PwGqcd/TX1BYcdSGJg33zDWg6HPeIVDihyildKS6Dxi7TTWkNCBFevscImgGUqS9WwDbTUZxo9RsgFp7DEkAUK0OoKr9PH2L/UI9aRvIjbdW2QDK03KKeTc9zYDKdQBVnMN0zXn/Tskx/G7DNSsdTEBD7hW95Ez/c109QIsA6PolhZ2bNodtjgG1lJP6bJK+18MUry6myB+M/ab2pSBRC0D6BCBL8DulVUQreZ9RvF81F6CyrccF3AetC6gCQLcD0CrbwBfhUtt4swE0RtcGFPvNc9IAsy6g8Uz/c3il6Bixz4HnDemgprjeZRcixU3KmX5nDaACYJX9G7AseFlv4uicXALKb6sIFH+9mvTM62JFJDbp73xEivueAG22DkDRL42gP3qSUbRfNVsEtff8rWbrtQegWwFoyjZwRt3HH9kAGqWhR2mOW1ZUAkzR+bd6gI6IKa77zjVcs9LBBFTyrPgf0beqUs48XqkBFKkt90F3Rn2FDxpuWSuXgM6lYqdAyTeqaCf6n4k0v1pmFJnan9D3vBpp7iaOoAC0CFG00YOVmwtQxX7mOTxQoT6g2wBo2nbhy3X7idkBegsAvXV1fUATzvsZUC3iuq+v4ZqVDiagEffSPzQEaMT/3W799WyU2wiq54mURgStAbTUjKCNk0w0FIBJ3Afl4YAA9El+I8Yo3q+aL4L26hfbC6Cc4qZtA18w3DLKNoIqjltXMaDSboAO5z5oLHoYRtBQA4BKmeF+BeMNt6yVS0DHkG4NkvZyJf2ghyhWZQK6H/G7o2miGwCXzI9aEDX5Je//ixEdZ7g0Ss3YB700vgeg/fQt9oF6wnbBU4ZbRtn2QeW8m+dxH1Sq1wfVnMNTUef9FxmuWelg90El3+pE/T6o6ucRROvf4zG6hmtWyvFNIiql8Ej0P3dGKPFDkMS/GbtN1RcipEMluhfRMvUDNgEYD1iYiX1Z345vthTX2v2hVL3HLHH7+XrMPuDHqLX/XYZbRtkAyn1X0XbzU/Xv4qrOYbDhP0Sdw5o0cPtgAiraV/QSfd8oamDPu7hRf+FKpU2hz3DNSrkGtJxCF4UplkxnnoPGZ+0a5G+qjlYTeRAlRwGqSoYTUXMHIJsWbeL8Rc0BaJBOdGnWHgurAGj9gQpJe/+0aBuw2wvK2QDKkvNuuSUBOOs+B5WN56Ba3sgn4dIoMOrqYAK60bmovehducdz0Jo3WtZrFd5vLjBcs1KuAS2m0ElBUr9L16S5a3jbKDLF2kjkTxBNBZSZGQARQXkGwPEKUZO+YVnNASjPS5Sw9Uwm6wFaae+vx239N4g0oLPhmlG2gIq2Gy9RHLdt1zJw1gDKAxVSmXG4968S3CN382+MDiagq2m1B33QN+P+3UcSRTjNrXkW+iLPS2S4N1q5BpQftQRJeo3nHQqR9mMFKXcaRaaKiQIMJ6DcyZETyy0cSbH/gGajzzWgGp3qT1i7v7+V+5+wXYDyYHkeiyvbzp+p05l5hntG2QIq0Z/bq47b1lbVG4vLL2yrzhE7ZPvIBl8Ob0gCTWt3sABlyd5v7+EUt/5YXMm/Efu+U4L+gqxvyuQaUFY5qUPKSd6mUJVeSuKKDVTRrJPaHRbiOXLRx5yOyPkj3xDCMgVYR6EvultDb4r2B2ghtWl0dA5Stxaq5fSJSVv3HQnbmXu8bqbaf1slU7893mPNFlB+cI8091kGVK4DKL/NkuQo6nxgXcg+qpfh3iiV0dNHA9CcvQ+aLaCCe3lvwbdKUfnl7DqA8utm/C5oJLDxCzGwMavPVO4Tbs01oDwRGACdy++DVpC6A5COaepNrF+EACYPjP83v2Jm3BBSkdLevogo65Rnb9oPoN8sQn/ScG1Q/LqbnNfxDM3WZWbMdsb2ZAMvbKvWc9/Z29xE2QLKEmw399ccd8aSGTB/AlTJvA86ShedDy2Luh46x3DfpxR6zhfJm3KD6HomrnqePyiAhmmpW/Cuejnh34CIufv7oAJSX54wTPBv+jbs/+6voq+4jXHYPlXhC98o5hhQVgmJF1eQFuMZFQCpAmAvNYqOLAHEkwFn5tUyI62NACh+s6HR//j9qSFAK2sADWrU4lqFWvaV6OgOFXRCW4VOPCYIi1G741Q6sYdmO+lyzdJpnGbttDZh66onbd0AZvcMoLsiaGXmDu45ZQnqc55x2t3UFEDDdJVbcdz+70rnMERRTnV3vbB9f2bSsLhrtB51jlofc4+5W8gbc0apd8yvIv4JrYtbjQmk8ie2zGw7JnQU3VP/KLqfmiW6pikSTxyWgzmJmgIoq9S9olfU921RDGltXUB5RgVEUETSMsC7KSUEit8PBzbdHvGWXrDJV9BpY+uNxwY9wWMKYRs8FW2D+cH2FfkVPUP+yDORfAVQKjkFlPui6H9OlSi9s2ZyanklImlW0f2wF9LaLgDyM57Rz0hrSwFTTqY5qauGAOVJw2KW/B/jlhZpzdI6mLIc9WXK0nZuynLsf1OW42HtP41Z2heq1lOSMWunnWlbZz22l0nD0va+gLPvZtXat8HHH00BlBXNu7mn7LxjA89JVBdQnpNIcj0ESB/VFdcj2yTnYwWqc+yHsnPs2xHX2JdF94T/qK7JH6iuKcsAaFIFmJr7n/rBBpQV8a0ZLPkKYjF/0W6A7po0jOclkgNBXQyUbo34y6IRf3Cl5BfmR32R/2bML80T8+Ul4fxoUTgQrWyuScPWkdAO0fNdmdK6mHm7Rf06SHIfo/iXLZ45AZFzMc+aYKS1xYimFxvFOdV+ANXTlpaZias3W36lb7a2hbWDnQDroFdZT9JT1o56fC/TbsYAKE+7GbOfvVmy9X68/iwKddVUQFmC9c4/qc57Y2mktvzCdv1Z/VRjVr8kT1oNU9w8efUkPemeqifcT2cmrpZhqvs5AMpwHlxA+W5t1LNulOhbn4770ffM9El/ApSN58UVA+UANaxrAVGPBSRdDcgwBabpKiBU8jWkts03qx+rhKQu5SR9JVNVZupNRNJvsW9IIem/3PdEAWYfALOUh+0Z05oUwJoFTta+AN3bxNUx63GwPSeuVgAo+qB6HCluGnCmbWcC3F4lqr3XPWHqvc8XyRsCNNkIQHnGdynv7r9ojvtK084HamZUQIobrTcvruT6O2wsYBwPECfWTlytuJ/S44ieEde0AtH17GdyBs6fAE1kCahwgICyJPrEK/jW3Br1rV8jId1VM7P58YTVSH0zkCK6AtK6E1eHA6Fa44mraywCYzijMInB1KX8ZGZZ4hevN053QEJqe2Y5KQv5HVFOdxFV5TKSJxVTpIfehN+3OaSFtHZADNkDP+NkOBNEyxE5mzT4u7HaF6BxAFplTFwdA6CxOoDGAKgGQGMANGXthGjZBVbTB41Zu0Xjlh4zFPsZjRoXC4Bbpe2Xf6rn/a+eBpyVeUP0Ssc1+veOG3TVce26iGvI8YZrg4ra7rpIzrtvjuIYsSXlejgzs7xWM+0mbAzs8QygknscoHwC0XOqnkLkBKA7oq6nPy9zPfnbhHv63du9/0LUnAGbBXtV3+57G+DNWhGmqXt8yVQ43xigeN5LbfZ+ose9c2HzAPQnOOZLPeZdMB0uB9RASzyreoZ8Bc8JvsIy9EF/UAGilh/MzIsrAkwhUAorhwXrABoGgDyrfEQX0fdU8hPwT+lKi6QuA04Z6wBUKffJlxmnOWCVU+TUMpL+BTi3xmkbz7aAaKqsKyPlsQqKnhOi0H5nIDzkhch5Cb+RwmAag94/BZzdjOJmU0OAxjI3iQKbK6llUZxab65GiluNFLcKKW4VUtwqpLjVSHHjADRh7SRXWzsXxq1dFiQsXSfJdPrAQurc6Mczq+nM/Crblc9/bx9cmLL/cW3aPmRt2jF07WbHdYUJx3VvBj2DjzFc96kKuretaL//b4ii7yddo79TXA8nE67HACunuONhE5HaTkIUnfgDAC2PuZ9cJLqmjq5wPtOBj4+7Xhiy1fNKQdwzY13cO2tt3Pvq2mrP69+p3tdeLaZpezxvDtvf+k3c88HitGfu+rh3Dvznro155q+r9i0qTPk+49fEDjiCLKWl7qB7de+Ib8OjEX/R+0qgdJ0aCJZF/aXbVERJDdFRhSmIkApSWAVQcoqLfqgeCchJOT9epAZSBZGAujySL78mBGKTwgF16AZ/pLVxipyoABAicg7jEUaC8VMQIVJ55oUQ+qZvV5AysoTE6zaScH6QIt2LKJbVmPGDJp3IDhivriIq48i5BYYoOlclynpenaaoIUCragAt1Ch/gEatb6ukNlMqLW1hx02utBwP6zC52nLyFIVOelykU69K0am9ItTl+KbMMMgD/7fSoF8n867omci7olsi7+qMRfOu7qk6ruuo0y1ZPe8V6a42mn1EL8k56gbV/ejkmHvslJh7PJbjJyfcT0yRXZNGRZz/GCg5n2qPP3ctRJX04lHVnle6K56Z3XaZ6pnVUwm8dvLe0jVORePeD7tEPB/0UDwfw39+xlTPRz1j7k9z3gCLqbiN4FnfTfCWDgh5N90XDZRPVQPRyXJAmCwFpFpTWqhTAOiEcL70V6Vl/JxofrJn0BftpLXWmvSzio2XbgGkZwDGcYim64Kk7IzRZl2D8SyAiKqbwxSrECldiIj7mHHQoa0wUas00UJ+2ZojJ6Lo+yLRiUZxs6shQI3noKsRCTMdflyfrQFrxn/4gYsH19fY7Izt7VfKDlfxAIG922xeNmkWhlyIr4F//5N/6h5p7vuwoECJSp7omgc48EvfKPsPPA/ptpMRDzhAejuokmgN4HwP0bRRP9mXK+0H0Ca/zWLKFGsDbWhdQlL/IGnXlJM4upQiz5aSPBOA3gCQD31Adwmg9AKgJxibP5tMQE39XGIggxR08TSjSNcPaAz5ESMTUFOmDmGZgJoydQjrlw5oGVE+PqP5JWPq8NQvHVB8vltjRDkZNWPK1M+uXYBuBaBxABoHoCkAuhOAahb/hsMd0DTR81VES/lxlrHLlKnDR4gup6WIBB2AbgWgmwFo3OLZvs3iD8coMEdq5O+DHqiWErn5uaqxecDi1JZn2OfoCUC34UuoUQ/GVxPlSUTtZaJf49g9fmy4KeLPdaAzX+xLXD9PXo7lQXv2aaqZxDMBJoimJMnyrxjlTYU9ESfPTUny9JTI2eFAfnu0seJhjoh0EwHV0cauAxbqvBifbRhPpgY451USpfhFBKN4r0J5X/i9gr9HEeAsxXFzkWH8wShukhhM1DEc19JsPxOPL6Br8Pcbh+vN+icKTR3iYgD525cjh7HrZxfDuZWoMISolauZIgDZdai3BKCdBbsQ69uw752GojQad3tkEt9iGYLfCzjmBWy/A2ivNlxqVUhINfZSD0ewufUiJafWgHMF6nvZ2LWbeJgjjtvr61nYb9/X/wXllleIXJuJZgDStQrRbmOWUb7XY/lvbHwGM+Ka2r8Az2NoYBoizasAYgYAGYPG1p3nYgIkd8J+Z7hmGhei3JVo8DeifI/0G3X0MqA8rboGtvkMCbanAr4Elvcgqu4xIATnvxD1bgdME3mbGy+uwccN2di24Xz9cfwkXCOyDZqO67oF1oq/4LB9Pep/BmX/xr6pWA7iY3myN1zTEpSvxvJ29uPUWyRqg/pvwPZLRn2Tca39+Fw4/kzYg9j3MspewfJh+NfOhIjrPAq+f0LZc1yOz7kJ/ku5zsz0M0QXYP9TON+/sBzOKTsfh3rawe6B78uwGfi7HxkvWJs6MKGxPILGshUNahka3hw0oiAa+3eAZSj2z8e+VfDJvLLE45TR6IpQ/iZgrX1HE/uOh/8E+PK0MF8yBPAZzzNSoI7rcDz3KSvhtwMN/GuU3Vg3fYfPKbAS7N+AOi4FXLVv43CkQt03oTyK4wtQz1z4lKPONPafh/UTcM4klhtw/MdYrkeZCt9bcB0u+H+K9QTsC9gM+P4Gfq/Bj30WwT6HbUH9szliYvkyrpFnbfwSPp/weeG/DNaevwywj38XNobyJXwszhWDfcGfGWWXwb8Cy69Q9gH8RKy/y31yrF+Jeitx/vVY/wjHX2h8RFOmGhai19gtABKN7zdoNBxxBnDDQkN7C43rLpQnsJ35VW6sD+VtRJ8/Zg6GdhK1RsN7A/t3vaq3A/XcVYH+NfavYcP2QDTYKAOLdJp/KiMNu3dXhGThXH/AvmU4rwpbDP+buZy/FFBHMY5dCCA7ckSG76Ow7YhWA3G+k3HNaWz/maMulv1wvWEGxIigi3H+N1F2DHxbYfsW+OyAzwiOevyL6dj/Kc49h/usONfbiIrrEPm6GmD9FX8fhnAIjr0Ufklc33j4tdlIdCyu6zXsW1qC68Bx78G+QpbQCT6tcd7RKNewfRF8BuOzC6jjcnQnWuKLZ4+X0E2Z2kNoOOPQANehcdbOnICGNR8NqwyN/HQ0tK/QoN9BI/Ogsb7J22hktY9/0HAvgm81TMdxOi/hV8qNFMddhvJK7P8Sx6SxP+PDkKJM4H6vUU1GnA7C/1bYUlxXFfzvA0T9GCgcN8xw45tr9+DatqDOCwDeySiLwyczux2Obcnng81nSODzBfz5N1Ezgt8klO3k6+Nt7rfiPB/hfB8zoDjmLUC2nH9Fnctx/Kn44uGofCeOy/wWLOqofeMJf7vMoySB6GwcuwLlxbi2WfCZhfWFqIsj/VAAfRV8y3G9TfqBKVNHqAxA1yIy7XqH0oKGtQQNshiNLB92FxpXBRrqSDS2jWh89xt+GaH8POxPMnRowPw7NTq2GcApqKcF6p/Pczvh+NpynogN6yVo1HudToUfs+Cc/IbRKqxfgWvZjLruM4r5C+Su+oCi/Eouw3FHYT/3O/nu8VFY8nrtTSL4TcD2ToCf6VdyWov6P6gD6JtYX8kRl8vh2xnXW4BruQP1jkWdSSxP5TIWPut0+C8D0D2wvgT18wRzj+G4MbjGv2N5L9Jf/uK5Bn/nIMrONw41ZWr/QuOaiIbDfcfzAVl7bljYx88ueV6fTFTDeiHKtqIBrkND2+03QdYSedF4J/MxPCMFw8mwonHGEDmGoEG/hXQu8wtwOE8GTiwFHHMt9y+5Dk5jAcYNiL6/wfFtcQ3cXwvjXF/gi6Mr1jkyrUOdfXHcCVh/Ff4M+UCc4xTs3wzfwVwXzvMr7FuJfZ/jM/l5Cd8C1Nsd/seh7EYc/z3sGVgH7OsNnzKcYz4Dinre5c8Jv8ys7Sjris9Viv138I0q1M8Tl7+J8o6wnjhuJWwVp7tYPsvlqPdm+JwI64b1KzilxTVcj7+LhGsawPWaMtUooUHdgwYowBYAno+xzTdr/s0NzHDhqPM4+pp8w+eFvT2bRcMOoCHzXdXFaNwR1FHJMKIx8k2SGAOLfQk04DLU9QZ8d/sBJwYNPmtwDV/D5mG9AL7fwDfT10X5H3FMMVLNpaj/Xez/EtdSBrDPg297lJXgXJlnpkhdOWrOwfZ7fK1Y3oFjKhDFF+P6pqFf2RH+0/BlUIpzzcG+D3GNm1D3DE53cZ0vYX3erufCOMdp2F6C67mRH8vg3BO5PuzjG2jvYv9ybH+0BtkCAO6C6+LrX4+/5Qewhdh+D4AyvFfgmFVmimsqK3Fqi8ZzHhrmQBg/7jiX70gaxZnnjmiIY2ApjiDG7r0KMByLBtkHAAyFPYntV9AgZ2J9LI6/FI27O/btMXwRkLTEec9BQ/8frA9BHb/nCGUUsyyo43SU882W/ljvCr+z+Di+2YI0uA+DyY6csuKc3dift420tTeguQjgnmXsCxjn+x2Xoc7TAU8nBhr7O2F/9103sLjvDZB7AuhjeRt/Lzfq7svXwteA405BeTdcR+a5J0de1NGP/5Z8TlxLd5RxvW04Q8DfIZ/9TJk6YKHhX4hG/T7AErB8kR9bGEX71a4H8my7UllTpkzlUIh2HK34ud+9u/pkpkyZOkSEyJcZCG5smjJlypQpU6ZMmTJlypQpU6ZMmTJlypQpU6ZMmTJlypQpU6ZMmTJlypQpU6ZMmTJlypQpU6ZM/VJF9P/4VLlQmJjGNAAAAABJRU5ErkJggg==&quot; style=&quot;font-size: 10px;&quot;&gt;" style="text;html=1;strokeColor=none;fillColor=none;align=center;verticalAlign=middle;whiteSpace=wrap;rounded=0;fontSize=10;" parent="1" vertex="1">
          <mxGeometry x="110" y="239" width="10" height="10" as="geometry" />
        </mxCell>
        <mxCell id="Bnk67_aWibF8yN_9XxKm-9" value="&lt;div style=&quot;text-align: center;&quot;&gt;&lt;span style=&quot;background-color: transparent; color: light-dark(rgb(0, 0, 0), rgb(255, 255, 255)); font-size: 16px; text-align: left;&quot;&gt;PLARD CENTEL -&amp;nbsp;&lt;/span&gt;&lt;span style=&quot;background-color: transparent; color: light-dark(rgb(0, 0, 0), rgb(255, 255, 255)); font-size: 16px;&quot;&gt;MP3C -&amp;nbsp;&lt;/span&gt;&lt;span style=&quot;background-color: transparent; font-size: 16px;&quot;&gt;CONSULTA BLOQUEOS&lt;/span&gt;&lt;/div&gt;" style="shape=umlFrame;whiteSpace=wrap;html=1;pointerEvents=0;recursiveResize=0;container=1;collapsible=0;width=400;height=28;fontStyle=1;fontSize=13;strokeColor=#000000;strokeWidth=2;" parent="1" vertex="1">
          <mxGeometry y="282" width="2600" height="3158" as="geometry" />
        </mxCell>
        <mxCell id="Bnk67_aWibF8yN_9XxKm-22" value="&lt;div&gt;&lt;b&gt;&amp;lt;&amp;lt;Canal&amp;gt;&amp;gt;&lt;/b&gt;&lt;/div&gt;&lt;div&gt;&lt;b&gt;CENTEL&lt;/b&gt;&lt;/div&gt;" style="shape=umlLifeline;perimeter=lifelinePerimeter;whiteSpace=wrap;html=1;container=1;dropTarget=0;collapsible=0;recursiveResize=0;outlineConnect=0;portConstraint=eastwest;newEdgeStyle={&quot;edgeStyle&quot;:&quot;elbowEdgeStyle&quot;,&quot;elbow&quot;:&quot;vertical&quot;,&quot;curved&quot;:0,&quot;rounded&quot;:0};align=center;" parent="Bnk67_aWibF8yN_9XxKm-9" vertex="1">
          <mxGeometry x="318" y="77" width="160" height="3083" as="geometry" />
        </mxCell>
        <mxCell id="Bnk67_aWibF8yN_9XxKm-161" value="&lt;b&gt;Ejectutivo Santander&lt;/b&gt;" style="shape=umlLifeline;perimeter=lifelinePerimeter;whiteSpace=wrap;html=1;container=1;dropTarget=0;collapsible=0;recursiveResize=0;outlineConnect=0;portConstraint=eastwest;newEdgeStyle={&quot;edgeStyle&quot;:&quot;elbowEdgeStyle&quot;,&quot;elbow&quot;:&quot;vertical&quot;,&quot;curved&quot;:0,&quot;rounded&quot;:0};align=center;" parent="Bnk67_aWibF8yN_9XxKm-9" vertex="1">
          <mxGeometry x="79" y="76" width="161" height="3084" as="geometry" />
        </mxCell>
        <mxCell id="ToUPSf5seXOrwuXV1P-5-8" value="&lt;div&gt;&lt;b&gt;&amp;lt;&amp;lt;Repositorio&amp;gt;&amp;gt;&lt;/b&gt;&lt;br&gt;&lt;/div&gt;&lt;b&gt;Redis Streams&lt;/b&gt;" style="shape=umlLifeline;perimeter=lifelinePerimeter;whiteSpace=wrap;html=1;container=1;dropTarget=0;collapsible=0;recursiveResize=0;outlineConnect=0;portConstraint=eastwest;newEdgeStyle={&quot;edgeStyle&quot;:&quot;elbowEdgeStyle&quot;,&quot;elbow&quot;:&quot;vertical&quot;,&quot;curved&quot;:0,&quot;rounded&quot;:0};align=center;size=41;" parent="Bnk67_aWibF8yN_9XxKm-9" vertex="1">
          <mxGeometry x="1039" y="77" width="160" height="3083" as="geometry" />
        </mxCell>
        <mxCell id="ToUPSf5seXOrwuXV1P-5-10" value="&lt;div&gt;&lt;b&gt;&amp;lt;Queque&amp;gt;&amp;gt;&amp;nbsp;&lt;/b&gt;&lt;br&gt;&lt;/div&gt;&lt;b&gt;MQ 390&lt;/b&gt;" style="shape=umlLifeline;perimeter=lifelinePerimeter;whiteSpace=wrap;html=1;container=1;dropTarget=0;collapsible=0;recursiveResize=0;outlineConnect=0;portConstraint=eastwest;newEdgeStyle={&quot;edgeStyle&quot;:&quot;elbowEdgeStyle&quot;,&quot;elbow&quot;:&quot;vertical&quot;,&quot;curved&quot;:0,&quot;rounded&quot;:0};align=center;" parent="1" vertex="1">
          <mxGeometry x="1758" y="359" width="160" height="3081" as="geometry" />
        </mxCell>
        <mxCell id="ToUPSf5seXOrwuXV1P-5-14" value="" style="html=1;points=[[0,0,0,0,5],[0,1,0,0,-5],[1,0,0,0,5],[1,1,0,0,-5]];perimeter=orthogonalPerimeter;outlineConnect=0;targetShapes=umlLifeline;portConstraint=eastwest;newEdgeStyle={&quot;curved&quot;:0,&quot;rounded&quot;:0};" parent="1" vertex="1">
          <mxGeometry x="155" y="480" width="10" height="2880" as="geometry" />
        </mxCell>
        <mxCell id="ToUPSf5seXOrwuXV1P-5-18" value="" style="html=1;points=[[0,0,0,0,5],[0,1,0,0,-5],[1,0,0,0,5],[1,1,0,0,-5]];perimeter=orthogonalPerimeter;outlineConnect=0;targetShapes=umlLifeline;portConstraint=eastwest;newEdgeStyle={&quot;curved&quot;:0,&quot;rounded&quot;:0};" parent="1" vertex="1">
          <mxGeometry x="395" y="480" width="10" height="2800" as="geometry" />
        </mxCell>
        <mxCell id="ToUPSf5seXOrwuXV1P-5-22" value="" style="html=1;points=[[0,0,0,0,5],[0,1,0,0,-5],[1,0,0,0,5],[1,1,0,0,-5]];perimeter=orthogonalPerimeter;outlineConnect=0;targetShapes=umlLifeline;portConstraint=eastwest;newEdgeStyle={&quot;curved&quot;:0,&quot;rounded&quot;:0};" parent="1" vertex="1">
          <mxGeometry x="872" y="840" width="10" height="2320" as="geometry" />
        </mxCell>
        <mxCell id="UOhI1Jb9BPqGJdpc2Sex-65" value="&lt;div style=&quot;&quot;&gt;&lt;b style=&quot;font-size: 12px;&quot;&gt;Funcionalidad:&lt;/b&gt;&lt;span style=&quot;font-size: 12px;&quot;&gt;&lt;span style=&quot;&quot;&gt;&amp;nbsp;C&lt;/span&gt;&lt;/span&gt;&lt;span style=&quot;background-color: transparent;&quot;&gt;onsultar información del bloqueo de una tarjeta de déibito a través de CENTEL para&amp;nbsp;&lt;/span&gt;&lt;span style=&quot;background-color: transparent; color: light-dark(rgb(0, 0, 0), rgb(255, 255, 255));&quot;&gt;un BIN migrado a PLARD o existente en PAMPA.&lt;/span&gt;&lt;/div&gt;&lt;div style=&quot;font-size: 12px;&quot;&gt;&lt;br&gt;&lt;/div&gt;&lt;div style=&quot;font-size: 12px;&quot;&gt;&lt;b&gt;Alcance&lt;/b&gt;: MVP - La funcioanlidad de consulta de información del bloqueo de una tarjeta de déibito&amp;nbsp;aplica para:&lt;/div&gt;&lt;div style=&quot;font-size: 12px;&quot;&gt;&lt;ul&gt;&lt;li&gt;Tarjetas de débito (TDD) Express o Personalizadas.&lt;/li&gt;&lt;li&gt;Para todo BIN migrado a la plataforma PLARD o existente en PAMPA.&lt;/li&gt;&lt;/ul&gt;&lt;span style=&quot;background-color: initial;&quot;&gt;este alcance se describe como &lt;/span&gt;&lt;b style=&quot;background-color: initial;&quot;&gt;MVP&amp;nbsp;&lt;/b&gt;&lt;span style=&quot;background-color: initial;&quot;&gt;(Minimum Vialable Product)&lt;/span&gt;&lt;br&gt;&lt;/div&gt;&lt;div style=&quot;font-size: 12px;&quot;&gt;&lt;span style=&quot;background-color: initial;&quot;&gt;&lt;br&gt;&lt;/span&gt;&lt;/div&gt;&lt;div style=&quot;font-size: 12px;&quot;&gt;&lt;br&gt;&lt;/div&gt;&lt;div style=&quot;font-size: 12px;&quot;&gt;&lt;div&gt;&lt;b&gt;Reglas de Negocio:&lt;/b&gt;&amp;nbsp;&lt;/div&gt;&lt;div&gt;&lt;ul&gt;&lt;li&gt;NA&lt;/li&gt;&lt;/ul&gt;&lt;div&gt;&lt;b style=&quot;background-color: initial;&quot;&gt;&lt;br&gt;&lt;/b&gt;&lt;/div&gt;&lt;div&gt;&lt;b style=&quot;background-color: initial;&quot;&gt;Precondiciones:&lt;/b&gt;&lt;br&gt;&lt;/div&gt;&lt;/div&gt;&lt;/div&gt;&lt;div style=&quot;&quot;&gt;&lt;ul&gt;&lt;li&gt;El ejecutivo Santander debe contar con acceso a CENTEL.&lt;/li&gt;&lt;/ul&gt;&lt;div&gt;&lt;br&gt;&lt;/div&gt;&lt;/div&gt;&lt;div style=&quot;&quot;&gt;&lt;b style=&quot;background-color: initial;&quot;&gt;Post-Condiciones:&amp;nbsp;&lt;/b&gt;&lt;br&gt;&lt;/div&gt;&lt;div style=&quot;&quot;&gt;&lt;ul&gt;&lt;li&gt;Ejecutivo consulta información sobre el código de bloqueo de una tarjeta de débito.&lt;/li&gt;&lt;/ul&gt;&lt;/div&gt;" style="text;html=1;align=left;verticalAlign=top;whiteSpace=wrap;rounded=0;fontSize=12;strokeColor=default;fillColor=default;" parent="1" vertex="1">
          <mxGeometry x="6" y="-431" width="514" height="370" as="geometry" />
        </mxCell>
        <mxCell id="UOhI1Jb9BPqGJdpc2Sex-66" value="Funcionalidad" style="rounded=0;whiteSpace=wrap;html=1;fontSize=14;fontStyle=1;fillColor=#bac8d3;strokeColor=#23445d;" parent="1" vertex="1">
          <mxGeometry x="6" y="-471" width="514" height="40" as="geometry" />
        </mxCell>
        <mxCell id="UOhI1Jb9BPqGJdpc2Sex-68" value="Escenarios" style="rounded=0;whiteSpace=wrap;html=1;fontSize=15;fontStyle=1;align=center;fillColor=#bac8d3;strokeColor=#23445d;" parent="1" vertex="1">
          <mxGeometry x="7" y="-52" width="513" height="42" as="geometry" />
        </mxCell>
        <mxCell id="UOhI1Jb9BPqGJdpc2Sex-69" value="&lt;div style=&quot;&quot;&gt;&lt;b style=&quot;font-size: 13px;&quot;&gt;Escenario 1: &lt;/b&gt;&lt;font size=&quot;1&quot; style=&quot;&quot;&gt;&lt;b style=&quot;font-size: 13px;&quot;&gt;Consutla de información del blqueo de una tarjeta de débito para un BIN migrado a Plard.&lt;/b&gt;&lt;/font&gt;&lt;/div&gt;&lt;div style=&quot;font-size: 13px;&quot;&gt;&lt;br&gt;&lt;/div&gt;&lt;div style=&quot;&quot;&gt;&lt;font style=&quot;font-size: 12px;&quot;&gt;Realizar la consulta de información de información del blqoueo de una tarjeta de débito desde el CENTEL&amp;nbsp;&lt;/font&gt;&lt;span style=&quot;background-color: transparent; color: light-dark(rgb(0, 0, 0), rgb(255, 255, 255));&quot;&gt;para un BIN migrado a Plard.&amp;nbsp;&lt;/span&gt;&lt;/div&gt;" style="text;html=1;strokeColor=default;fillColor=default;align=left;verticalAlign=top;whiteSpace=wrap;rounded=0;fontSize=12;strokeWidth=1;" parent="1" vertex="1">
          <mxGeometry x="7" y="-10" width="513" height="86" as="geometry" />
        </mxCell>
        <mxCell id="UOhI1Jb9BPqGJdpc2Sex-70" value="&lt;div style=&quot;&quot;&gt;&lt;div&gt;&lt;b style=&quot;font-size: 13px;&quot;&gt;Escenario 2:&amp;nbsp;&lt;/b&gt;&lt;b style=&quot;font-size: 13px;&quot;&gt;Consutla de información del blqueo de una tarjeta de débito&lt;/b&gt;&lt;font size=&quot;1&quot;&gt;&lt;b style=&quot;font-size: 13px;&quot;&gt;&amp;nbsp;para un BIN no migrado a Plard existente en PAMPA.&amp;nbsp;&lt;/b&gt;&lt;/font&gt;&lt;/div&gt;&lt;div style=&quot;font-size: 13px;&quot;&gt;&lt;b&gt;&lt;font color=&quot;#b5739d&quot;&gt;&lt;br&gt;&lt;/font&gt;&lt;/b&gt;&lt;/div&gt;&lt;div&gt;Realizar la consulta de información de información del blqoueo de una tarjeta de débito desde el CENTEL&amp;nbsp;&lt;span style=&quot;color: light-dark(rgb(0, 0, 0), rgb(255, 255, 255)); background-color: transparent;&quot;&gt;para un BIN no migrado a Plard existente en PAMPA.&amp;nbsp;&lt;/span&gt;&lt;br&gt;&lt;/div&gt;&lt;/div&gt;" style="text;html=1;strokeColor=#000000;fillColor=default;align=left;verticalAlign=top;whiteSpace=wrap;rounded=0;fontSize=12;strokeWidth=1;" parent="1" vertex="1">
          <mxGeometry x="7" y="77" width="513" height="89" as="geometry" />
        </mxCell>
        <mxCell id="jyimtzbjUoySw18MVkSd-12" value="" style="html=1;points=[[0,0,0,0,5],[0,1,0,0,-5],[1,0,0,0,5],[1,1,0,0,-5]];perimeter=orthogonalPerimeter;outlineConnect=0;targetShapes=umlLifeline;portConstraint=eastwest;newEdgeStyle={&quot;curved&quot;:0,&quot;rounded&quot;:0};" parent="1" vertex="1">
          <mxGeometry x="1114" y="1000" width="10" height="920" as="geometry" />
        </mxCell>
        <mxCell id="CHYPtYIF56kiTpotCNIW-3" value="" style="endArrow=classic;html=1;rounded=0;" parent="1" edge="1">
          <mxGeometry width="50" height="50" relative="1" as="geometry">
            <mxPoint x="164" y="681" as="sourcePoint" />
            <mxPoint x="397.5" y="681" as="targetPoint" />
          </mxGeometry>
        </mxCell>
        <mxCell id="CHYPtYIF56kiTpotCNIW-4" value="&lt;span style=&quot;font-size: 11px; text-wrap: nowrap; background-color: rgb(255, 255, 255);&quot;&gt;&lt;b&gt;Ejecutivo Santander&lt;/b&gt;&lt;/span&gt;&lt;div&gt;&lt;span style=&quot;font-size: 11px; text-wrap: nowrap; background-color: rgb(255, 255, 255);&quot;&gt;Da click en botón Buscar&lt;/span&gt;&lt;/div&gt;" style="text;html=1;align=center;verticalAlign=middle;whiteSpace=wrap;rounded=0;" parent="1" vertex="1">
          <mxGeometry x="198" y="651" width="169" height="27" as="geometry" />
        </mxCell>
        <mxCell id="EzSESSrQrR8SRDhSGEhN-8" value="" style="html=1;points=[[0,0,0,0,5],[0,1,0,0,-5],[1,0,0,0,5],[1,1,0,0,-5]];perimeter=orthogonalPerimeter;outlineConnect=0;targetShapes=umlLifeline;portConstraint=eastwest;newEdgeStyle={&quot;curved&quot;:0,&quot;rounded&quot;:0};" parent="1" vertex="1">
          <mxGeometry x="632" y="760" width="10" height="2440" as="geometry" />
        </mxCell>
        <mxCell id="EzSESSrQrR8SRDhSGEhN-11" value="&lt;div&gt;&lt;b&gt;&amp;lt;CaaS Integration Layer&amp;gt;&amp;gt;&lt;/b&gt;&lt;br&gt;&lt;/div&gt;&lt;div&gt;&lt;b&gt;device-parameters-inquiry&lt;/b&gt;&lt;br&gt;&lt;/div&gt;" style="shape=umlLifeline;perimeter=lifelinePerimeter;whiteSpace=wrap;html=1;container=1;dropTarget=0;collapsible=0;recursiveResize=0;outlineConnect=0;portConstraint=eastwest;newEdgeStyle={&quot;edgeStyle&quot;:&quot;elbowEdgeStyle&quot;,&quot;elbow&quot;:&quot;vertical&quot;,&quot;curved&quot;:0,&quot;rounded&quot;:0};align=center;" parent="1" vertex="1">
          <mxGeometry x="1277" y="360" width="160" height="3080" as="geometry" />
        </mxCell>
        <mxCell id="bbofyv_q_nCxZHHzBAdj-60" value="" style="html=1;points=[[0,0,0,0,5],[0,1,0,0,-5],[1,0,0,0,5],[1,1,0,0,-5]];perimeter=orthogonalPerimeter;outlineConnect=0;targetShapes=umlLifeline;portConstraint=eastwest;newEdgeStyle={&quot;curved&quot;:0,&quot;rounded&quot;:0};" parent="1" vertex="1">
          <mxGeometry x="1352" y="1080" width="10" height="1000" as="geometry" />
        </mxCell>
        <mxCell id="vtx71rYAX6kZKPzqjoek-2" style="edgeStyle=orthogonalEdgeStyle;rounded=0;orthogonalLoop=1;jettySize=auto;html=1;curved=0;" parent="1" edge="1">
          <mxGeometry relative="1" as="geometry">
            <mxPoint x="166" y="480" as="sourcePoint" />
            <mxPoint x="166" y="515" as="targetPoint" />
            <Array as="points">
              <mxPoint x="222" y="480" />
              <mxPoint x="222" y="515" />
            </Array>
          </mxGeometry>
        </mxCell>
        <mxCell id="vtx71rYAX6kZKPzqjoek-3" value="&lt;span style=&quot;font-size: 11px; text-wrap: nowrap; background-color: rgb(255, 255, 255);&quot;&gt;&lt;b&gt;Ejecutivo Santander&lt;/b&gt;&lt;/span&gt;&lt;div&gt;&lt;span style=&quot;font-size: 11px; text-wrap: nowrap; background-color: rgb(255, 255, 255);&quot;&gt;Accede Centel&lt;/span&gt;&lt;/div&gt;" style="text;html=1;align=center;verticalAlign=middle;whiteSpace=wrap;rounded=0;" parent="1" vertex="1">
          <mxGeometry x="208" y="485" width="169" height="27" as="geometry" />
        </mxCell>
        <mxCell id="vtx71rYAX6kZKPzqjoek-4" style="edgeStyle=orthogonalEdgeStyle;rounded=0;orthogonalLoop=1;jettySize=auto;html=1;curved=0;" parent="1" edge="1">
          <mxGeometry relative="1" as="geometry">
            <mxPoint x="166" y="560" as="sourcePoint" />
            <mxPoint x="166" y="595" as="targetPoint" />
            <Array as="points">
              <mxPoint x="222" y="560" />
              <mxPoint x="222" y="595" />
            </Array>
          </mxGeometry>
        </mxCell>
        <mxCell id="vtx71rYAX6kZKPzqjoek-5" value="&lt;span style=&quot;font-size: 11px; text-wrap: nowrap; background-color: rgb(255, 255, 255);&quot;&gt;&lt;b&gt;Ejecutivo Santander&lt;/b&gt;&lt;/span&gt;&lt;div&gt;&lt;span style=&quot;font-size: 11px; text-wrap: nowrap; background-color: rgb(255, 255, 255);&quot;&gt;Ingresa a la pantalla de&amp;nbsp;&lt;/span&gt;&lt;/div&gt;&lt;div&gt;&lt;span style=&quot;font-size: 11px; text-wrap: nowrap; background-color: rgb(255, 255, 255);&quot;&gt;consulta de bloqueos e informa el&amp;nbsp;&lt;/span&gt;&lt;/div&gt;&lt;div&gt;&lt;span style=&quot;font-size: 11px; text-wrap: nowrap; background-color: rgb(255, 255, 255);&quot;&gt;código de bloqueo a consultar&lt;/span&gt;&lt;/div&gt;" style="text;html=1;align=center;verticalAlign=middle;whiteSpace=wrap;rounded=0;" parent="1" vertex="1">
          <mxGeometry x="236" y="565" width="145" height="27" as="geometry" />
        </mxCell>
        <mxCell id="vtx71rYAX6kZKPzqjoek-6" value="" style="endArrow=classic;html=1;rounded=0;" parent="1" edge="1">
          <mxGeometry width="50" height="50" relative="1" as="geometry">
            <mxPoint x="404" y="761" as="sourcePoint" />
            <mxPoint x="637.5" y="761" as="targetPoint" />
          </mxGeometry>
        </mxCell>
        <mxCell id="vtx71rYAX6kZKPzqjoek-8" value="&lt;div style=&quot;text-align: center;&quot;&gt;&lt;span style=&quot;background-color: initial;&quot;&gt;Canal&lt;/span&gt;&lt;/div&gt;&lt;div style=&quot;text-align: center;&quot;&gt;&lt;b&gt;CENTEL&lt;/b&gt;&lt;/div&gt;&lt;div style=&quot;text-align: center;&quot;&gt;Solicita consulta de información del bloqueo de una tarjeta&lt;/div&gt;&lt;div style=&quot;text-align: center;&quot;&gt;[MP3C]&lt;/div&gt;" style="text;whiteSpace=wrap;html=1;" parent="1" vertex="1">
          <mxGeometry x="420" y="681" width="200" height="43" as="geometry" />
        </mxCell>
        <mxCell id="vtx71rYAX6kZKPzqjoek-9" value="" style="endArrow=classic;html=1;rounded=0;" parent="1" edge="1">
          <mxGeometry width="50" height="50" relative="1" as="geometry">
            <mxPoint x="642" y="841" as="sourcePoint" />
            <mxPoint x="875.5" y="841" as="targetPoint" />
          </mxGeometry>
        </mxCell>
        <mxCell id="vtx71rYAX6kZKPzqjoek-10" value="&lt;div style=&quot;text-align: center;&quot;&gt;&lt;div&gt;Queque&amp;nbsp;&lt;br&gt;&lt;/div&gt;&lt;b&gt;MQ Canal&lt;/b&gt;&lt;br&gt;&lt;/div&gt;&lt;div style=&quot;text-align: center;&quot;&gt;&lt;div&gt;Solicita&amp;nbsp;&lt;span style=&quot;background-color: transparent; color: light-dark(rgb(0, 0, 0), rgb(255, 255, 255));&quot;&gt;consulta de información del bloqueo de una tarjeta&lt;/span&gt;&lt;/div&gt;&lt;div&gt;[MP3C]&lt;/div&gt;&lt;/div&gt;" style="text;whiteSpace=wrap;html=1;" parent="1" vertex="1">
          <mxGeometry x="668" y="761" width="172" height="43" as="geometry" />
        </mxCell>
        <mxCell id="vtx71rYAX6kZKPzqjoek-11" value="" style="endArrow=classic;html=1;rounded=0;" parent="1" edge="1">
          <mxGeometry width="50" height="50" relative="1" as="geometry">
            <mxPoint x="882" y="1000" as="sourcePoint" />
            <mxPoint x="1115.5" y="1000" as="targetPoint" />
          </mxGeometry>
        </mxCell>
        <mxCell id="vtx71rYAX6kZKPzqjoek-12" value="&lt;div style=&quot;text-align: center;&quot;&gt;&lt;div&gt;Componente&lt;br&gt;&lt;/div&gt;&lt;div&gt;&lt;b style=&quot;background-color: transparent; color: light-dark(rgb(0, 0, 0), rgb(255, 255, 255));&quot;&gt;Launcher PLARD&lt;/b&gt;&lt;/div&gt;&lt;div&gt;&lt;span style=&quot;background-color: transparent; color: light-dark(rgb(0, 0, 0), rgb(255, 255, 255));&quot;&gt;Deposita solicitud de&amp;nbsp;&lt;/span&gt;consulta de información del bloqueo de una tarjeta&lt;span style=&quot;background-color: transparent; color: light-dark(rgb(0, 0, 0), rgb(255, 255, 255));&quot;&gt;&amp;nbsp;en Redis Streams&lt;/span&gt;&lt;br&gt;&lt;/div&gt;&lt;/div&gt;&lt;div style=&quot;text-align: center;&quot;&gt;[MP3C]&lt;/div&gt;" style="text;whiteSpace=wrap;html=1;" parent="1" vertex="1">
          <mxGeometry x="910" y="905" width="170" height="43" as="geometry" />
        </mxCell>
        <mxCell id="vtx71rYAX6kZKPzqjoek-13" value="" style="endArrow=classic;html=1;rounded=0;" parent="1" edge="1">
          <mxGeometry width="50" height="50" relative="1" as="geometry">
            <mxPoint x="1121" y="1079" as="sourcePoint" />
            <mxPoint x="1354.5" y="1079" as="targetPoint" />
          </mxGeometry>
        </mxCell>
        <mxCell id="vtx71rYAX6kZKPzqjoek-14" value="&lt;div style=&quot;text-align: center;&quot;&gt;&lt;div&gt;&lt;div&gt;Microservicio&lt;br&gt;&lt;/div&gt;&lt;div&gt;&lt;b&gt;device-parameters-inquiry&lt;/b&gt;&lt;br&gt;&lt;/div&gt;&lt;/div&gt;&lt;div&gt;&lt;span style=&quot;background-color: transparent; color: light-dark(rgb(0, 0, 0), rgb(255, 255, 255));&quot;&gt;Toma solicitud&amp;nbsp;&lt;/span&gt;&lt;span style=&quot;background-color: transparent; color: light-dark(rgb(0, 0, 0), rgb(255, 255, 255));&quot;&gt;de&amp;nbsp;&lt;/span&gt;consulta de información del bloqueo de una tarjeta&lt;span style=&quot;background-color: transparent; color: light-dark(rgb(0, 0, 0), rgb(255, 255, 255));&quot;&gt;&amp;nbsp;de Redis Streams&lt;/span&gt;&lt;/div&gt;&lt;div&gt;[MP3C]&lt;/div&gt;&lt;/div&gt;" style="text;whiteSpace=wrap;html=1;" parent="1" vertex="1">
          <mxGeometry x="1153" y="985" width="170" height="43" as="geometry" />
        </mxCell>
        <mxCell id="vtx71rYAX6kZKPzqjoek-42" value="" style="endArrow=classic;html=1;rounded=0;" parent="1" target="vtx71rYAX6kZKPzqjoek-47" edge="1">
          <mxGeometry width="50" height="50" relative="1" as="geometry">
            <mxPoint x="1362" y="2040" as="sourcePoint" />
            <mxPoint x="1591" y="2041" as="targetPoint" />
          </mxGeometry>
        </mxCell>
        <mxCell id="vtx71rYAX6kZKPzqjoek-43" value="&lt;div style=&quot;&quot;&gt;&lt;div style=&quot;text-align: center;&quot;&gt;&lt;div&gt;&lt;div&gt;&lt;span style=&quot;background-color: initial;&quot;&gt;&lt;font&gt;Microservicio&amp;nbsp;&lt;/font&gt;&lt;/span&gt;&lt;/div&gt;&lt;div&gt;&lt;font&gt;&lt;b&gt;device-parameters-inquiry&lt;/b&gt;&lt;br&gt;&lt;/font&gt;&lt;/div&gt;&lt;/div&gt;&lt;div&gt;&lt;font&gt;Publica Trama de Bitacora de&amp;nbsp;&lt;span style=&quot;background-color: transparent; color: light-dark(rgb(0, 0, 0), rgb(255, 255, 255));&quot;&gt;consulta de información del bloqueo de una tarjeta&lt;/span&gt;&lt;/font&gt;&lt;/div&gt;&lt;/div&gt;&lt;/div&gt;" style="text;html=1;align=center;verticalAlign=middle;whiteSpace=wrap;rounded=0;" parent="1" vertex="1">
          <mxGeometry x="1357" y="1994" width="244" height="30" as="geometry" />
        </mxCell>
        <mxCell id="vtx71rYAX6kZKPzqjoek-44" style="edgeStyle=orthogonalEdgeStyle;rounded=0;orthogonalLoop=1;jettySize=auto;html=1;curved=0;" parent="1" edge="1">
          <mxGeometry relative="1" as="geometry">
            <mxPoint x="1362" y="1880" as="sourcePoint" />
            <mxPoint x="1362" y="1915" as="targetPoint" />
            <Array as="points">
              <mxPoint x="1418" y="1880" />
              <mxPoint x="1418" y="1915" />
            </Array>
          </mxGeometry>
        </mxCell>
        <mxCell id="vtx71rYAX6kZKPzqjoek-45" value="&lt;div style=&quot;text-align: center;&quot;&gt;&lt;div&gt;&lt;span style=&quot;background-color: initial;&quot;&gt;Microservicio&amp;nbsp;&lt;/span&gt;&lt;/div&gt;&lt;div&gt;&lt;b&gt;device-parameters-inquiry&lt;/b&gt;&lt;br&gt;&lt;/div&gt;&lt;div&gt;Genera Trama de Bitácora de consulta de información del bloqueo de una tarjeta&lt;span style=&quot;background-color: transparent; color: light-dark(rgb(0, 0, 0), rgb(255, 255, 255));&quot;&gt;.&lt;/span&gt;&lt;/div&gt;&lt;/div&gt;" style="text;whiteSpace=wrap;html=1;" parent="1" vertex="1">
          <mxGeometry x="1420" y="1867" width="160" height="26" as="geometry" />
        </mxCell>
        <mxCell id="vtx71rYAX6kZKPzqjoek-46" value="" style="endArrow=open;html=1;rounded=0;dashed=1;endFill=0;" parent="1" edge="1">
          <mxGeometry width="50" height="50" relative="1" as="geometry">
            <mxPoint x="1596" y="2080" as="sourcePoint" />
            <mxPoint x="1361.071428571428" y="2080" as="targetPoint" />
          </mxGeometry>
        </mxCell>
        <mxCell id="vtx71rYAX6kZKPzqjoek-47" value="" style="html=1;points=[[0,0,0,0,5],[0,1,0,0,-5],[1,0,0,0,5],[1,1,0,0,-5]];perimeter=orthogonalPerimeter;outlineConnect=0;targetShapes=umlLifeline;portConstraint=eastwest;newEdgeStyle={&quot;curved&quot;:0,&quot;rounded&quot;:0};" parent="1" vertex="1">
          <mxGeometry x="1591" y="2040" width="10" height="41" as="geometry" />
        </mxCell>
        <mxCell id="vtx71rYAX6kZKPzqjoek-51" style="edgeStyle=orthogonalEdgeStyle;rounded=0;orthogonalLoop=1;jettySize=auto;html=1;curved=0;" parent="1" edge="1">
          <mxGeometry relative="1" as="geometry">
            <mxPoint x="1362" y="1720" as="sourcePoint" />
            <mxPoint x="1362" y="1755" as="targetPoint" />
            <Array as="points">
              <mxPoint x="1418" y="1720" />
              <mxPoint x="1418" y="1755" />
            </Array>
          </mxGeometry>
        </mxCell>
        <mxCell id="vtx71rYAX6kZKPzqjoek-52" value="&lt;div style=&quot;text-align: center;&quot;&gt;&lt;div&gt;&lt;span style=&quot;background-color: initial;&quot;&gt;Microservicio&amp;nbsp;&lt;/span&gt;&lt;/div&gt;&lt;div&gt;&lt;b&gt;device-parameters-inquiry&lt;/b&gt;&lt;br&gt;&lt;/div&gt;&lt;div&gt;Genera response de consulta de información del bloqueo de una tarjeta con&lt;span style=&quot;background-color: transparent; color: light-dark(rgb(0, 0, 0), rgb(255, 255, 255));&quot;&gt;&amp;nbsp;formato&amp;nbsp;&lt;/span&gt;&lt;/div&gt;&lt;div&gt;&lt;span style=&quot;background-color: transparent; color: light-dark(rgb(0, 0, 0), rgb(255, 255, 255));&quot;&gt;[&lt;/span&gt;MP3C&lt;span style=&quot;background-color: transparent; color: light-dark(rgb(0, 0, 0), rgb(255, 255, 255));&quot;&gt;]&lt;/span&gt;&lt;/div&gt;&lt;/div&gt;" style="text;whiteSpace=wrap;html=1;" parent="1" vertex="1">
          <mxGeometry x="1417" y="1696" width="179" height="23" as="geometry" />
        </mxCell>
        <mxCell id="vtx71rYAX6kZKPzqjoek-55" value="" style="endArrow=open;html=1;rounded=0;dashed=1;endFill=0;" parent="1" edge="1">
          <mxGeometry width="50" height="50" relative="1" as="geometry">
            <mxPoint x="1350" y="1840" as="sourcePoint" />
            <mxPoint x="1119.9999999999995" y="1840" as="targetPoint" />
          </mxGeometry>
        </mxCell>
        <mxCell id="vtx71rYAX6kZKPzqjoek-56" value="&lt;div&gt;&lt;span style=&quot;background-color: initial;&quot;&gt;Microservicio&amp;nbsp;&lt;/span&gt;&lt;/div&gt;&lt;div style=&quot;&quot;&gt;&lt;b&gt;device-parameters-inquiry&lt;/b&gt;&lt;br&gt;&lt;/div&gt;&lt;div style=&quot;&quot;&gt;Deposita response de consulta de información del bloqueo de una tarjeta&lt;span style=&quot;background-color: transparent; color: light-dark(rgb(0, 0, 0), rgb(255, 255, 255));&quot;&gt;&amp;nbsp;en Redis Streams&lt;/span&gt;&lt;/div&gt;&lt;div&gt;[MP3C]&lt;/div&gt;" style="text;html=1;align=center;verticalAlign=middle;whiteSpace=wrap;rounded=0;" parent="1" vertex="1">
          <mxGeometry x="1130" y="1780" width="210" height="30" as="geometry" />
        </mxCell>
        <mxCell id="vtx71rYAX6kZKPzqjoek-57" value="" style="endArrow=open;html=1;rounded=0;dashed=1;endFill=0;" parent="1" edge="1">
          <mxGeometry width="50" height="50" relative="1" as="geometry">
            <mxPoint x="1110.0000000000005" y="1919" as="sourcePoint" />
            <mxPoint x="880" y="1919" as="targetPoint" />
          </mxGeometry>
        </mxCell>
        <mxCell id="vtx71rYAX6kZKPzqjoek-58" value="&lt;div style=&quot;text-align: center;&quot;&gt;&lt;div&gt;&lt;div&gt;Componente&lt;/div&gt;&lt;div&gt;&lt;b&gt;Launcher PLARD&lt;/b&gt;&lt;br&gt;&lt;/div&gt;&lt;/div&gt;&lt;div&gt;Toma response&amp;nbsp;&lt;span style=&quot;background-color: transparent; color: light-dark(rgb(0, 0, 0), rgb(255, 255, 255));&quot;&gt;de&amp;nbsp;&lt;/span&gt;consulta de información del bloqueo de una tarjeta&lt;span style=&quot;background-color: transparent; color: light-dark(rgb(0, 0, 0), rgb(255, 255, 255));&quot;&gt;&amp;nbsp;de Redis Streams&lt;/span&gt;&lt;/div&gt;&lt;div&gt;[MP3C]&lt;/div&gt;&lt;/div&gt;" style="text;whiteSpace=wrap;html=1;" parent="1" vertex="1">
          <mxGeometry x="902" y="1826" width="181" height="26" as="geometry" />
        </mxCell>
        <mxCell id="vtx71rYAX6kZKPzqjoek-60" value="" style="endArrow=open;html=1;rounded=0;dashed=1;endFill=0;" parent="1" edge="1">
          <mxGeometry width="50" height="50" relative="1" as="geometry">
            <mxPoint x="871" y="2000" as="sourcePoint" />
            <mxPoint x="640.9999999999995" y="2000" as="targetPoint" />
          </mxGeometry>
        </mxCell>
        <mxCell id="vtx71rYAX6kZKPzqjoek-61" value="" style="endArrow=open;html=1;rounded=0;dashed=1;endFill=0;" parent="1" edge="1">
          <mxGeometry width="50" height="50" relative="1" as="geometry">
            <mxPoint x="633" y="2080" as="sourcePoint" />
            <mxPoint x="402.99999999999955" y="2080" as="targetPoint" />
          </mxGeometry>
        </mxCell>
        <mxCell id="vtx71rYAX6kZKPzqjoek-62" value="&lt;div style=&quot;text-align: center;&quot;&gt;&lt;div&gt;Queque&amp;nbsp;&lt;br&gt;&lt;/div&gt;&lt;/div&gt;&lt;div style=&quot;text-align: center;&quot;&gt;&lt;b&gt;MQ Canal&lt;/b&gt;&lt;br&gt;&lt;/div&gt;&lt;div style=&quot;text-align: center;&quot;&gt;Recibe&amp;nbsp;&lt;span style=&quot;background-color: transparent; color: light-dark(rgb(0, 0, 0), rgb(255, 255, 255));&quot;&gt;response de&amp;nbsp;&lt;/span&gt;&lt;span style=&quot;background-color: transparent; color: light-dark(rgb(0, 0, 0), rgb(255, 255, 255));&quot;&gt;consulta de información del bloqueo de una tarjeta&lt;/span&gt;&lt;/div&gt;&lt;div style=&quot;text-align: center;&quot;&gt;[MP3C]&lt;/div&gt;" style="text;whiteSpace=wrap;html=1;" parent="1" vertex="1">
          <mxGeometry x="650" y="1919" width="210" height="26" as="geometry" />
        </mxCell>
        <mxCell id="vtx71rYAX6kZKPzqjoek-63" value="&lt;div style=&quot;text-align: center;&quot;&gt;&lt;div&gt;&lt;div&gt;&lt;span style=&quot;background-color: initial;&quot;&gt;Canal&lt;/span&gt;&lt;/div&gt;&lt;div&gt;&lt;b style=&quot;background-color: transparent; color: light-dark(rgb(0, 0, 0), rgb(255, 255, 255));&quot;&gt;CENTEL&lt;/b&gt;&lt;/div&gt;&lt;/div&gt;&lt;div&gt;&lt;span style=&quot;background-color: transparent; color: light-dark(rgb(0, 0, 0), rgb(255, 255, 255));&quot;&gt;Recibe&amp;nbsp;&lt;/span&gt;&lt;span style=&quot;background-color: transparent; color: light-dark(rgb(0, 0, 0), rgb(255, 255, 255));&quot;&gt;response de&amp;nbsp;&lt;/span&gt;&lt;span style=&quot;background-color: transparent; color: light-dark(rgb(0, 0, 0), rgb(255, 255, 255));&quot;&gt;consulta de información del bloqueo de una tarjeta&lt;/span&gt;&lt;/div&gt;&lt;div&gt;[MP3C]&lt;/div&gt;&lt;/div&gt;" style="text;whiteSpace=wrap;html=1;" parent="1" vertex="1">
          <mxGeometry x="410" y="1999" width="220" height="26" as="geometry" />
        </mxCell>
        <mxCell id="vtx71rYAX6kZKPzqjoek-64" value="&lt;div style=&quot;text-align: center;&quot;&gt;&lt;div&gt;Response 200&lt;/div&gt;&lt;/div&gt;" style="text;whiteSpace=wrap;html=1;" parent="1" vertex="1">
          <mxGeometry x="1435" y="2058" width="82" height="23" as="geometry" />
        </mxCell>
        <mxCell id="vtx71rYAX6kZKPzqjoek-66" value="" style="endArrow=open;html=1;rounded=0;dashed=1;endFill=0;" parent="1" edge="1">
          <mxGeometry width="50" height="50" relative="1" as="geometry">
            <mxPoint x="393" y="2160" as="sourcePoint" />
            <mxPoint x="162.99999999999955" y="2160" as="targetPoint" />
          </mxGeometry>
        </mxCell>
        <mxCell id="vtx71rYAX6kZKPzqjoek-67" value="&lt;div style=&quot;&quot;&gt;&lt;div&gt;&lt;div&gt;&lt;span style=&quot;background-color: initial;&quot;&gt;Canal&lt;/span&gt;&lt;/div&gt;&lt;div&gt;&lt;b style=&quot;color: light-dark(rgb(0, 0, 0), rgb(255, 255, 255)); background-color: transparent;&quot;&gt;CENTEL&lt;/b&gt;&lt;br&gt;&lt;/div&gt;&lt;/div&gt;&lt;div&gt;&lt;span style=&quot;background-color: transparent; color: light-dark(rgb(0, 0, 0), rgb(255, 255, 255));&quot;&gt;Muestra en pantalla&amp;nbsp;&lt;/span&gt;consulta de información del bloqueo de una tarjeta&lt;span style=&quot;background-color: transparent; color: light-dark(rgb(0, 0, 0), rgb(255, 255, 255));&quot;&gt;&amp;nbsp;&lt;/span&gt;&lt;/div&gt;&lt;div&gt;[MP3C]&lt;/div&gt;&lt;/div&gt;" style="text;whiteSpace=wrap;html=1;align=center;" parent="1" vertex="1">
          <mxGeometry x="166" y="2080" width="230" height="26" as="geometry" />
        </mxCell>
        <mxCell id="vtx71rYAX6kZKPzqjoek-68" style="edgeStyle=orthogonalEdgeStyle;rounded=0;orthogonalLoop=1;jettySize=auto;html=1;curved=0;" parent="1" edge="1">
          <mxGeometry relative="1" as="geometry">
            <mxPoint x="165" y="2238" as="sourcePoint" />
            <mxPoint x="165" y="2273" as="targetPoint" />
            <Array as="points">
              <mxPoint x="221" y="2238" />
              <mxPoint x="221" y="2273" />
            </Array>
          </mxGeometry>
        </mxCell>
        <mxCell id="vtx71rYAX6kZKPzqjoek-69" value="&lt;span style=&quot;text-wrap: nowrap; background-color: rgb(255, 255, 255);&quot;&gt;&lt;b style=&quot;&quot;&gt;&lt;font&gt;Ejecutivo Santander&lt;/font&gt;&lt;/b&gt;&lt;/span&gt;&lt;div&gt;&lt;font&gt;&lt;span style=&quot;text-wrap: nowrap; background-color: rgb(255, 255, 255);&quot;&gt;Visualiza&amp;nbsp;&lt;/span&gt;&lt;span style=&quot;background-color: transparent; color: light-dark(rgb(0, 0, 0), rgb(255, 255, 255));&quot;&gt;consulta de información del bloqueo de una tarjeta&lt;/span&gt;&lt;/font&gt;&lt;/div&gt;" style="text;html=1;align=center;verticalAlign=middle;whiteSpace=wrap;rounded=0;" parent="1" vertex="1">
          <mxGeometry x="218" y="2246" width="169" height="27" as="geometry" />
        </mxCell>
        <mxCell id="vtx71rYAX6kZKPzqjoek-152" value="alt" style="shape=umlFrame;whiteSpace=wrap;html=1;pointerEvents=0;recursiveResize=0;container=1;collapsible=0;width=80;height=15;" parent="1" vertex="1">
          <mxGeometry x="20" y="880" width="2540" height="2520" as="geometry" />
        </mxCell>
        <mxCell id="vtx71rYAX6kZKPzqjoek-153" value="&lt;font style=&quot;font-size: 12px;&quot;&gt;[BIN == BIN Plard]&lt;/font&gt;" style="text;html=1;rotation=0;" parent="vtx71rYAX6kZKPzqjoek-152" vertex="1">
          <mxGeometry width="140" height="20" relative="1" as="geometry">
            <mxPoint x="5" y="50" as="offset" />
          </mxGeometry>
        </mxCell>
        <mxCell id="vtx71rYAX6kZKPzqjoek-154" value="" style="line;strokeWidth=2;dashed=1;labelPosition=center;verticalLabelPosition=bottom;align=left;verticalAlign=top;spacingLeft=20;spacingTop=15;html=1;whiteSpace=wrap;" parent="1" vertex="1">
          <mxGeometry x="20" y="2315" width="2540" height="10" as="geometry" />
        </mxCell>
        <mxCell id="vtx71rYAX6kZKPzqjoek-155" value="[BIN != BIN Plard]" style="text;html=1;rotation=0;fontColor=#000000;" parent="1" vertex="1">
          <mxGeometry x="40" y="2338" width="50" height="20" as="geometry" />
        </mxCell>
        <mxCell id="vtx71rYAX6kZKPzqjoek-156" value="" style="endArrow=classic;html=1;rounded=0;" parent="1" edge="1">
          <mxGeometry width="50" height="50" relative="1" as="geometry">
            <mxPoint x="882" y="2438" as="sourcePoint" />
            <mxPoint x="1837.5" y="2438" as="targetPoint" />
          </mxGeometry>
        </mxCell>
        <mxCell id="vtx71rYAX6kZKPzqjoek-157" value="&lt;div style=&quot;text-align: center;&quot;&gt;&lt;div&gt;Componente&lt;br&gt;&lt;/div&gt;&lt;div&gt;&lt;b style=&quot;background-color: transparent; color: light-dark(rgb(0, 0, 0), rgb(255, 255, 255));&quot;&gt;Launcher PLARD&lt;/b&gt;&lt;/div&gt;&lt;div&gt;&lt;span style=&quot;background-color: transparent; color: light-dark(rgb(0, 0, 0), rgb(255, 255, 255));&quot;&gt;Realiza solicitud&lt;/span&gt;&lt;span style=&quot;background-color: transparent; color: light-dark(rgb(0, 0, 0), rgb(255, 255, 255));&quot;&gt;&amp;nbsp;&lt;/span&gt;&lt;span style=&quot;background-color: transparent; color: light-dark(rgb(0, 0, 0), rgb(255, 255, 255));&quot;&gt;de&amp;nbsp;&lt;/span&gt;&lt;span style=&quot;background-color: transparent; color: light-dark(rgb(0, 0, 0), rgb(255, 255, 255));&quot;&gt;consulta de información del bloqueo de una tarjeta&lt;/span&gt;&lt;/div&gt;&lt;div&gt;[MP3C]&lt;/div&gt;&lt;/div&gt;" style="text;whiteSpace=wrap;html=1;" parent="1" vertex="1">
          <mxGeometry x="890" y="2357" width="220" height="43" as="geometry" />
        </mxCell>
        <mxCell id="vtx71rYAX6kZKPzqjoek-160" value="" style="html=1;points=[[0,0,0,0,5],[0,1,0,0,-5],[1,0,0,0,5],[1,1,0,0,-5]];perimeter=orthogonalPerimeter;outlineConnect=0;targetShapes=umlLifeline;portConstraint=eastwest;newEdgeStyle={&quot;curved&quot;:0,&quot;rounded&quot;:0};" parent="1" vertex="1">
          <mxGeometry x="2314" y="2518" width="10" height="122" as="geometry" />
        </mxCell>
        <mxCell id="vtx71rYAX6kZKPzqjoek-161" value="" style="endArrow=classic;html=1;rounded=0;" parent="1" target="vtx71rYAX6kZKPzqjoek-160" edge="1">
          <mxGeometry width="50" height="50" relative="1" as="geometry">
            <mxPoint x="1844" y="2519" as="sourcePoint" />
            <mxPoint x="2076.5" y="2519" as="targetPoint" />
          </mxGeometry>
        </mxCell>
        <mxCell id="vtx71rYAX6kZKPzqjoek-162" value="" style="endArrow=open;html=1;rounded=0;dashed=1;endFill=0;" parent="1" edge="1">
          <mxGeometry width="50" height="50" relative="1" as="geometry">
            <mxPoint x="2314" y="2639" as="sourcePoint" />
            <mxPoint x="1842" y="2639" as="targetPoint" />
          </mxGeometry>
        </mxCell>
        <mxCell id="vtx71rYAX6kZKPzqjoek-163" value="&lt;div&gt;&lt;div&gt;&lt;span style=&quot;background-color: transparent;&quot;&gt;Consulta de bloqueos&lt;/span&gt;&lt;/div&gt;&lt;div&gt;[MP3C]&lt;/div&gt;&lt;/div&gt;" style="text;html=1;align=center;verticalAlign=middle;whiteSpace=wrap;rounded=0;" parent="1" vertex="1">
          <mxGeometry x="2382" y="2560" width="128" height="40" as="geometry" />
        </mxCell>
        <mxCell id="vtx71rYAX6kZKPzqjoek-164" value="&lt;div style=&quot;text-align: center;&quot;&gt;&lt;div&gt;Queque&amp;nbsp;&lt;br&gt;&lt;/div&gt;&lt;b&gt;MQ 390&lt;/b&gt;&lt;br&gt;&lt;/div&gt;&lt;div style=&quot;text-align: center;&quot;&gt;&lt;span style=&quot;background-color: transparent; color: light-dark(rgb(0, 0, 0), rgb(255, 255, 255));&quot;&gt;Solicita ejecución de&amp;nbsp;&lt;/span&gt;&lt;span style=&quot;background-color: transparent; color: light-dark(rgb(0, 0, 0), rgb(255, 255, 255));&quot;&gt;consulta de información del bloqueo de una tarjeta&lt;/span&gt;&lt;/div&gt;&lt;div style=&quot;text-align: center;&quot;&gt;[MP3C]&lt;/div&gt;" style="text;whiteSpace=wrap;html=1;" parent="1" vertex="1">
          <mxGeometry x="1844" y="2440" width="230" height="43" as="geometry" />
        </mxCell>
        <mxCell id="vtx71rYAX6kZKPzqjoek-166" style="edgeStyle=orthogonalEdgeStyle;rounded=0;orthogonalLoop=1;jettySize=auto;html=1;curved=0;" parent="1" edge="1">
          <mxGeometry relative="1" as="geometry">
            <mxPoint x="2324" y="2559" as="sourcePoint" />
            <mxPoint x="2324" y="2594" as="targetPoint" />
            <Array as="points">
              <mxPoint x="2380" y="2559" />
              <mxPoint x="2380" y="2594" />
            </Array>
          </mxGeometry>
        </mxCell>
        <mxCell id="vtx71rYAX6kZKPzqjoek-167" value="&lt;div style=&quot;text-align: center;&quot;&gt;&lt;div&gt;Queque&amp;nbsp;&lt;br&gt;&lt;/div&gt;&lt;b&gt;MQ 390&lt;/b&gt;&lt;br&gt;&lt;/div&gt;&lt;div style=&quot;text-align: center;&quot;&gt;&lt;span style=&quot;background-color: transparent; color: light-dark(rgb(0, 0, 0), rgb(255, 255, 255));&quot;&gt;Recibe response de&amp;nbsp;&lt;/span&gt;&lt;span style=&quot;background-color: transparent; color: light-dark(rgb(0, 0, 0), rgb(255, 255, 255));&quot;&gt;consulta de información del bloqueo de una tarjeta&lt;/span&gt;&lt;/div&gt;&lt;div style=&quot;text-align: center;&quot;&gt;[MP3C]&lt;/div&gt;" style="text;whiteSpace=wrap;html=1;" parent="1" vertex="1">
          <mxGeometry x="1850" y="2558" width="220" height="43" as="geometry" />
        </mxCell>
        <mxCell id="vtx71rYAX6kZKPzqjoek-168" value="alt" style="shape=umlFrame;whiteSpace=wrap;html=1;pointerEvents=0;recursiveResize=0;container=1;collapsible=0;width=80;height=15;" parent="1" vertex="1">
          <mxGeometry x="40" y="2679" width="1840" height="321" as="geometry" />
        </mxCell>
        <mxCell id="vtx71rYAX6kZKPzqjoek-169" value="&lt;font style=&quot;font-size: 12px;&quot;&gt;[Response == 4XX]&lt;/font&gt;" style="text;html=1;rotation=0;" parent="vtx71rYAX6kZKPzqjoek-168" vertex="1">
          <mxGeometry width="90" height="23" relative="1" as="geometry">
            <mxPoint x="3" y="30" as="offset" />
          </mxGeometry>
        </mxCell>
        <mxCell id="vtx71rYAX6kZKPzqjoek-172" value="" style="endArrow=open;html=1;rounded=0;dashed=1;endFill=0;" parent="1" edge="1">
          <mxGeometry width="50" height="50" relative="1" as="geometry">
            <mxPoint x="870" y="2799" as="sourcePoint" />
            <mxPoint x="639.9999999999995" y="2799" as="targetPoint" />
          </mxGeometry>
        </mxCell>
        <mxCell id="vtx71rYAX6kZKPzqjoek-173" value="" style="endArrow=open;html=1;rounded=0;dashed=1;endFill=0;" parent="1" edge="1">
          <mxGeometry width="50" height="50" relative="1" as="geometry">
            <mxPoint x="632" y="2839" as="sourcePoint" />
            <mxPoint x="401.99999999999955" y="2839" as="targetPoint" />
          </mxGeometry>
        </mxCell>
        <mxCell id="vtx71rYAX6kZKPzqjoek-174" value="" style="endArrow=open;html=1;rounded=0;dashed=1;endFill=0;" parent="1" edge="1">
          <mxGeometry width="50" height="50" relative="1" as="geometry">
            <mxPoint x="393" y="2879" as="sourcePoint" />
            <mxPoint x="162.99999999999955" y="2879" as="targetPoint" />
          </mxGeometry>
        </mxCell>
        <mxCell id="vtx71rYAX6kZKPzqjoek-175" value="&lt;div style=&quot;text-align: center;&quot;&gt;&lt;div&gt;Queque&amp;nbsp;&lt;br&gt;&lt;/div&gt;&lt;/div&gt;&lt;div style=&quot;text-align: center;&quot;&gt;&lt;b&gt;MQ Canal&lt;/b&gt;&lt;br&gt;&lt;/div&gt;&lt;div style=&quot;text-align: center;&quot;&gt;Recibe MSJ de Error&lt;br&gt;&lt;/div&gt;" style="text;whiteSpace=wrap;html=1;" parent="1" vertex="1">
          <mxGeometry x="702" y="2748" width="116" height="26" as="geometry" />
        </mxCell>
        <mxCell id="vtx71rYAX6kZKPzqjoek-176" value="&lt;div style=&quot;text-align: center;&quot;&gt;&lt;div&gt;&lt;div&gt;&lt;span style=&quot;background-color: initial;&quot;&gt;Canal&lt;/span&gt;&lt;/div&gt;&lt;div&gt;&lt;b&gt;Front MDP&lt;/b&gt;&lt;br&gt;&lt;/div&gt;&lt;/div&gt;&lt;div&gt;&lt;span style=&quot;background-color: transparent; color: light-dark(rgb(0, 0, 0), rgb(255, 255, 255));&quot;&gt;Recibe MSJ de Error&lt;/span&gt;&lt;br&gt;&lt;/div&gt;&lt;/div&gt;" style="text;whiteSpace=wrap;html=1;" parent="1" vertex="1">
          <mxGeometry x="468" y="2788" width="142" height="26" as="geometry" />
        </mxCell>
        <mxCell id="vtx71rYAX6kZKPzqjoek-177" value="&lt;div style=&quot;text-align: center;&quot;&gt;&lt;div&gt;&lt;div&gt;&lt;div&gt;&lt;div&gt;&lt;span style=&quot;background-color: initial;&quot;&gt;Canal&lt;/span&gt;&lt;/div&gt;&lt;div&gt;&lt;b style=&quot;background-color: transparent; color: light-dark(rgb(0, 0, 0), rgb(255, 255, 255));&quot;&gt;CENTEL&lt;/b&gt;&lt;br&gt;&lt;/div&gt;&lt;/div&gt;&lt;div&gt;&lt;span style=&quot;background-color: transparent; color: light-dark(rgb(0, 0, 0), rgb(255, 255, 255));&quot;&gt;Retorna&amp;nbsp;&lt;/span&gt;&lt;span style=&quot;background-color: transparent; color: light-dark(rgb(0, 0, 0), rgb(255, 255, 255));&quot;&gt;MSJ de Error&lt;/span&gt;&lt;/div&gt;&lt;/div&gt;&lt;/div&gt;&lt;/div&gt;" style="text;whiteSpace=wrap;html=1;" parent="1" vertex="1">
          <mxGeometry x="228" y="2826" width="136" height="26" as="geometry" />
        </mxCell>
        <mxCell id="vtx71rYAX6kZKPzqjoek-178" style="edgeStyle=orthogonalEdgeStyle;rounded=0;orthogonalLoop=1;jettySize=auto;html=1;curved=0;" parent="1" edge="1">
          <mxGeometry relative="1" as="geometry">
            <mxPoint x="165" y="2917" as="sourcePoint" />
            <mxPoint x="165" y="2952" as="targetPoint" />
            <Array as="points">
              <mxPoint x="221" y="2917" />
              <mxPoint x="221" y="2952" />
            </Array>
          </mxGeometry>
        </mxCell>
        <mxCell id="vtx71rYAX6kZKPzqjoek-179" value="&lt;div style=&quot;text-align: center;&quot;&gt;&lt;div&gt;&lt;b&gt;Ejecutivo Santander&lt;/b&gt;&lt;/div&gt;&lt;div&gt;Visualiza MSJ de Error&lt;/div&gt;&lt;/div&gt;" style="text;whiteSpace=wrap;html=1;" parent="1" vertex="1">
          <mxGeometry x="231" y="2918" width="156" height="26" as="geometry" />
        </mxCell>
        <mxCell id="vtx71rYAX6kZKPzqjoek-186" value="" style="endArrow=open;html=1;rounded=0;dashed=1;endFill=0;" parent="1" edge="1">
          <mxGeometry width="50" height="50" relative="1" as="geometry">
            <mxPoint x="1830" y="2759" as="sourcePoint" />
            <mxPoint x="874.166666666667" y="2759" as="targetPoint" />
          </mxGeometry>
        </mxCell>
        <mxCell id="vtx71rYAX6kZKPzqjoek-187" value="&lt;div&gt;&lt;div&gt;Componente&lt;br&gt;&lt;/div&gt;&lt;div&gt;&lt;b style=&quot;background-color: transparent; color: light-dark(rgb(0, 0, 0), rgb(255, 255, 255));&quot;&gt;Launcher PLARD&lt;/b&gt;&lt;/div&gt;&lt;div&gt;&lt;span style=&quot;background-color: transparent; color: light-dark(rgb(0, 0, 0), rgb(255, 255, 255));&quot;&gt;Recibe MSJ de Error&lt;/span&gt;&lt;/div&gt;&lt;/div&gt;" style="text;html=1;align=center;verticalAlign=middle;whiteSpace=wrap;rounded=0;" parent="1" vertex="1">
          <mxGeometry x="890" y="2720" width="210" height="30" as="geometry" />
        </mxCell>
        <mxCell id="vtx71rYAX6kZKPzqjoek-189" value="" style="endArrow=open;html=1;rounded=0;dashed=1;endFill=0;" parent="1" edge="1">
          <mxGeometry width="50" height="50" relative="1" as="geometry">
            <mxPoint x="872" y="3160" as="sourcePoint" />
            <mxPoint x="641.9999999999995" y="3160" as="targetPoint" />
          </mxGeometry>
        </mxCell>
        <mxCell id="vtx71rYAX6kZKPzqjoek-190" value="" style="endArrow=open;html=1;rounded=0;dashed=1;endFill=0;" parent="1" edge="1">
          <mxGeometry width="50" height="50" relative="1" as="geometry">
            <mxPoint x="634" y="3200" as="sourcePoint" />
            <mxPoint x="403.99999999999955" y="3200" as="targetPoint" />
          </mxGeometry>
        </mxCell>
        <mxCell id="vtx71rYAX6kZKPzqjoek-191" value="" style="endArrow=open;html=1;rounded=0;dashed=1;endFill=0;" parent="1" edge="1">
          <mxGeometry width="50" height="50" relative="1" as="geometry">
            <mxPoint x="395" y="3280" as="sourcePoint" />
            <mxPoint x="164.99999999999955" y="3280" as="targetPoint" />
          </mxGeometry>
        </mxCell>
        <mxCell id="vtx71rYAX6kZKPzqjoek-192" value="&lt;div style=&quot;text-align: center;&quot;&gt;&lt;div&gt;Queque&amp;nbsp;&lt;br&gt;&lt;/div&gt;&lt;div&gt;&lt;b&gt;MQ Canal&lt;/b&gt;&lt;br&gt;&lt;/div&gt;&lt;div&gt;Recibe&amp;nbsp;&lt;span style=&quot;background-color: transparent; color: light-dark(rgb(0, 0, 0), rgb(255, 255, 255));&quot;&gt;response de&amp;nbsp;&lt;/span&gt;consulta de información del bloqueo de una tarjeta&lt;span style=&quot;background-color: transparent; color: light-dark(rgb(0, 0, 0), rgb(255, 255, 255));&quot;&gt;&amp;nbsp;&amp;nbsp;&lt;/span&gt;&lt;/div&gt;&lt;div&gt;[MP3C]&lt;/div&gt;&lt;/div&gt;" style="text;whiteSpace=wrap;html=1;" parent="1" vertex="1">
          <mxGeometry x="646" y="3080" width="220" height="26" as="geometry" />
        </mxCell>
        <mxCell id="vtx71rYAX6kZKPzqjoek-193" value="&lt;div style=&quot;text-align: center;&quot;&gt;&lt;div&gt;&lt;div&gt;&lt;span style=&quot;background-color: initial;&quot;&gt;Canal&lt;/span&gt;&lt;/div&gt;&lt;div&gt;&lt;b style=&quot;background-color: transparent; color: light-dark(rgb(0, 0, 0), rgb(255, 255, 255));&quot;&gt;CENTEL&lt;/b&gt;&lt;/div&gt;&lt;/div&gt;&lt;div&gt;&lt;span style=&quot;background-color: transparent; color: light-dark(rgb(0, 0, 0), rgb(255, 255, 255));&quot;&gt;Recibe&amp;nbsp;&lt;/span&gt;&lt;span style=&quot;background-color: transparent; color: light-dark(rgb(0, 0, 0), rgb(255, 255, 255));&quot;&gt;response de&amp;nbsp;&lt;/span&gt;consulta de información del bloqueo de una tarjeta&lt;span style=&quot;background-color: transparent; color: light-dark(rgb(0, 0, 0), rgb(255, 255, 255));&quot;&gt;&amp;nbsp;&amp;nbsp;&lt;/span&gt;&lt;/div&gt;&lt;div&gt;[MP3C]&lt;/div&gt;&lt;/div&gt;" style="text;whiteSpace=wrap;html=1;" parent="1" vertex="1">
          <mxGeometry x="413" y="3121" width="214" height="26" as="geometry" />
        </mxCell>
        <mxCell id="vtx71rYAX6kZKPzqjoek-194" value="&lt;div style=&quot;text-align: center;&quot;&gt;&lt;div&gt;&lt;div&gt;&lt;span style=&quot;background-color: initial;&quot;&gt;Canal&lt;/span&gt;&lt;/div&gt;&lt;div&gt;&lt;b style=&quot;color: light-dark(rgb(0, 0, 0), rgb(255, 255, 255)); background-color: transparent;&quot;&gt;CENTEL&lt;/b&gt;&lt;br&gt;&lt;/div&gt;&lt;/div&gt;&lt;div&gt;&lt;span style=&quot;background-color: transparent; color: light-dark(rgb(0, 0, 0), rgb(255, 255, 255));&quot;&gt;Muestra en pantalla&amp;nbsp;&lt;/span&gt;&lt;span style=&quot;background-color: transparent; color: light-dark(rgb(0, 0, 0), rgb(255, 255, 255));&quot;&gt;la&amp;nbsp;&lt;/span&gt;&lt;span style=&quot;background-color: transparent; color: light-dark(rgb(0, 0, 0), rgb(255, 255, 255));&quot;&gt;consulta de información del bloqueo de una tarjeta&lt;/span&gt;&lt;span style=&quot;background-color: transparent; color: light-dark(rgb(0, 0, 0), rgb(255, 255, 255));&quot;&gt;&amp;nbsp;&amp;nbsp;&lt;/span&gt;&lt;/div&gt;&lt;div&gt;[MP3C]&lt;/div&gt;&lt;/div&gt;" style="text;whiteSpace=wrap;html=1;" parent="1" vertex="1">
          <mxGeometry x="170" y="3199" width="220" height="26" as="geometry" />
        </mxCell>
        <mxCell id="vtx71rYAX6kZKPzqjoek-195" value="" style="endArrow=open;html=1;rounded=0;dashed=1;endFill=0;" parent="1" edge="1">
          <mxGeometry width="50" height="50" relative="1" as="geometry">
            <mxPoint x="1832" y="3120" as="sourcePoint" />
            <mxPoint x="878" y="3120" as="targetPoint" />
          </mxGeometry>
        </mxCell>
        <mxCell id="vtx71rYAX6kZKPzqjoek-196" value="&lt;div&gt;Componente&lt;br&gt;&lt;/div&gt;&lt;div&gt;&lt;b style=&quot;background-color: transparent; color: light-dark(rgb(0, 0, 0), rgb(255, 255, 255));&quot;&gt;Launcher PLARD&lt;/b&gt;&lt;/div&gt;&lt;div&gt;&lt;span style=&quot;background-color: transparent; color: light-dark(rgb(0, 0, 0), rgb(255, 255, 255));&quot;&gt;Recibe response de&amp;nbsp;&lt;/span&gt;&lt;span style=&quot;background-color: transparent; color: light-dark(rgb(0, 0, 0), rgb(255, 255, 255));&quot;&gt;consulta de información del bloqueo de una tarjeta&lt;/span&gt;&lt;/div&gt;&lt;div&gt;[MP3C]&lt;br&gt;&lt;/div&gt;" style="text;html=1;align=center;verticalAlign=middle;whiteSpace=wrap;rounded=0;" parent="1" vertex="1">
          <mxGeometry x="892" y="3070" width="210" height="30" as="geometry" />
        </mxCell>
        <mxCell id="vtx71rYAX6kZKPzqjoek-199" style="edgeStyle=orthogonalEdgeStyle;rounded=0;orthogonalLoop=1;jettySize=auto;html=1;curved=0;" parent="1" edge="1">
          <mxGeometry relative="1" as="geometry">
            <mxPoint x="166" y="3320" as="sourcePoint" />
            <mxPoint x="166" y="3355" as="targetPoint" />
            <Array as="points">
              <mxPoint x="222" y="3320" />
              <mxPoint x="222" y="3355" />
            </Array>
          </mxGeometry>
        </mxCell>
        <mxCell id="vtx71rYAX6kZKPzqjoek-200" value="&lt;span style=&quot;text-wrap: nowrap; background-color: rgb(255, 255, 255);&quot;&gt;&lt;b&gt;Ejecutivo Santander&lt;/b&gt;&lt;/span&gt;&lt;div&gt;&lt;span style=&quot;text-wrap: nowrap; background-color: rgb(255, 255, 255);&quot;&gt;Visualiza&amp;nbsp;&lt;/span&gt;&lt;span style=&quot;background-color: transparent; color: light-dark(rgb(0, 0, 0), rgb(255, 255, 255));&quot;&gt;consulta de información del bloqueo de una tarjeta&lt;/span&gt;&lt;/div&gt;" style="text;html=1;align=center;verticalAlign=middle;whiteSpace=wrap;rounded=0;" parent="1" vertex="1">
          <mxGeometry x="219" y="3326" width="169" height="27" as="geometry" />
        </mxCell>
        <mxCell id="bNmyXN-axlHxdMonLR5W-27" style="edgeStyle=orthogonalEdgeStyle;rounded=0;orthogonalLoop=1;jettySize=auto;html=1;exitX=0.5;exitY=1;exitDx=0;exitDy=0;" parent="1" edge="1">
          <mxGeometry relative="1" as="geometry">
            <mxPoint x="1018.9999999999991" y="-304" as="sourcePoint" />
            <mxPoint x="1018.9999999999991" y="-304" as="targetPoint" />
          </mxGeometry>
        </mxCell>
        <mxCell id="FZnXcnq8-5IM7QVr9gtw-3" value="" style="html=1;points=[[0,0,0,0,5],[0,1,0,0,-5],[1,0,0,0,5],[1,1,0,0,-5]];perimeter=orthogonalPerimeter;outlineConnect=0;targetShapes=umlLifeline;portConstraint=eastwest;newEdgeStyle={&quot;curved&quot;:0,&quot;rounded&quot;:0};" parent="1" vertex="1">
          <mxGeometry x="1833" y="2439" width="10" height="681" as="geometry" />
        </mxCell>
        <mxCell id="YR_MmNOOAaizm8SqQQpC-1" value="" style="html=1;points=[[0,0,0,0,5],[0,1,0,0,-5],[1,0,0,0,5],[1,1,0,0,-5]];perimeter=orthogonalPerimeter;outlineConnect=0;targetShapes=umlLifeline;portConstraint=eastwest;newEdgeStyle={&quot;curved&quot;:0,&quot;rounded&quot;:0};" parent="1" vertex="1">
          <mxGeometry x="2075" y="1157" width="10" height="120" as="geometry" />
        </mxCell>
        <mxCell id="YR_MmNOOAaizm8SqQQpC-2" value="" style="endArrow=classic;html=1;rounded=0;" parent="1" target="YR_MmNOOAaizm8SqQQpC-1" edge="1">
          <mxGeometry width="50" height="50" relative="1" as="geometry">
            <mxPoint x="1363" y="1156" as="sourcePoint" />
            <mxPoint x="1842" y="1156" as="targetPoint" />
          </mxGeometry>
        </mxCell>
        <mxCell id="YR_MmNOOAaizm8SqQQpC-3" value="&lt;div style=&quot;&quot;&gt;&lt;div style=&quot;text-align: center;&quot;&gt;&lt;div&gt;&lt;div&gt;Microservicio&amp;nbsp;&lt;br&gt;&lt;/div&gt;&lt;div&gt;&lt;b&gt;device-parameters-inquiry&lt;/b&gt;&lt;br&gt;&lt;/div&gt;&lt;/div&gt;&lt;div&gt;&lt;span style=&quot;background-color: transparent; color: light-dark(rgb(0, 0, 0), rgb(255, 255, 255));&quot;&gt;Realiza&amp;nbsp;&lt;/span&gt;&lt;span style=&quot;background-color: transparent; color: light-dark(rgb(0, 0, 0), rgb(255, 255, 255));&quot;&gt;consulta de información del bloqueo de una tarjeta&lt;/span&gt;&lt;/div&gt;&lt;/div&gt;&lt;/div&gt;" style="text;html=1;align=center;verticalAlign=middle;whiteSpace=wrap;rounded=0;" parent="1" vertex="1">
          <mxGeometry x="1394" y="1111" width="183" height="30" as="geometry" />
        </mxCell>
        <mxCell id="YR_MmNOOAaizm8SqQQpC-4" style="edgeStyle=orthogonalEdgeStyle;rounded=0;orthogonalLoop=1;jettySize=auto;html=1;curved=0;" parent="1" edge="1">
          <mxGeometry relative="1" as="geometry">
            <mxPoint x="2084" y="1196" as="sourcePoint" />
            <mxPoint x="2084" y="1231" as="targetPoint" />
            <Array as="points">
              <mxPoint x="2140" y="1196" />
              <mxPoint x="2140" y="1231" />
            </Array>
          </mxGeometry>
        </mxCell>
        <mxCell id="YR_MmNOOAaizm8SqQQpC-5" value="" style="endArrow=open;html=1;rounded=0;dashed=1;endFill=0;" parent="1" source="YR_MmNOOAaizm8SqQQpC-1" edge="1">
          <mxGeometry width="50" height="50" relative="1" as="geometry">
            <mxPoint x="1842" y="1277" as="sourcePoint" />
            <mxPoint x="1363" y="1277" as="targetPoint" />
          </mxGeometry>
        </mxCell>
        <mxCell id="YR_MmNOOAaizm8SqQQpC-6" value="&lt;div style=&quot;&quot;&gt;&lt;div style=&quot;text-align: center;&quot;&gt;&lt;div&gt;&lt;div&gt;Microservicio&amp;nbsp;&lt;br&gt;&lt;/div&gt;&lt;div&gt;&lt;b&gt;device-parameters-inquiry&lt;/b&gt;&lt;br&gt;&lt;/div&gt;&lt;/div&gt;&lt;div&gt;&lt;span style=&quot;background-color: transparent; color: light-dark(rgb(0, 0, 0), rgb(255, 255, 255));&quot;&gt;Recibe datos de&amp;nbsp;&lt;/span&gt;&lt;span style=&quot;background-color: transparent; color: light-dark(rgb(0, 0, 0), rgb(255, 255, 255));&quot;&gt;consulta de información del bloqueo de una tarjeta&lt;/span&gt;&lt;/div&gt;&lt;/div&gt;&lt;/div&gt;" style="text;html=1;align=center;verticalAlign=middle;whiteSpace=wrap;rounded=0;" parent="1" vertex="1">
          <mxGeometry x="1370" y="1230" width="220" height="32" as="geometry" />
        </mxCell>
        <mxCell id="YR_MmNOOAaizm8SqQQpC-7" value="&lt;div&gt;&lt;font&gt;Consulta de información del bloqueo de una tarjeta&lt;br&gt;&lt;/font&gt;&lt;/div&gt;&lt;div&gt;&lt;font&gt;&lt;span style=&quot;background-color: initial;&quot;&gt;[API PLARD -&amp;nbsp;&lt;/span&gt;&lt;span style=&quot;background-color: initial;&quot;&gt;&lt;span style=&quot;white-space-collapse: preserve;&quot;&gt;cadastral-domain-api&lt;/span&gt;]&lt;/span&gt;&lt;br&gt;&lt;/font&gt;&lt;/div&gt;&lt;div style=&quot;text-align: center;&quot;&gt;&lt;font&gt;&lt;span style=&quot;color: rgb(36, 36, 36); font-family: &amp;quot;Aptos Narrow&amp;quot;, Calibri, &amp;quot;sans-serif&amp;quot;, &amp;quot;Mongolian Baiti&amp;quot;, &amp;quot;Microsoft Yi Baiti&amp;quot;, &amp;quot;Javanese Text&amp;quot;, &amp;quot;Yu Gothic&amp;quot;; text-align: left; white-space-collapse: preserve; background-color: rgb(255, 255, 255);&quot;&gt;&lt;b&gt;(GET)&lt;/b&gt;&lt;/span&gt;&lt;span style=&quot;background-color: transparent;&quot;&gt;&lt;font face=&quot;Roboto, sans-serif&quot; color=&quot;#222222&quot;&gt;&lt;b style=&quot;&quot;&gt;/life-cycle/v3/block-codes&lt;/b&gt;&lt;/font&gt;&lt;/span&gt;&lt;/font&gt;&lt;span style=&quot;font-size: 11px; background-color: initial;&quot;&gt;&lt;br&gt;&lt;/span&gt;&lt;/div&gt;" style="text;html=1;align=center;verticalAlign=middle;whiteSpace=wrap;rounded=0;" parent="1" vertex="1">
          <mxGeometry x="2143" y="1169" width="274" height="100" as="geometry" />
        </mxCell>
        <mxCell id="YR_MmNOOAaizm8SqQQpC-10" value="alt" style="shape=umlFrame;whiteSpace=wrap;html=1;pointerEvents=0;recursiveResize=0;container=1;collapsible=0;width=80;height=15;" parent="1" vertex="1">
          <mxGeometry x="40" y="1320" width="1600" height="360" as="geometry" />
        </mxCell>
        <mxCell id="YR_MmNOOAaizm8SqQQpC-11" value="&lt;font style=&quot;font-size: 12px;&quot;&gt;[Response == 4XX]&lt;/font&gt;" style="text;html=1;rotation=0;" parent="YR_MmNOOAaizm8SqQQpC-10" vertex="1">
          <mxGeometry width="90" height="23" relative="1" as="geometry">
            <mxPoint x="3" y="30" as="offset" />
          </mxGeometry>
        </mxCell>
        <mxCell id="YR_MmNOOAaizm8SqQQpC-12" value="" style="endArrow=open;html=1;rounded=0;dashed=1;endFill=0;" parent="1" edge="1">
          <mxGeometry width="50" height="50" relative="1" as="geometry">
            <mxPoint x="1111.0000000000005" y="1440" as="sourcePoint" />
            <mxPoint x="881" y="1440" as="targetPoint" />
          </mxGeometry>
        </mxCell>
        <mxCell id="YR_MmNOOAaizm8SqQQpC-13" value="&lt;div style=&quot;text-align: center;&quot;&gt;&lt;div&gt;&lt;div&gt;Componente&lt;/div&gt;&lt;div&gt;&lt;b&gt;Launcher PLARD&lt;/b&gt;&lt;br&gt;&lt;/div&gt;&lt;/div&gt;&lt;div&gt;Toma MSJ de Error de Redis Streams&lt;/div&gt;&lt;/div&gt;" style="text;whiteSpace=wrap;html=1;" parent="1" vertex="1">
          <mxGeometry x="893" y="1375" width="200" height="26" as="geometry" />
        </mxCell>
        <mxCell id="YR_MmNOOAaizm8SqQQpC-14" value="" style="endArrow=open;html=1;rounded=0;dashed=1;endFill=0;" parent="1" edge="1">
          <mxGeometry width="50" height="50" relative="1" as="geometry">
            <mxPoint x="870" y="1480" as="sourcePoint" />
            <mxPoint x="639.9999999999995" y="1480" as="targetPoint" />
          </mxGeometry>
        </mxCell>
        <mxCell id="YR_MmNOOAaizm8SqQQpC-15" value="" style="endArrow=open;html=1;rounded=0;dashed=1;endFill=0;" parent="1" edge="1">
          <mxGeometry width="50" height="50" relative="1" as="geometry">
            <mxPoint x="632" y="1520" as="sourcePoint" />
            <mxPoint x="401.99999999999955" y="1520" as="targetPoint" />
          </mxGeometry>
        </mxCell>
        <mxCell id="YR_MmNOOAaizm8SqQQpC-16" value="" style="endArrow=open;html=1;rounded=0;dashed=1;endFill=0;" parent="1" edge="1">
          <mxGeometry width="50" height="50" relative="1" as="geometry">
            <mxPoint x="393" y="1560" as="sourcePoint" />
            <mxPoint x="162.99999999999955" y="1560" as="targetPoint" />
          </mxGeometry>
        </mxCell>
        <mxCell id="YR_MmNOOAaizm8SqQQpC-17" value="&lt;div style=&quot;text-align: center;&quot;&gt;&lt;div&gt;Queque&amp;nbsp;&lt;br&gt;&lt;/div&gt;&lt;/div&gt;&lt;div style=&quot;text-align: center;&quot;&gt;&lt;b&gt;MQ Canal&lt;/b&gt;&lt;br&gt;&lt;/div&gt;&lt;div style=&quot;text-align: center;&quot;&gt;Recibe MSJ de Error&lt;br&gt;&lt;/div&gt;" style="text;whiteSpace=wrap;html=1;" parent="1" vertex="1">
          <mxGeometry x="702" y="1429" width="116" height="26" as="geometry" />
        </mxCell>
        <mxCell id="YR_MmNOOAaizm8SqQQpC-18" value="&lt;div style=&quot;text-align: center;&quot;&gt;&lt;div&gt;&lt;div&gt;&lt;span style=&quot;background-color: initial;&quot;&gt;Canal&lt;/span&gt;&lt;/div&gt;&lt;div&gt;&lt;b style=&quot;background-color: transparent; color: light-dark(rgb(0, 0, 0), rgb(255, 255, 255));&quot;&gt;CENTEL&lt;/b&gt;&lt;br&gt;&lt;/div&gt;&lt;/div&gt;&lt;div&gt;&lt;span style=&quot;background-color: transparent; color: light-dark(rgb(0, 0, 0), rgb(255, 255, 255));&quot;&gt;Recibe MSJ de Error&lt;/span&gt;&lt;br&gt;&lt;/div&gt;&lt;/div&gt;" style="text;whiteSpace=wrap;html=1;" parent="1" vertex="1">
          <mxGeometry x="468" y="1469" width="142" height="26" as="geometry" />
        </mxCell>
        <mxCell id="YR_MmNOOAaizm8SqQQpC-19" value="&lt;div style=&quot;text-align: center;&quot;&gt;&lt;div&gt;&lt;div&gt;&lt;span style=&quot;background-color: initial;&quot;&gt;Canal&lt;/span&gt;&lt;/div&gt;&lt;div&gt;&lt;b style=&quot;background-color: transparent; color: light-dark(rgb(0, 0, 0), rgb(255, 255, 255));&quot;&gt;CENTEL&lt;/b&gt;&lt;br&gt;&lt;/div&gt;&lt;/div&gt;&lt;div&gt;&lt;span style=&quot;background-color: transparent; color: light-dark(rgb(0, 0, 0), rgb(255, 255, 255));&quot;&gt;Retorna&amp;nbsp;&lt;/span&gt;&lt;span style=&quot;background-color: transparent; color: light-dark(rgb(0, 0, 0), rgb(255, 255, 255));&quot;&gt;MSJ de Error&lt;/span&gt;&lt;br&gt;&lt;/div&gt;&lt;/div&gt;" style="text;whiteSpace=wrap;html=1;" parent="1" vertex="1">
          <mxGeometry x="228" y="1507" width="136" height="26" as="geometry" />
        </mxCell>
        <mxCell id="YR_MmNOOAaizm8SqQQpC-20" style="edgeStyle=orthogonalEdgeStyle;rounded=0;orthogonalLoop=1;jettySize=auto;html=1;curved=0;" parent="1" edge="1">
          <mxGeometry relative="1" as="geometry">
            <mxPoint x="165" y="1598" as="sourcePoint" />
            <mxPoint x="165" y="1633" as="targetPoint" />
            <Array as="points">
              <mxPoint x="221" y="1598" />
              <mxPoint x="221" y="1633" />
            </Array>
          </mxGeometry>
        </mxCell>
        <mxCell id="YR_MmNOOAaizm8SqQQpC-21" value="&lt;div style=&quot;text-align: center;&quot;&gt;&lt;div&gt;&lt;b&gt;Ejecutivo Santander&lt;/b&gt;&lt;/div&gt;&lt;div&gt;Visualiza MSJ de Error&lt;/div&gt;&lt;/div&gt;" style="text;whiteSpace=wrap;html=1;" parent="1" vertex="1">
          <mxGeometry x="228" y="1601" width="156" height="26" as="geometry" />
        </mxCell>
        <mxCell id="YR_MmNOOAaizm8SqQQpC-22" value="" style="endArrow=classic;html=1;rounded=0;" parent="1" target="YR_MmNOOAaizm8SqQQpC-27" edge="1">
          <mxGeometry width="50" height="50" relative="1" as="geometry">
            <mxPoint x="1362" y="1601" as="sourcePoint" />
            <mxPoint x="1588" y="1601" as="targetPoint" />
          </mxGeometry>
        </mxCell>
        <mxCell id="YR_MmNOOAaizm8SqQQpC-23" value="&lt;div style=&quot;&quot;&gt;&lt;div style=&quot;text-align: center;&quot;&gt;&lt;div&gt;&lt;div&gt;&lt;span style=&quot;background-color: initial;&quot;&gt;&lt;font&gt;Microservicio&amp;nbsp;&lt;/font&gt;&lt;/span&gt;&lt;/div&gt;&lt;div&gt;&lt;font&gt;&lt;b&gt;device-parameters-inquiry&lt;/b&gt;&lt;br&gt;&lt;/font&gt;&lt;/div&gt;&lt;/div&gt;&lt;div&gt;&lt;font&gt;Publica Trama de Bitacora de&amp;nbsp;&lt;/font&gt;&lt;span style=&quot;background-color: transparent; color: light-dark(rgb(0, 0, 0), rgb(255, 255, 255));&quot;&gt;consulta de información del bloqueo de una tarjeta&lt;/span&gt;&lt;/div&gt;&lt;/div&gt;&lt;/div&gt;" style="text;html=1;align=center;verticalAlign=middle;whiteSpace=wrap;rounded=0;" parent="1" vertex="1">
          <mxGeometry x="1357" y="1556" width="244" height="30" as="geometry" />
        </mxCell>
        <mxCell id="YR_MmNOOAaizm8SqQQpC-24" style="edgeStyle=orthogonalEdgeStyle;rounded=0;orthogonalLoop=1;jettySize=auto;html=1;curved=0;" parent="1" edge="1">
          <mxGeometry relative="1" as="geometry">
            <mxPoint x="1362" y="1440" as="sourcePoint" />
            <mxPoint x="1362" y="1475" as="targetPoint" />
            <Array as="points">
              <mxPoint x="1418" y="1440" />
              <mxPoint x="1418" y="1475" />
            </Array>
          </mxGeometry>
        </mxCell>
        <mxCell id="YR_MmNOOAaizm8SqQQpC-25" value="&lt;div style=&quot;text-align: center;&quot;&gt;&lt;div&gt;&lt;span style=&quot;background-color: initial;&quot;&gt;Microservicio&amp;nbsp;&lt;/span&gt;&lt;/div&gt;&lt;div&gt;&lt;b&gt;device-parameters-inquiry&lt;/b&gt;&lt;br&gt;&lt;/div&gt;&lt;div&gt;Genera Trama de Bitácora de&amp;nbsp;&lt;span style=&quot;background-color: transparent; color: light-dark(rgb(0, 0, 0), rgb(255, 255, 255));&quot;&gt;consulta de información del bloqueo de una tarjeta&lt;/span&gt;&lt;/div&gt;&lt;/div&gt;" style="text;whiteSpace=wrap;html=1;" parent="1" vertex="1">
          <mxGeometry x="1420" y="1417" width="160" height="26" as="geometry" />
        </mxCell>
        <mxCell id="YR_MmNOOAaizm8SqQQpC-26" value="" style="endArrow=open;html=1;rounded=0;dashed=1;endFill=0;" parent="1" edge="1">
          <mxGeometry width="50" height="50" relative="1" as="geometry">
            <mxPoint x="1596" y="1640" as="sourcePoint" />
            <mxPoint x="1361.071428571428" y="1640" as="targetPoint" />
          </mxGeometry>
        </mxCell>
        <mxCell id="YR_MmNOOAaizm8SqQQpC-27" value="" style="html=1;points=[[0,0,0,0,5],[0,1,0,0,-5],[1,0,0,0,5],[1,1,0,0,-5]];perimeter=orthogonalPerimeter;outlineConnect=0;targetShapes=umlLifeline;portConstraint=eastwest;newEdgeStyle={&quot;curved&quot;:0,&quot;rounded&quot;:0};" parent="1" vertex="1">
          <mxGeometry x="1591" y="1600" width="10" height="41" as="geometry" />
        </mxCell>
        <mxCell id="YR_MmNOOAaizm8SqQQpC-28" value="" style="endArrow=open;html=1;rounded=0;dashed=1;endFill=0;" parent="1" edge="1">
          <mxGeometry width="50" height="50" relative="1" as="geometry">
            <mxPoint x="1350" y="1400" as="sourcePoint" />
            <mxPoint x="1119.9999999999995" y="1400" as="targetPoint" />
          </mxGeometry>
        </mxCell>
        <mxCell id="YR_MmNOOAaizm8SqQQpC-29" value="&lt;div&gt;&lt;span style=&quot;background-color: initial;&quot;&gt;Microservicio&amp;nbsp;&lt;/span&gt;&lt;/div&gt;&lt;div style=&quot;&quot;&gt;&lt;b&gt;device-parameters-inquiry&lt;/b&gt;&lt;br&gt;&lt;/div&gt;&lt;div style=&quot;&quot;&gt;Deposita MSJ de Error en Redis Streams&lt;/div&gt;" style="text;html=1;align=center;verticalAlign=middle;whiteSpace=wrap;rounded=0;" parent="1" vertex="1">
          <mxGeometry x="1130" y="1355" width="210" height="30" as="geometry" />
        </mxCell>
        <mxCell id="YR_MmNOOAaizm8SqQQpC-30" value="&lt;div style=&quot;text-align: center;&quot;&gt;&lt;div&gt;Response 200&lt;/div&gt;&lt;/div&gt;" style="text;whiteSpace=wrap;html=1;" parent="1" vertex="1">
          <mxGeometry x="1445" y="1618" width="82" height="23" as="geometry" />
        </mxCell>
        <mxCell id="G5n_i2c-U77iiB8ooEL3-13" value="&lt;br&gt;&lt;table style=&quot;border-collapse:&lt;br/&gt; collapse;width:969pt&quot; width=&quot;1290&quot; cellspacing=&quot;0&quot; cellpadding=&quot;0&quot; border=&quot;0&quot;&gt; &lt;colgroup&gt;&lt;col style=&quot;mso-width-source:userset;mso-width-alt:3653;width:79pt&quot; width=&quot;105&quot;&gt;&lt;/colgroup&gt; &lt;colgroup&gt;&lt;col style=&quot;mso-width-source:userset;mso-width-alt:3118;width:67pt&quot; width=&quot;89&quot;&gt;&lt;/colgroup&gt; &lt;colgroup&gt;&lt;col style=&quot;mso-width-source:userset;mso-width-alt:1536;width:33pt&quot; width=&quot;44&quot;&gt;&lt;/colgroup&gt; &lt;colgroup&gt;&lt;col style=&quot;mso-width-source:userset;mso-width-alt:1396;width:30pt&quot; width=&quot;40&quot;&gt;&lt;/colgroup&gt; &lt;colgroup&gt;&lt;col style=&quot;mso-width-source:userset;mso-width-alt:1326;width:29pt&quot; width=&quot;38&quot;&gt;&lt;/colgroup&gt; &lt;colgroup&gt;&lt;col style=&quot;mso-width-source:userset;mso-width-alt:13009;width:280pt&quot; width=&quot;373&quot;&gt;&lt;/colgroup&gt; &lt;colgroup&gt;&lt;col style=&quot;mso-width-source:userset;mso-width-alt:3909;width:84pt&quot; width=&quot;112&quot;&gt;&lt;/colgroup&gt; &lt;colgroup&gt;&lt;col style=&quot;mso-width-source:userset;mso-width-alt:9169;width:197pt&quot; width=&quot;263&quot;&gt;&lt;/colgroup&gt; &lt;colgroup&gt;&lt;col style=&quot;mso-width-source:userset;mso-width-alt:7889;width:170pt&quot; width=&quot;226&quot;&gt;&lt;/colgroup&gt; &lt;tbody&gt;&lt;tr style=&quot;height:14.5pt&quot; height=&quot;19&quot;&gt;  &lt;td style=&quot;height:14.5pt;width:79pt&quot; width=&quot;105&quot; class=&quot;xl91&quot; height=&quot;19&quot;&gt;NÚMERO&lt;/td&gt;  &lt;td style=&quot;border-left:none;width:67pt&quot; width=&quot;89&quot; class=&quot;xl91&quot;&gt;CAMPO&lt;/td&gt;  &lt;td style=&quot;border-left:none;width:33pt&quot; width=&quot;44&quot; class=&quot;xl91&quot;&gt;ATT&lt;/td&gt;  &lt;td style=&quot;border-left:none;width:30pt&quot; width=&quot;40&quot; class=&quot;xl91&quot;&gt;LNG&lt;/td&gt;  &lt;td style=&quot;border-left:none;width:29pt&quot; width=&quot;38&quot; class=&quot;xl91&quot;&gt;TIPO&lt;/td&gt;  &lt;td style=&quot;border-left:none;width:280pt&quot; width=&quot;373&quot; class=&quot;xl82&quot;&gt;DESCRIPCIÓN&lt;/td&gt;  &lt;td style=&quot;border-left:none;width:84pt&quot; width=&quot;112&quot; class=&quot;xl91&quot;&gt;USO&lt;/td&gt;  &lt;td style=&quot;border-left:none;width:197pt&quot; width=&quot;263&quot; class=&quot;xl91&quot;&gt;OBSERVACIONES&lt;/td&gt;  &lt;td style=&quot;border-left:none;width:170pt&quot; width=&quot;226&quot; class=&quot;xl91&quot;&gt;FORMATO&lt;/td&gt; &lt;/tr&gt; &lt;tr style=&quot;height:14.5pt&quot; height=&quot;19&quot;&gt;  &lt;td style=&quot;height:14.5pt;border-top:none&quot; class=&quot;xl92&quot; height=&quot;19&quot;&gt;1&lt;/td&gt;  &lt;td style=&quot;border-top:none;border-left:none&quot; class=&quot;xl86&quot;&gt;CODENT&amp;nbsp;&lt;/td&gt;  &lt;td style=&quot;border-top:none;border-left:none&quot; class=&quot;xl87&quot;&gt;A&lt;/td&gt;  &lt;td style=&quot;border-top:none;border-left:none&quot; class=&quot;xl87&quot;&gt;4&lt;/td&gt;  &lt;td style=&quot;border-top:none;border-left:none&quot; class=&quot;xl87&quot;&gt;O&lt;/td&gt;  &lt;td style=&quot;border-top:none;border-left:none&quot; class=&quot;xl85&quot;&gt;Código de&lt;br&gt;  entidad&amp;nbsp;&amp;nbsp;&amp;nbsp;&amp;nbsp;&amp;nbsp;&lt;/td&gt;  &lt;td style=&quot;border-top:none;border-left:none&quot; class=&quot;xl88&quot;&gt;Opcional&lt;/td&gt;  &lt;td style=&quot;border-top:none;border-left:none;width:197pt&quot; width=&quot;263&quot; class=&quot;xl89&quot;&gt;&amp;nbsp;&lt;/td&gt;  &lt;td style=&quot;border-top:none;border-left:none&quot; class=&quot;xl93&quot;&gt;&amp;nbsp;&lt;/td&gt; &lt;/tr&gt; &lt;tr style=&quot;height:14.5pt&quot; height=&quot;19&quot;&gt;  &lt;td style=&quot;height:14.5pt;border-top:none&quot; class=&quot;xl92&quot; height=&quot;19&quot;&gt;2&lt;/td&gt;  &lt;td style=&quot;border-top:none;border-left:none&quot; class=&quot;xl86&quot;&gt;CODBLQ&amp;nbsp;&lt;/td&gt;  &lt;td style=&quot;border-top:none;border-left:none&quot; class=&quot;xl87&quot;&gt;A&lt;/td&gt;  &lt;td style=&quot;border-top:none;border-left:none&quot; class=&quot;xl87&quot;&gt;2&lt;/td&gt;  &lt;td style=&quot;border-top:none;border-left:none&quot; class=&quot;xl87&quot;&gt;O&lt;/td&gt;  &lt;td style=&quot;border-top:none;border-left:none&quot; class=&quot;xl85&quot;&gt;Codigo de&lt;br&gt;  bloqueo&amp;nbsp;&amp;nbsp;&amp;nbsp;&amp;nbsp;&amp;nbsp;&lt;/td&gt;  &lt;td style=&quot;border-top:none;border-left:none&quot; class=&quot;xl88&quot;&gt;Opcional&lt;/td&gt;  &lt;td style=&quot;border-top:none;border-left:none;width:197pt&quot; width=&quot;263&quot; class=&quot;xl89&quot;&gt;&amp;nbsp;&lt;/td&gt;  &lt;td style=&quot;border-top:none;border-left:none&quot; class=&quot;xl93&quot;&gt;&amp;nbsp;&lt;/td&gt; &lt;/tr&gt; &lt;tr style=&quot;height:14.5pt&quot; height=&quot;19&quot;&gt;  &lt;td style=&quot;height:14.5pt;border-top:none&quot; class=&quot;xl92&quot; height=&quot;19&quot;&gt;3&lt;/td&gt;  &lt;td style=&quot;border-top:none;border-left:none&quot; class=&quot;xl86&quot;&gt;DESBLQ&amp;nbsp;&lt;/td&gt;  &lt;td style=&quot;border-top:none;border-left:none&quot; class=&quot;xl87&quot;&gt;A&lt;/td&gt;  &lt;td style=&quot;border-top:none;border-left:none&quot; class=&quot;xl87&quot;&gt;30&lt;/td&gt;  &lt;td style=&quot;border-top:none;border-left:none&quot; class=&quot;xl92&quot;&gt;O&lt;/td&gt;  &lt;td style=&quot;border-top:none;border-left:none&quot; class=&quot;xl85&quot;&gt;Descripción larga del&lt;br&gt;  bloqueo&lt;/td&gt;  &lt;td style=&quot;border-top:none;border-left:none&quot; class=&quot;xl93&quot;&gt;Opcional&lt;/td&gt;  &lt;td style=&quot;border-top:none;border-left:none&quot; class=&quot;xl92&quot;&gt;&amp;nbsp;&lt;/td&gt;  &lt;td style=&quot;border-top:none;border-left:none&quot; class=&quot;xl93&quot;&gt;&amp;nbsp;&lt;/td&gt; &lt;/tr&gt; &lt;tr style=&quot;height:29.0pt&quot; height=&quot;39&quot;&gt;  &lt;td style=&quot;height:29.0pt;border-top:none&quot; class=&quot;xl92&quot; height=&quot;39&quot;&gt;4&lt;/td&gt;  &lt;td style=&quot;border-top:none;border-left:none&quot; class=&quot;xl86&quot;&gt;DESBLQR&lt;/td&gt;  &lt;td style=&quot;border-top:none;border-left:none&quot; class=&quot;xl87&quot;&gt;A&lt;/td&gt;  &lt;td style=&quot;border-top:none;border-left:none&quot; class=&quot;xl87&quot;&gt;10&lt;/td&gt;  &lt;td style=&quot;border-top:none;border-left:none&quot; class=&quot;xl92&quot;&gt;O&lt;/td&gt;  &lt;td style=&quot;border-top:none;border-left:none&quot; class=&quot;xl85&quot;&gt;Descripción corta del&lt;br&gt;  bloqueo&lt;/td&gt;  &lt;td style=&quot;border-top:none;border-left:none&quot; class=&quot;xl93&quot;&gt;Opcional&lt;/td&gt;  &lt;td style=&quot;border-top:none;border-left:none&quot; class=&quot;xl92&quot;&gt;&amp;nbsp;&lt;/td&gt;  &lt;td style=&quot;border-top:none;border-left:none&quot; class=&quot;xl93&quot;&gt;&amp;nbsp;&lt;/td&gt; &lt;/tr&gt; &lt;tr style=&quot;height:58.0pt&quot; height=&quot;77&quot;&gt;  &lt;td style=&quot;height:58.0pt;border-top:none&quot; class=&quot;xl92&quot; height=&quot;77&quot;&gt;5&lt;/td&gt;  &lt;td style=&quot;border-top:none;border-left:none&quot; class=&quot;xl86&quot;&gt;INDAPLE&lt;/td&gt;  &lt;td style=&quot;border-top:none;border-left:none&quot; class=&quot;xl87&quot;&gt;A&lt;/td&gt;  &lt;td style=&quot;border-top:none;border-left:none&quot; class=&quot;xl87&quot;&gt;1&lt;/td&gt;  &lt;td style=&quot;border-top:none;border-left:none&quot; class=&quot;xl92&quot;&gt;O&lt;/td&gt;  &lt;td style=&quot;border-top:none;border-left:none;width:280pt&quot; width=&quot;373&quot; class=&quot;xl89&quot;&gt;Indicador&lt;br&gt;  de aplicación en vertiente emisor&lt;br&gt;&lt;br&gt;    C – Contrato de tarjeta&lt;br&gt;&lt;br&gt;    T – Tarjeta&lt;br&gt;&lt;br&gt;    A – Ambos&lt;/td&gt;  &lt;td style=&quot;border-top:none;border-left:none&quot; class=&quot;xl93&quot;&gt;Opcional&lt;/td&gt;  &lt;td style=&quot;border-top:none;border-left:none;width:197pt&quot; width=&quot;263&quot; class=&quot;xl95&quot;&gt;Se&lt;br&gt;  conservarán en la sálida los valores C, T, A&lt;/td&gt;  &lt;td style=&quot;border-top:none;border-left:none;width:170pt&quot; width=&quot;226&quot; class=&quot;xl95&quot;&gt;&amp;nbsp;&lt;/td&gt; &lt;/tr&gt; &lt;tr style=&quot;height:116.0pt&quot; height=&quot;155&quot;&gt;  &lt;td style=&quot;height:116.0pt;border-top:none&quot; class=&quot;xl92&quot; height=&quot;155&quot;&gt;6&lt;/td&gt;  &lt;td style=&quot;border-top:none;border-left:none&quot; class=&quot;xl86&quot;&gt;CODBLQS&lt;/td&gt;  &lt;td style=&quot;border-top:none;border-left:none&quot; class=&quot;xl87&quot;&gt;A&lt;/td&gt;  &lt;td style=&quot;border-top:none;border-left:none&quot; class=&quot;xl87&quot;&gt;2&lt;/td&gt;  &lt;td style=&quot;border-top:none;border-left:none&quot; class=&quot;xl92&quot;&gt;O&lt;/td&gt;  &lt;td style=&quot;border-top:none;border-left:none;width:280pt&quot; width=&quot;373&quot; class=&quot;xl89&quot;&gt;Es&lt;br&gt;  el código con el que aplicará en el sistema SIA (Sistema Integral de&lt;br&gt;  Autorizaciones)&lt;br&gt;&lt;br&gt;    &lt;br&gt;&lt;br&gt;    Código de bloqueo para el SIA &lt;br&gt;&lt;br&gt;    00 Tarjeta Operativa&lt;br&gt;&lt;br&gt;    01 Denegar sin retener&lt;br&gt;&lt;br&gt;    02 Denegar en respaldo&lt;br&gt;&lt;br&gt;    03 Retener tarjeta&amp;nbsp;&amp;nbsp;&lt;/td&gt;  &lt;td style=&quot;border-top:none;border-left:none&quot; class=&quot;xl93&quot;&gt;Opcional&lt;/td&gt;  &lt;td style=&quot;border-top:none;border-left:none;width:197pt&quot; width=&quot;263&quot; class=&quot;xl95&quot;&gt;Se&lt;br&gt;  conservan en la sálida los valores 00, 01, 02, 03&lt;/td&gt;  &lt;td style=&quot;border-top:none;border-left:none;width:170pt&quot; width=&quot;226&quot; class=&quot;xl95&quot;&gt;&amp;nbsp;&lt;br&gt;&lt;br&gt;    &lt;/td&gt; &lt;/tr&gt; &lt;tr style=&quot;height:29.0pt&quot; height=&quot;39&quot;&gt;  &lt;td style=&quot;height:29.0pt;border-top:none&quot; class=&quot;xl92&quot; height=&quot;39&quot;&gt;7&lt;/td&gt;  &lt;td style=&quot;border-top:none;border-left:none&quot; class=&quot;xl86&quot;&gt;INBLQOP&lt;/td&gt;  &lt;td style=&quot;border-top:none;border-left:none&quot; class=&quot;xl87&quot;&gt;A&lt;/td&gt;  &lt;td style=&quot;border-top:none;border-left:none&quot; class=&quot;xl87&quot;&gt;1&lt;/td&gt;  &lt;td style=&quot;border-top:none;border-left:none&quot; class=&quot;xl92&quot;&gt;O&lt;/td&gt;  &lt;td style=&quot;border-top:none;border-left:none&quot; class=&quot;xl85&quot;&gt;Indicador de bloqueo&lt;br&gt;  de operatividad&lt;/td&gt;  &lt;td style=&quot;border-top:none;border-left:none&quot; class=&quot;xl93&quot;&gt;Opcional&lt;/td&gt;  &lt;td style=&quot;border-top:none;border-left:none&quot; class=&quot;xl92&quot;&gt;&amp;nbsp;&lt;/td&gt;  &lt;td style=&quot;border-top:none;border-left:none&quot; class=&quot;xl93&quot;&gt;&amp;nbsp;&lt;/td&gt; &lt;/tr&gt; &lt;tr style=&quot;height:43.5pt&quot; height=&quot;58&quot;&gt;  &lt;td style=&quot;height:43.5pt;border-top:none&quot; class=&quot;xl87&quot; height=&quot;58&quot;&gt;8&lt;/td&gt;  &lt;td style=&quot;border-top:none;border-left:none&quot; class=&quot;xl86&quot;&gt;INDNORE&lt;/td&gt;  &lt;td style=&quot;border-top:none;border-left:none&quot; class=&quot;xl87&quot;&gt;M&lt;/td&gt;  &lt;td style=&quot;border-top:none;border-left:none&quot; class=&quot;xl87&quot;&gt;1&lt;/td&gt;  &lt;td style=&quot;border-top:none;border-left:none&quot; class=&quot;xl87&quot;&gt;O&lt;/td&gt;  &lt;td style=&quot;border-top:none;border-left:none;width:280pt&quot; width=&quot;373&quot; class=&quot;xl89&quot;&gt;Indicador&lt;br&gt;  de renovación&lt;br&gt;&lt;br&gt;    0&amp;nbsp; Si renovar&lt;br&gt;&lt;br&gt;    1 No renovar&lt;/td&gt;  &lt;td style=&quot;border-top:none;border-left:none&quot; class=&quot;xl85&quot;&gt;Opcional&lt;/td&gt;  &lt;td style=&quot;border-top:none;border-left:none;width:197pt&quot; width=&quot;263&quot; class=&quot;xl89&quot;&gt;Se&lt;br&gt;  conservan&amp;nbsp; en la sálida los valores 0,1&lt;/td&gt;  &lt;td style=&quot;border-top:none;border-left:none&quot; class=&quot;xl85&quot;&gt;&amp;nbsp;&lt;/td&gt; &lt;/tr&gt; &lt;tr style=&quot;height:58.0pt&quot; height=&quot;77&quot;&gt;  &lt;td style=&quot;height:58.0pt;border-top:none&quot; class=&quot;xl87&quot; height=&quot;77&quot;&gt;9&lt;/td&gt;  &lt;td style=&quot;border-top:none;border-left:none&quot; class=&quot;xl86&quot;&gt;INDENVR&lt;/td&gt;  &lt;td style=&quot;border-top:none;border-left:none&quot; class=&quot;xl87&quot;&gt;A&lt;/td&gt;  &lt;td style=&quot;border-top:none;border-left:none&quot; class=&quot;xl87&quot;&gt;1&lt;/td&gt;  &lt;td style=&quot;border-top:none;border-left:none&quot; class=&quot;xl87&quot;&gt;O&lt;/td&gt;  &lt;td style=&quot;border-top:none;border-left:none;width:280pt&quot; width=&quot;373&quot; class=&quot;xl89&quot;&gt;Indicador&lt;br&gt;  de envío a red o franquicia para Amex, Visa, Master Card &lt;br&gt;&lt;br&gt;    S = Si &lt;br&gt;&lt;br&gt;    N = No&lt;/td&gt;  &lt;td style=&quot;border-top:none;border-left:none&quot; class=&quot;xl85&quot;&gt;Opcional&lt;/td&gt;  &lt;td style=&quot;border-top:none;border-left:none&quot; class=&quot;xl87&quot;&gt;&amp;nbsp;&lt;/td&gt;  &lt;td style=&quot;border-top:none;border-left:none&quot; class=&quot;xl85&quot;&gt;&amp;nbsp;&lt;/td&gt; &lt;/tr&gt; &lt;tr style=&quot;height:29.0pt&quot; height=&quot;39&quot;&gt;  &lt;td style=&quot;height:29.0pt;border-top:none&quot; class=&quot;xl87&quot; height=&quot;39&quot;&gt;10&lt;/td&gt;  &lt;td style=&quot;border-top:none;border-left:none&quot; class=&quot;xl86&quot;&gt;INDGENC&lt;/td&gt;  &lt;td style=&quot;border-top:none;border-left:none&quot; class=&quot;xl87&quot;&gt;A&lt;/td&gt;  &lt;td style=&quot;border-top:none;border-left:none&quot; class=&quot;xl87&quot;&gt;1&lt;/td&gt;  &lt;td style=&quot;border-top:none;border-left:none&quot; class=&quot;xl87&quot;&gt;O&lt;/td&gt;  &lt;td style=&quot;border-top:none;border-left:none;width:280pt&quot; width=&quot;373&quot; class=&quot;xl89&quot;&gt;Indicador&lt;br&gt;  de generación de compras a cuotas S o N&lt;/td&gt;  &lt;td style=&quot;border-top:none;border-left:none&quot; class=&quot;xl85&quot;&gt;Opcional&lt;/td&gt;  &lt;td style=&quot;border-top:none;border-left:none&quot; class=&quot;xl87&quot;&gt;&amp;nbsp;&lt;/td&gt;  &lt;td style=&quot;border-top:none;border-left:none&quot; class=&quot;xl85&quot;&gt;&amp;nbsp;&lt;/td&gt; &lt;/tr&gt; &lt;tr style=&quot;height:43.5pt&quot; height=&quot;58&quot;&gt;  &lt;td style=&quot;height:43.5pt;border-top:none&quot; class=&quot;xl87&quot; height=&quot;58&quot;&gt;11&lt;/td&gt;  &lt;td style=&quot;border-top:none;border-left:none&quot; class=&quot;xl86&quot;&gt;INDBONC&lt;/td&gt;  &lt;td style=&quot;border-top:none;border-left:none&quot; class=&quot;xl87&quot;&gt;A&lt;/td&gt;  &lt;td style=&quot;border-top:none;border-left:none&quot; class=&quot;xl87&quot;&gt;1&lt;/td&gt;  &lt;td style=&quot;border-top:none;border-left:none&quot; class=&quot;xl87&quot;&gt;O&lt;/td&gt;  &lt;td style=&quot;border-top:none;border-left:none;width:280pt&quot; width=&quot;373&quot; class=&quot;xl89&quot;&gt;Indicador&lt;br&gt;  de generación de bonificación de cuotas &lt;br&gt;&lt;br&gt;    S = Si&lt;br&gt;&lt;br&gt;    N = No&amp;nbsp;&lt;/td&gt;  &lt;td style=&quot;border-top:none;border-left:none&quot; class=&quot;xl85&quot;&gt;Opcional&lt;/td&gt;  &lt;td style=&quot;border-top:none;border-left:none&quot; class=&quot;xl87&quot;&gt;&amp;nbsp;&lt;/td&gt;  &lt;td style=&quot;border-top:none;border-left:none&quot; class=&quot;xl85&quot;&gt;&amp;nbsp;&lt;/td&gt; &lt;/tr&gt; &lt;tr style=&quot;height:43.5pt&quot; height=&quot;58&quot;&gt;  &lt;td style=&quot;height:43.5pt;border-top:none&quot; class=&quot;xl87&quot; height=&quot;58&quot;&gt;12&lt;/td&gt;  &lt;td style=&quot;border-top:none;border-left:none&quot; class=&quot;xl86&quot;&gt;INDBLQC&lt;/td&gt;  &lt;td style=&quot;border-top:none;border-left:none&quot; class=&quot;xl87&quot;&gt;A&lt;/td&gt;  &lt;td style=&quot;border-top:none;border-left:none&quot; class=&quot;xl87&quot;&gt;1&lt;/td&gt;  &lt;td style=&quot;border-top:none;border-left:none&quot; class=&quot;xl87&quot;&gt;O&lt;/td&gt;  &lt;td style=&quot;border-top:none;border-left:none;width:280pt&quot; width=&quot;373&quot; class=&quot;xl89&quot;&gt;Indicador&lt;br&gt;  de bloqueo consulta &lt;br&gt;&lt;br&gt;    S = Si consulta&lt;br&gt;&lt;br&gt;    N = No consulta&lt;/td&gt;  &lt;td style=&quot;border-top:none;border-left:none&quot; class=&quot;xl85&quot;&gt;Opcional&lt;/td&gt;  &lt;td style=&quot;border-top:none;border-left:none&quot; class=&quot;xl87&quot;&gt;&amp;nbsp;&lt;/td&gt;  &lt;td style=&quot;border-top:none;border-left:none&quot; class=&quot;xl85&quot;&gt;&amp;nbsp;&lt;/td&gt; &lt;/tr&gt; &lt;tr style=&quot;height:43.5pt&quot; height=&quot;58&quot;&gt;  &lt;td style=&quot;height:43.5pt;border-top:none&quot; class=&quot;xl87&quot; height=&quot;58&quot;&gt;13&lt;/td&gt;  &lt;td style=&quot;border-top:none;border-left:none&quot; class=&quot;xl86&quot;&gt;INDBLQL&lt;/td&gt;  &lt;td style=&quot;border-top:none;border-left:none&quot; class=&quot;xl87&quot;&gt;A&lt;/td&gt;  &lt;td style=&quot;border-top:none;border-left:none&quot; class=&quot;xl87&quot;&gt;1&lt;/td&gt;  &lt;td style=&quot;border-top:none;border-left:none&quot; class=&quot;xl87&quot;&gt;O&lt;/td&gt;  &lt;td style=&quot;border-top:none;border-left:none;width:280pt&quot; width=&quot;373&quot; class=&quot;xl89&quot;&gt;Indicador&lt;br&gt;  de generación de corte de liquidación &lt;br&gt;&lt;br&gt;    S = Si&lt;br&gt;&lt;br&gt;    N = No&amp;nbsp;&lt;/td&gt;  &lt;td style=&quot;border-top:none;border-left:none&quot; class=&quot;xl85&quot;&gt;Opcional&lt;/td&gt;  &lt;td style=&quot;border-top:none;border-left:none&quot; class=&quot;xl87&quot;&gt;&amp;nbsp;&lt;/td&gt;  &lt;td style=&quot;border-top:none;border-left:none&quot; class=&quot;xl85&quot;&gt;&amp;nbsp;&lt;/td&gt; &lt;/tr&gt; &lt;tr style=&quot;height:101.5pt&quot; height=&quot;135&quot;&gt;  &lt;td style=&quot;height:101.5pt;border-top:none&quot; class=&quot;xl92&quot; height=&quot;135&quot;&gt;14&lt;/td&gt;  &lt;td style=&quot;border-top:none;border-left:none&quot; class=&quot;xl86&quot;&gt;PESO&amp;nbsp;&amp;nbsp;&amp;nbsp;&lt;/td&gt;  &lt;td style=&quot;border-top:none;border-left:none&quot; class=&quot;xl87&quot;&gt;N&lt;/td&gt;  &lt;td style=&quot;border-top:none;border-left:none&quot; class=&quot;xl87&quot;&gt;2&lt;/td&gt;  &lt;td style=&quot;border-top:none;border-left:none&quot; class=&quot;xl92&quot;&gt;O&lt;/td&gt;  &lt;td style=&quot;border-top:none;border-left:none;width:280pt&quot; width=&quot;373&quot; class=&quot;xl89&quot;&gt;Peso&lt;br&gt;  bloqueo. Se refiere a la importancia que tiene el bloqueo, entre mas cercano&lt;br&gt;  sea el número al cero es más importante, entre más lejano es menos&lt;br&gt;  importante.&lt;br&gt;&lt;br&gt;    Por ejemplo: &lt;br&gt;&lt;br&gt;    1&amp;nbsp;&amp;nbsp; Muy importante&lt;br&gt;&lt;br&gt;    99 Menos importante&lt;br&gt;&lt;br&gt;    Algunos ejemplos son: 1, 2, 4, 6, 11&amp;nbsp;&amp;nbsp;&amp;nbsp;&amp;nbsp;&amp;nbsp;&amp;nbsp;&amp;nbsp;&amp;nbsp;&lt;/td&gt;  &lt;td style=&quot;border-top:none;border-left:none&quot; class=&quot;xl93&quot;&gt;Opcional&lt;/td&gt;  &lt;td style=&quot;border-top:none;border-left:none;width:197pt&quot; width=&quot;263&quot; class=&quot;xl96&quot;&gt;&amp;nbsp;&lt;/td&gt;  &lt;td style=&quot;border-top:none;border-left:none&quot; class=&quot;xl85&quot;&gt;&amp;nbsp;&lt;/td&gt; &lt;/tr&gt; &lt;tr style=&quot;height:43.5pt&quot; height=&quot;58&quot;&gt;  &lt;td style=&quot;height:43.5pt;border-top:none&quot; class=&quot;xl87&quot; height=&quot;58&quot;&gt;15&lt;/td&gt;  &lt;td style=&quot;border-top:none;border-left:none&quot; class=&quot;xl86&quot;&gt;INDREVE&lt;/td&gt;  &lt;td style=&quot;border-top:none;border-left:none&quot; class=&quot;xl87&quot;&gt;A&lt;/td&gt;  &lt;td style=&quot;border-top:none;border-left:none&quot; class=&quot;xl87&quot;&gt;1&lt;/td&gt;  &lt;td style=&quot;border-top:none;border-left:none&quot; class=&quot;xl87&quot;&gt;O&lt;/td&gt;  &lt;td style=&quot;border-top:none;border-left:none;width:280pt&quot; width=&quot;373&quot; class=&quot;xl89&quot;&gt;Indicador&lt;br&gt;  de reverisibilidad de bloqueo &lt;br&gt;&lt;br&gt;    S = Si &lt;br&gt;&lt;br&gt;    N = No&lt;/td&gt;  &lt;td style=&quot;border-top:none;border-left:none&quot; class=&quot;xl85&quot;&gt;Opcional&lt;/td&gt;  &lt;td style=&quot;border-top:none;border-left:none&quot; class=&quot;xl87&quot;&gt;&amp;nbsp;&lt;/td&gt;  &lt;td style=&quot;border-top:none;border-left:none&quot; class=&quot;xl85&quot;&gt;&amp;nbsp;&lt;/td&gt; &lt;/tr&gt; &lt;tr style=&quot;height:43.5pt&quot; height=&quot;58&quot;&gt;  &lt;td style=&quot;height:43.5pt;border-top:none&quot; class=&quot;xl92&quot; height=&quot;58&quot;&gt;16&lt;/td&gt;  &lt;td style=&quot;border-top:none;border-left:none&quot; class=&quot;xl86&quot;&gt;INDREEM&lt;/td&gt;  &lt;td style=&quot;border-top:none;border-left:none&quot; class=&quot;xl87&quot;&gt;A&lt;/td&gt;  &lt;td style=&quot;border-top:none;border-left:none&quot; class=&quot;xl87&quot;&gt;1&lt;/td&gt;  &lt;td style=&quot;border-top:none;border-left:none&quot; class=&quot;xl92&quot;&gt;O&lt;/td&gt;  &lt;td style=&quot;border-top:none;border-left:none;width:280pt&quot; width=&quot;373&quot; class=&quot;xl89&quot;&gt;Indicador&lt;br&gt;  de permiso de reemisión para el estado &lt;br&gt;&lt;br&gt;    S = Si &lt;br&gt;&lt;br&gt;    N = No&amp;nbsp;&lt;/td&gt;  &lt;td style=&quot;border-top:none;border-left:none&quot; class=&quot;xl93&quot;&gt;Opcional&lt;/td&gt;  &lt;td style=&quot;border-top:none;border-left:none&quot; class=&quot;xl83&quot;&gt;&amp;nbsp;&lt;/td&gt;  &lt;td style=&quot;border-top:none;border-left:none&quot; class=&quot;xl83&quot;&gt;&amp;nbsp;&lt;/td&gt; &lt;/tr&gt; &lt;tr style=&quot;height:43.5pt&quot; height=&quot;58&quot;&gt;  &lt;td style=&quot;height:43.5pt;border-top:none&quot; class=&quot;xl87&quot; height=&quot;58&quot;&gt;17&lt;/td&gt;  &lt;td style=&quot;border-top:none;border-left:none&quot; class=&quot;xl86&quot;&gt;INDCMBP&lt;/td&gt;  &lt;td style=&quot;border-top:none;border-left:none&quot; class=&quot;xl87&quot;&gt;A&lt;/td&gt;  &lt;td style=&quot;border-top:none;border-left:none&quot; class=&quot;xl87&quot;&gt;1&lt;/td&gt;  &lt;td style=&quot;border-top:none;border-left:none&quot; class=&quot;xl87&quot;&gt;O&lt;/td&gt;  &lt;td style=&quot;border-top:none;border-left:none;width:280pt&quot; width=&quot;373&quot; class=&quot;xl89&quot;&gt;Indicador&lt;br&gt;  de cambio de PAN en la remisión de la tarjeta &lt;br&gt;&lt;br&gt;    S = Si &lt;br&gt;&lt;br&gt;    N = No&lt;/td&gt;  &lt;td style=&quot;border-top:none;border-left:none&quot; class=&quot;xl85&quot;&gt;Opcional&lt;/td&gt;  &lt;td style=&quot;border-top:none;border-left:none&quot; class=&quot;xl97&quot;&gt;&amp;nbsp;&lt;/td&gt;  &lt;td style=&quot;border-top:none;border-left:none&quot; class=&quot;xl97&quot;&gt;&amp;nbsp;&lt;/td&gt; &lt;/tr&gt; &lt;tr style=&quot;height:14.5pt&quot; height=&quot;19&quot;&gt;  &lt;td style=&quot;height:14.5pt;border-top:none&quot; class=&quot;xl87&quot; height=&quot;19&quot;&gt;18&lt;/td&gt;  &lt;td style=&quot;border-top:none;border-left:none&quot; class=&quot;xl86&quot;&gt;CONTCUR&lt;/td&gt;  &lt;td style=&quot;border-top:none;border-left:none&quot; class=&quot;xl87&quot;&gt;A&lt;/td&gt;  &lt;td style=&quot;border-top:none;border-left:none&quot; class=&quot;xl87&quot;&gt;26&lt;/td&gt;  &lt;td style=&quot;border-top:none;border-left:none&quot; class=&quot;xl87&quot;&gt;O&lt;/td&gt;  &lt;td style=&quot;border-top:none;border-left:none;width:280pt&quot; width=&quot;373&quot; class=&quot;xl89&quot;&gt;Control&lt;br&gt;  de concurrencia&lt;/td&gt;  &lt;td style=&quot;border-top:none;border-left:none&quot; class=&quot;xl85&quot;&gt;Opcional&lt;/td&gt;  &lt;td style=&quot;border-top:none;border-left:none&quot; class=&quot;xl87&quot;&gt;&amp;nbsp;&lt;/td&gt;  &lt;td style=&quot;border-top:none;border-left:none&quot; class=&quot;xl85&quot;&gt;AAAA-MM-DD-HH.MM.SS.TTTTTT&lt;/td&gt; &lt;/tr&gt;&lt;/tbody&gt;&lt;/table&gt;" style="rounded=0;whiteSpace=wrap;html=1;" parent="1" vertex="1">
          <mxGeometry x="540" y="-1355" width="1270" height="1520" as="geometry" />
        </mxCell>
        <mxCell id="G5n_i2c-U77iiB8ooEL3-14" value="&lt;br&gt;&lt;table style=&quot;border-collapse:&lt;br/&gt; collapse;width:799pt&quot; width=&quot;1064&quot; cellspacing=&quot;0&quot; cellpadding=&quot;0&quot; border=&quot;0&quot;&gt; &lt;colgroup&gt;&lt;col style=&quot;mso-width-source:userset;mso-width-alt:3653;width:79pt&quot; width=&quot;105&quot;&gt;&lt;/colgroup&gt; &lt;colgroup&gt;&lt;col style=&quot;mso-width-source:userset;mso-width-alt:3118;width:67pt&quot; width=&quot;89&quot;&gt;&lt;/colgroup&gt; &lt;colgroup&gt;&lt;col style=&quot;mso-width-source:userset;mso-width-alt:1536;width:33pt&quot; width=&quot;44&quot;&gt;&lt;/colgroup&gt; &lt;colgroup&gt;&lt;col style=&quot;mso-width-source:userset;mso-width-alt:1396;width:30pt&quot; width=&quot;40&quot;&gt;&lt;/colgroup&gt; &lt;colgroup&gt;&lt;col style=&quot;mso-width-source:userset;mso-width-alt:1326;width:29pt&quot; width=&quot;38&quot;&gt;&lt;/colgroup&gt; &lt;colgroup&gt;&lt;col style=&quot;mso-width-source:userset;mso-width-alt:13009;width:280pt&quot; width=&quot;373&quot;&gt;&lt;/colgroup&gt; &lt;colgroup&gt;&lt;col style=&quot;mso-width-source:userset;mso-width-alt:3909;width:84pt&quot; width=&quot;112&quot;&gt;&lt;/colgroup&gt; &lt;colgroup&gt;&lt;col style=&quot;mso-width-source:userset;mso-width-alt:9169;width:197pt&quot; width=&quot;263&quot;&gt;&lt;/colgroup&gt; &lt;tbody&gt;&lt;tr style=&quot;height:14.5pt&quot; height=&quot;19&quot;&gt;  &lt;td style=&quot;height:14.5pt;width:79pt&quot; width=&quot;105&quot; class=&quot;xl83&quot; height=&quot;19&quot;&gt;NÚMERO&lt;/td&gt;  &lt;td style=&quot;border-left:none;width:67pt&quot; width=&quot;89&quot; class=&quot;xl83&quot;&gt;CAMPO&lt;/td&gt;  &lt;td style=&quot;border-left:none;width:33pt&quot; width=&quot;44&quot; class=&quot;xl83&quot;&gt;ATT&lt;/td&gt;  &lt;td style=&quot;border-left:none;width:30pt&quot; width=&quot;40&quot; class=&quot;xl83&quot;&gt;LNG&lt;/td&gt;  &lt;td style=&quot;border-left:none;width:29pt&quot; width=&quot;38&quot; class=&quot;xl83&quot;&gt;TIPO&lt;/td&gt;  &lt;td style=&quot;border-left:none;width:280pt&quot; width=&quot;373&quot; class=&quot;xl84&quot;&gt;DESCRIPCIÓN&lt;/td&gt;  &lt;td style=&quot;border-left:none;width:84pt&quot; width=&quot;112&quot; class=&quot;xl83&quot;&gt;USO&lt;/td&gt;  &lt;td style=&quot;border-left:none;width:197pt&quot; width=&quot;263&quot; class=&quot;xl83&quot;&gt;OBSERVACIONES&lt;/td&gt; &lt;/tr&gt; &lt;tr style=&quot;height:14.5pt&quot; height=&quot;19&quot;&gt;  &lt;td style=&quot;height:14.5pt&quot; class=&quot;xl86&quot; height=&quot;19&quot;&gt;1&lt;/td&gt;  &lt;td style=&quot;border-left:none&quot; class=&quot;xl87&quot;&gt;CODENT&amp;nbsp;&lt;/td&gt;  &lt;td style=&quot;border-left:none&quot; class=&quot;xl88&quot;&gt;A&lt;/td&gt;  &lt;td style=&quot;border-left:none&quot; class=&quot;xl88&quot;&gt;4&lt;/td&gt;  &lt;td style=&quot;border-left:none&quot; class=&quot;xl89&quot;&gt;R&lt;/td&gt;  &lt;td style=&quot;border-left:none&quot; class=&quot;xl89&quot;&gt;Código de entidad&amp;nbsp;&amp;nbsp;&amp;nbsp;&amp;nbsp;&amp;nbsp;&lt;/td&gt;  &lt;td style=&quot;border-left:none&quot; class=&quot;xl90&quot;&gt;Requerido&lt;/td&gt;  &lt;td style=&quot;border-left:none;width:197pt&quot; width=&quot;263&quot; class=&quot;xl91&quot;&gt;&amp;nbsp;&lt;/td&gt; &lt;/tr&gt; &lt;tr style=&quot;mso-height-source:userset;height:79.5pt&quot; height=&quot;106&quot;&gt;  &lt;td style=&quot;height:79.5pt;border-top:none&quot; class=&quot;xl93&quot; height=&quot;106&quot;&gt;2&lt;/td&gt;  &lt;td style=&quot;border-top:none;border-left:none&quot; class=&quot;xl94&quot;&gt;CODBLQ&amp;nbsp;&lt;/td&gt;  &lt;td style=&quot;border-top:none;border-left:none&quot; class=&quot;xl95&quot;&gt;A&lt;/td&gt;  &lt;td style=&quot;border-top:none;border-left:none&quot; class=&quot;xl95&quot;&gt;2&lt;/td&gt;  &lt;td style=&quot;border-top:none;border-left:none&quot; class=&quot;xl92&quot;&gt;O&lt;/td&gt;  &lt;td style=&quot;border-top:none;border-left:none&quot; class=&quot;xl92&quot;&gt;Código de bloqueo&lt;/td&gt;  &lt;td style=&quot;border-top:none;border-left:none&quot; class=&quot;xl96&quot;&gt;Opcional&lt;/td&gt;  &lt;td style=&quot;border-top:none;border-left:none;width:197pt&quot; width=&quot;263&quot; class=&quot;xl97&quot;&gt;Ejemplos&lt;br&gt;  de códigos de bloqueo:&lt;br&gt;0 Tarjeta operativa&lt;br&gt;1 Bloqueo por fraude&lt;br&gt;2 Bloqueo por robo&lt;br&gt;3 Bloqueo por extravio&lt;br&gt;&lt;/td&gt; &lt;/tr&gt;&lt;/tbody&gt;&lt;/table&gt;" style="rounded=0;whiteSpace=wrap;html=1;" parent="1" vertex="1">
          <mxGeometry x="540" y="-1535" width="1270" height="140" as="geometry" />
        </mxCell>
        <mxCell id="G5n_i2c-U77iiB8ooEL3-15" value="Formato = MPM0060&amp;nbsp; : BLOQUEOS &amp;nbsp; &amp;nbsp; &amp;nbsp; &amp;nbsp; &amp;nbsp; &amp;nbsp; &amp;nbsp; &amp;nbsp; &amp;nbsp; &amp;nbsp; &amp;nbsp; &amp;nbsp; &amp;nbsp; &amp;nbsp; &amp;nbsp; &amp;nbsp; &amp;nbsp; &amp;nbsp; &amp;nbsp; &amp;nbsp; &amp;nbsp; &amp;nbsp; Tipo (E/S/A)&amp;nbsp; &amp;nbsp;= A Entrada/Salida" style="rounded=0;whiteSpace=wrap;html=1;fillColor=#EEEEEE;strokeColor=#23445d;fontSize=14;fontStyle=1;align=left;" parent="1" vertex="1">
          <mxGeometry x="540" y="-1613" width="1270" height="39.11" as="geometry" />
        </mxCell>
        <mxCell id="G5n_i2c-U77iiB8ooEL3-16" value="Formato de entrada -&amp;nbsp; MPM0060" style="rounded=0;whiteSpace=wrap;html=1;fillColor=#EEEEEE;strokeColor=#23445d;fontSize=14;fontStyle=1;align=left;" parent="1" vertex="1">
          <mxGeometry x="540" y="-1574" width="1270" height="39.11" as="geometry" />
        </mxCell>
        <mxCell id="G5n_i2c-U77iiB8ooEL3-17" value="Formato de salida -&amp;nbsp; MPM0060" style="rounded=0;whiteSpace=wrap;html=1;fillColor=#EEEEEE;strokeColor=#23445d;fontSize=14;fontStyle=1;align=left;" parent="1" vertex="1">
          <mxGeometry x="540" y="-1395" width="1270" height="39.11" as="geometry" />
        </mxCell>
        <mxCell id="G5n_i2c-U77iiB8ooEL3-18" value="Transacción Altair 390: MP3C (CONSULTA BLOQUEOS)" style="rounded=0;whiteSpace=wrap;html=1;fillColor=#bac8d3;strokeColor=#23445d;fontSize=14;fontStyle=1;verticalAlign=top;container=0;" parent="1" vertex="1">
          <mxGeometry x="540" y="-1655" width="1270" height="42" as="geometry" />
        </mxCell>
        <mxCell id="G5n_i2c-U77iiB8ooEL3-20" value="&lt;div style=&quot;font-size: medium; text-align: start;&quot; data-ccp-timestamp=&quot;1745278194060&quot;&gt;&lt;table style=&quot;border-collapse: collapse; width: 1048pt;&quot; width=&quot;1397&quot;&gt;&lt;colgroup&gt;&lt;col style=&quot;width: 97pt;&quot; width=&quot;129&quot;&gt;&lt;col style=&quot;width: 115pt;&quot; width=&quot;153&quot;&gt;&lt;col style=&quot;width: 41pt;&quot; width=&quot;54&quot;&gt;&lt;col style=&quot;width: 215pt;&quot; width=&quot;287&quot;&gt;&lt;col style=&quot;width: 23pt;&quot; width=&quot;30&quot;&gt;&lt;col style=&quot;width: 37pt;&quot; width=&quot;49&quot;&gt;&lt;col style=&quot;width: 152pt;&quot; width=&quot;203&quot;&gt;&lt;col style=&quot;width: 48pt;&quot; width=&quot;64&quot;&gt;&lt;col style=&quot;width: 230pt;&quot; width=&quot;307&quot;&gt;&lt;col style=&quot;width: 91pt;&quot; width=&quot;121&quot;&gt;&lt;/colgroup&gt;&lt;tbody&gt;&lt;tr style=&quot;height: 13.5pt;&quot; height=&quot;18&quot;&gt;&lt;td style=&quot;padding-top: 1px; padding-right: 1px; padding-left: 1px; font-size: 10pt; font-weight: 700; font-family: Calibri; vertical-align: middle; border-top: 0.5pt solid black; border-right: 0.5pt solid black; border-bottom: none; border-left: 0.5pt solid black; border-image: initial; text-wrap: nowrap; background: rgb(217, 225, 242); width: 97pt; height: 13.5pt;&quot; class=&quot;xl1106&quot; height=&quot;18&quot; width=&quot;129&quot;&gt;API&lt;/td&gt;&lt;td style=&quot;padding-top: 1px; padding-right: 1px; padding-left: 1px; font-size: 10pt; font-weight: 700; font-family: Calibri; vertical-align: middle; border-top: 0.5pt solid black; border-right: 0.5pt solid black; border-bottom: none; border-left: 0.5pt solid black; border-image: initial; text-wrap: nowrap; background: rgb(217, 225, 242); width: 115pt;&quot; class=&quot;xl1106&quot; width=&quot;153&quot;&gt;Endpoint&lt;/td&gt;&lt;td style=&quot;padding-top: 1px; padding-right: 1px; padding-left: 1px; font-size: 10pt; font-weight: 700; font-family: Calibri; vertical-align: middle; border-top: 0.5pt solid black; border-right: 0.5pt solid black; border-bottom: none; border-left: 0.5pt solid black; border-image: initial; text-wrap: nowrap; background: rgb(217, 225, 242); width: 41pt;&quot; class=&quot;xl1106&quot; width=&quot;54&quot;&gt;Método&lt;/td&gt;&lt;td style=&quot;padding-top: 1px; padding-right: 1px; padding-left: 1px; font-size: 10pt; font-weight: 700; font-family: Calibri; vertical-align: middle; border-top: 0.5pt solid black; border-right: 0.5pt solid black; border-bottom: none; border-left: 0.5pt solid black; border-image: initial; text-wrap: nowrap; background: rgb(217, 225, 242); width: 215pt;&quot; class=&quot;xl1106&quot; width=&quot;287&quot;&gt;Campo&lt;/td&gt;&lt;td style=&quot;padding-top: 1px; padding-right: 1px; padding-left: 1px; font-size: 10pt; font-weight: 700; font-family: Calibri; vertical-align: middle; border-top: 0.5pt solid black; border-right: 0.5pt solid black; border-bottom: none; border-left: 0.5pt solid black; border-image: initial; text-wrap: nowrap; background: rgb(217, 225, 242); width: 23pt;&quot; class=&quot;xl1106&quot; width=&quot;30&quot;&gt;LNG&lt;/td&gt;&lt;td style=&quot;padding-top: 1px; padding-right: 1px; padding-left: 1px; font-size: 10pt; font-weight: 700; font-family: Calibri; vertical-align: middle; border-top: 0.5pt solid black; border-right: 0.5pt solid black; border-bottom: none; border-left: 0.5pt solid black; border-image: initial; text-wrap: nowrap; background: rgb(217, 225, 242); width: 37pt;&quot; class=&quot;xl1106&quot; width=&quot;49&quot;&gt;TIPO&lt;/td&gt;&lt;td style=&quot;padding-top: 1px; padding-right: 1px; padding-left: 1px; font-size: 10pt; font-weight: 700; font-family: Calibri; vertical-align: middle; border-top: 0.5pt solid black; border-right: 0.5pt solid black; border-bottom: none; border-left: 0.5pt solid black; border-image: initial; text-wrap: nowrap; background: rgb(217, 225, 242); width: 152pt;&quot; class=&quot;xl1106&quot; width=&quot;203&quot;&gt;DESCRIPCIÓN&lt;/td&gt;&lt;td style=&quot;padding-top: 1px; padding-right: 1px; padding-left: 1px; font-size: 10pt; font-weight: 700; font-family: Calibri; vertical-align: middle; border-top: 0.5pt solid black; border-right: 0.5pt solid black; border-bottom: none; border-left: 0.5pt solid black; border-image: initial; text-wrap: nowrap; background: rgb(217, 225, 242); width: 48pt;&quot; class=&quot;xl1106&quot; width=&quot;64&quot;&gt;USO&lt;/td&gt;&lt;td style=&quot;padding-top: 1px; padding-right: 1px; padding-left: 1px; font-size: 10pt; font-weight: 700; font-family: Calibri; vertical-align: middle; border-top: 0.5pt solid black; border-right: 0.5pt solid black; border-bottom: none; border-left: 0.5pt solid black; border-image: initial; text-wrap: nowrap; background: rgb(217, 225, 242); width: 230pt;&quot; class=&quot;xl1106&quot; width=&quot;307&quot;&gt;OBSERVACIONES&lt;/td&gt;&lt;td style=&quot;padding-top: 1px; padding-right: 1px; padding-left: 1px; font-size: 10pt; font-weight: 700; font-family: Calibri; vertical-align: middle; border-top: 0.5pt solid windowtext; border-right: 0.5pt solid windowtext; border-bottom: none; border-left: none; border-image: initial; text-wrap: nowrap; background: rgb(217, 225, 242); width: 91pt;&quot; class=&quot;xl1109&quot; width=&quot;121&quot;&gt;FORMATO&lt;/td&gt;&lt;/tr&gt;&lt;tr style=&quot;height: 38.25pt;&quot; height=&quot;51&quot;&gt;&lt;td style=&quot;padding-top: 1px; padding-right: 1px; padding-left: 1px; font-size: 10pt; font-family: Calibri; vertical-align: middle; border: 0.5pt solid black; text-wrap: nowrap; height: 38.25pt;&quot; class=&quot;xl1107&quot; height=&quot;51&quot;&gt;&lt;/td&gt;&lt;td style=&quot;padding-top: 1px; padding-right: 1px; padding-left: 1px; font-size: 10pt; font-family: Calibri; vertical-align: middle; border: 0.5pt solid black; text-wrap: nowrap;&quot; class=&quot;xl1107&quot;&gt;&lt;/td&gt;&lt;td style=&quot;padding-top: 1px; padding-right: 1px; padding-left: 1px; font-size: 10pt; font-family: Calibri; vertical-align: middle; border: 0.5pt solid black; text-wrap: nowrap;&quot; class=&quot;xl1107&quot;&gt;&lt;/td&gt;&lt;td style=&quot;padding-top: 1px; padding-right: 1px; padding-left: 1px; font-size: 10pt; font-family: Calibri; vertical-align: middle; border: 0.5pt solid black; width: 215pt;&quot; class=&quot;xl1108&quot; width=&quot;287&quot;&gt;&lt;/td&gt;&lt;td style=&quot;padding-top: 1px; padding-right: 1px; padding-left: 1px; font-size: 10pt; font-family: Calibri; vertical-align: middle; border: 0.5pt solid black; text-wrap: nowrap;&quot; class=&quot;xl1107&quot;&gt;&lt;/td&gt;&lt;td style=&quot;padding-top: 1px; padding-right: 1px; padding-left: 1px; font-size: 10pt; font-family: Calibri; vertical-align: middle; border: 0.5pt solid black; text-wrap: nowrap;&quot; class=&quot;xl1107&quot;&gt;&lt;/td&gt;&lt;td style=&quot;padding-top: 1px; padding-right: 1px; padding-left: 1px; font-size: 10pt; font-family: Calibri; vertical-align: middle; border: 0.5pt solid black; width: 152pt;&quot; class=&quot;xl1108&quot; width=&quot;203&quot;&gt;&lt;/td&gt;&lt;td style=&quot;padding-top: 1px; padding-right: 1px; padding-left: 1px; font-size: 10pt; font-family: Calibri; vertical-align: middle; border: 0.5pt solid black; text-wrap: nowrap;&quot; class=&quot;xl1107&quot;&gt;N/A&lt;/td&gt;&lt;td style=&quot;padding-top: 1px; padding-right: 1px; padding-left: 1px; font-size: 10pt; font-family: Calibri; vertical-align: middle; border: 0.5pt solid black; width: 230pt;&quot; class=&quot;xl1108&quot; width=&quot;307&quot;&gt;El API regresa todos los bloqueos para la entidad de México, no es necesario ningún campos en la entrada&lt;/td&gt;&lt;td style=&quot;padding-top: 1px; padding-right: 1px; padding-left: 1px; font-size: 10pt; font-family: Calibri; vertical-align: middle; border: 0.5pt solid black; width: 91pt;&quot; class=&quot;xl1108&quot; width=&quot;121&quot;&gt;&lt;/td&gt;&lt;/tr&gt;&lt;tr style=&quot;height: 51pt;&quot; height=&quot;68&quot;&gt;&lt;td style=&quot;padding-top: 1px; padding-right: 1px; padding-left: 1px; font-size: 10pt; font-family: Calibri; vertical-align: middle; border: 0.5pt solid black; text-wrap: nowrap; height: 51pt;&quot; class=&quot;xl1107&quot; height=&quot;68&quot;&gt;cadastral-domain-api&lt;/td&gt;&lt;td style=&quot;padding-top: 1px; padding-right: 1px; padding-left: 1px; font-size: 10pt; font-family: Calibri; vertical-align: middle; border: 0.5pt solid black; text-wrap: nowrap;&quot; class=&quot;xl1107&quot;&gt;/life-cycle/v3/block-codes&lt;/td&gt;&lt;td style=&quot;padding-top: 1px; padding-right: 1px; padding-left: 1px; font-size: 10pt; font-family: Calibri; vertical-align: middle; border: 0.5pt solid black; text-wrap: nowrap;&quot; class=&quot;xl1107&quot;&gt;GET&lt;/td&gt;&lt;td style=&quot;padding-top: 1px; padding-right: 1px; padding-left: 1px; font-size: 10pt; font-family: Calibri; vertical-align: middle; border: 0.5pt solid black; text-wrap: nowrap;&quot; class=&quot;xl1107&quot;&gt;blockList[].blockCode&lt;/td&gt;&lt;td style=&quot;padding-top: 1px; padding-right: 1px; padding-left: 1px; font-size: 10pt; font-family: Calibri; vertical-align: middle; border: 0.5pt solid black; text-wrap: nowrap;&quot; align=&quot;right&quot; class=&quot;xl1107&quot;&gt;10&lt;/td&gt;&lt;td style=&quot;padding-top: 1px; padding-right: 1px; padding-left: 1px; font-size: 10pt; font-family: Calibri; vertical-align: middle; border: 0.5pt solid black; text-wrap: nowrap;&quot; class=&quot;xl1107&quot;&gt;integer&lt;/td&gt;&lt;td style=&quot;padding-top: 1px; padding-right: 1px; padding-left: 1px; font-size: 10pt; font-family: Calibri; vertical-align: middle; border: 0.5pt solid black; width: 152pt;&quot; class=&quot;xl1108&quot; width=&quot;203&quot;&gt;Field that holds the lock code&lt;/td&gt;&lt;td style=&quot;padding-top: 1px; padding-right: 1px; padding-left: 1px; font-size: 10pt; font-family: Calibri; vertical-align: middle; border: 0.5pt solid black; text-wrap: nowrap;&quot; class=&quot;xl1107&quot;&gt;&lt;/td&gt;&lt;td style=&quot;padding-top: 1px; padding-right: 1px; padding-left: 1px; font-size: 10pt; font-family: Calibri; vertical-align: middle; border: 0.5pt solid black; width: 230pt;&quot; class=&quot;xl1108&quot; width=&quot;307&quot;&gt;Si viene informado, el API no permite filtrar por un bloqueo en específico. Se necesita recorrer la lista de bloqueos y buscar el código indicado en la entrada de la trx&lt;/td&gt;&lt;td style=&quot;padding-top: 1px; padding-right: 1px; padding-left: 1px; font-size: 10pt; font-family: Calibri; vertical-align: middle; border: 0.5pt solid black; width: 91pt;&quot; class=&quot;xl1108&quot; width=&quot;121&quot;&gt;&lt;/td&gt;&lt;/tr&gt;&lt;tr style=&quot;height: 27pt;&quot; height=&quot;36&quot;&gt;&lt;td style=&quot;padding-top: 1px; padding-right: 1px; padding-left: 1px; font-size: 10pt; font-family: Calibri; vertical-align: middle; border: 0.5pt solid black; text-wrap: nowrap; height: 27pt;&quot; class=&quot;xl1107&quot; height=&quot;36&quot;&gt;cadastral-domain-api&lt;/td&gt;&lt;td style=&quot;padding-top: 1px; padding-right: 1px; padding-left: 1px; font-size: 10pt; font-family: Calibri; vertical-align: middle; border: 0.5pt solid black; text-wrap: nowrap;&quot; class=&quot;xl1107&quot;&gt;/life-cycle/v3/block-codes&lt;/td&gt;&lt;td style=&quot;padding-top: 1px; padding-right: 1px; padding-left: 1px; font-size: 10pt; font-family: Calibri; vertical-align: middle; border: 0.5pt solid black; text-wrap: nowrap;&quot; class=&quot;xl1107&quot;&gt;GET&lt;/td&gt;&lt;td style=&quot;padding-top: 1px; padding-right: 1px; padding-left: 1px; font-size: 10pt; font-family: Calibri; vertical-align: middle; border: 0.5pt solid black; text-wrap: nowrap;&quot; class=&quot;xl1107&quot;&gt;blockList[].blockDescription&lt;/td&gt;&lt;td style=&quot;padding-top: 1px; padding-right: 1px; padding-left: 1px; font-size: 10pt; font-family: Calibri; vertical-align: middle; border: 0.5pt solid black; text-wrap: nowrap;&quot; align=&quot;right&quot; class=&quot;xl1107&quot;&gt;30&lt;/td&gt;&lt;td style=&quot;padding-top: 1px; padding-right: 1px; padding-left: 1px; font-size: 10pt; font-family: Calibri; vertical-align: middle; border: 0.5pt solid black; text-wrap: nowrap;&quot; class=&quot;xl1107&quot;&gt;string&lt;/td&gt;&lt;td style=&quot;padding-top: 1px; padding-right: 1px; padding-left: 1px; font-size: 10pt; font-family: Calibri; vertical-align: middle; border: 0.5pt solid black; width: 152pt;&quot; class=&quot;xl1108&quot; width=&quot;203&quot;&gt;Field that holds the description of the lock&lt;/td&gt;&lt;td style=&quot;padding-top: 1px; padding-right: 1px; padding-left: 1px; font-size: 10pt; font-family: Calibri; vertical-align: middle; border: 0.5pt solid black; text-wrap: nowrap;&quot; class=&quot;xl1107&quot;&gt;&lt;/td&gt;&lt;td style=&quot;padding-top: 1px; padding-right: 1px; padding-left: 1px; font-size: 10pt; font-family: Calibri; vertical-align: middle; border: 0.5pt solid black; width: 230pt;&quot; class=&quot;xl1108&quot; width=&quot;307&quot;&gt;&lt;/td&gt;&lt;td style=&quot;padding-top: 1px; padding-right: 1px; padding-left: 1px; font-size: 10pt; font-family: Calibri; vertical-align: middle; border: 0.5pt solid black; width: 91pt;&quot; class=&quot;xl1108&quot; width=&quot;121&quot;&gt;&lt;/td&gt;&lt;/tr&gt;&lt;tr style=&quot;height: 12.75pt;&quot; height=&quot;17&quot;&gt;&lt;td style=&quot;padding-top: 1px; padding-right: 1px; padding-left: 1px; font-size: 10pt; font-family: Calibri; vertical-align: middle; border: 0.5pt solid black; text-wrap: nowrap; height: 12.75pt;&quot; class=&quot;xl1107&quot; height=&quot;17&quot;&gt;cadastral-domain-api&lt;/td&gt;&lt;td style=&quot;padding-top: 1px; padding-right: 1px; padding-left: 1px; font-size: 10pt; font-family: Calibri; vertical-align: middle; border: 0.5pt solid black; text-wrap: nowrap;&quot; class=&quot;xl1107&quot;&gt;/life-cycle/v3/block-codes&lt;/td&gt;&lt;td style=&quot;padding-top: 1px; padding-right: 1px; padding-left: 1px; font-size: 10pt; font-family: Calibri; vertical-align: middle; border: 0.5pt solid black; text-wrap: nowrap;&quot; class=&quot;xl1107&quot;&gt;GET&lt;/td&gt;&lt;td style=&quot;padding-top: 1px; padding-right: 1px; padding-left: 1px; font-size: 10pt; font-family: Calibri; vertical-align: middle; border: 0.5pt solid black; text-wrap: nowrap;&quot; class=&quot;xl1107&quot;&gt;blockList[].lockShortDescription&lt;/td&gt;&lt;td style=&quot;padding-top: 1px; padding-right: 1px; padding-left: 1px; font-size: 10pt; font-family: Calibri; vertical-align: middle; border: 0.5pt solid black; text-wrap: nowrap;&quot; class=&quot;xl1107&quot;&gt;&lt;/td&gt;&lt;td style=&quot;padding-top: 1px; padding-right: 1px; padding-left: 1px; font-size: 10pt; font-family: Calibri; vertical-align: middle; border: 0.5pt solid black; text-wrap: nowrap;&quot; class=&quot;xl1107&quot;&gt;string&lt;/td&gt;&lt;td style=&quot;padding-top: 1px; padding-right: 1px; padding-left: 1px; font-size: 10pt; font-family: Calibri; vertical-align: middle; border: 0.5pt solid black; width: 152pt;&quot; class=&quot;xl1108&quot; width=&quot;203&quot;&gt;Short description of lock&lt;/td&gt;&lt;td style=&quot;padding-top: 1px; padding-right: 1px; padding-left: 1px; font-size: 10pt; font-family: Calibri; vertical-align: middle; border: 0.5pt solid black; text-wrap: nowrap;&quot; class=&quot;xl1107&quot;&gt;&lt;/td&gt;&lt;td style=&quot;padding-top: 1px; padding-right: 1px; padding-left: 1px; font-size: 10pt; font-family: Calibri; vertical-align: middle; border: 0.5pt solid black; width: 230pt;&quot; class=&quot;xl1108&quot; width=&quot;307&quot;&gt;example: lock cause 1&lt;/td&gt;&lt;td style=&quot;padding-top: 1px; padding-right: 1px; padding-left: 1px; font-size: 10pt; font-family: Calibri; vertical-align: middle; border: 0.5pt solid black; width: 91pt;&quot; class=&quot;xl1108&quot; width=&quot;121&quot;&gt;&lt;/td&gt;&lt;/tr&gt;&lt;tr style=&quot;height: 89.25pt;&quot; height=&quot;119&quot;&gt;&lt;td style=&quot;padding-top: 1px; padding-right: 1px; padding-left: 1px; font-size: 10pt; font-family: Calibri; vertical-align: middle; border: 0.5pt solid black; text-wrap: nowrap; height: 89.25pt;&quot; class=&quot;xl1107&quot; height=&quot;119&quot;&gt;cadastral-domain-api&lt;/td&gt;&lt;td style=&quot;padding-top: 1px; padding-right: 1px; padding-left: 1px; font-size: 10pt; font-family: Calibri; vertical-align: middle; border: 0.5pt solid black; text-wrap: nowrap;&quot; class=&quot;xl1107&quot;&gt;/life-cycle/v3/block-codes&lt;/td&gt;&lt;td style=&quot;padding-top: 1px; padding-right: 1px; padding-left: 1px; font-size: 10pt; font-family: Calibri; vertical-align: middle; border: 0.5pt solid black; text-wrap: nowrap;&quot; class=&quot;xl1107&quot;&gt;GET&lt;/td&gt;&lt;td style=&quot;padding-top: 1px; padding-right: 1px; padding-left: 1px; font-size: 10pt; font-family: Calibri; vertical-align: middle; border: 0.5pt solid black; text-wrap: nowrap;&quot; class=&quot;xl1107&quot;&gt;blockList[].lockExtension&lt;/td&gt;&lt;td style=&quot;padding-top: 1px; padding-right: 1px; padding-left: 1px; font-size: 10pt; font-family: Calibri; vertical-align: middle; border: 0.5pt solid black; text-wrap: nowrap;&quot; align=&quot;right&quot; class=&quot;xl1107&quot;&gt;1&lt;/td&gt;&lt;td style=&quot;padding-top: 1px; padding-right: 1px; padding-left: 1px; font-size: 10pt; font-family: Calibri; vertical-align: middle; border: 0.5pt solid black; text-wrap: nowrap;&quot; class=&quot;xl1107&quot;&gt;string&lt;/td&gt;&lt;td style=&quot;padding-top: 1px; padding-right: 1px; padding-left: 1px; font-size: 10pt; font-family: Calibri; vertical-align: middle; border: 0.5pt solid black; width: 152pt;&quot; class=&quot;xl1108&quot; width=&quot;203&quot;&gt;Field containing the scope of the lock&lt;/td&gt;&lt;td style=&quot;padding-top: 1px; padding-right: 1px; padding-left: 1px; font-size: 10pt; font-family: Calibri; vertical-align: middle; border: 0.5pt solid black; text-wrap: nowrap;&quot; class=&quot;xl1107&quot;&gt;&lt;/td&gt;&lt;td style=&quot;padding-top: 1px; padding-right: 1px; padding-left: 1px; font-size: 10pt; font-family: Calibri; vertical-align: middle; border: 0.5pt solid black; width: 230pt;&quot; class=&quot;xl1108&quot; width=&quot;307&quot;&gt;En PLARD no existe la opción de un bloqueo para Ambos (Dispositivo y contrato). El valor G (Grouping) es relativo al subcontrato de PLARD.&lt;br&gt;Trasformación:&lt;br&gt;T (trx) = D (Plard)&lt;br&gt;C (trx) = G (Plard)&lt;br&gt;A (trx) = No aplica&lt;/td&gt;&lt;td style=&quot;padding-top: 1px; padding-right: 1px; padding-left: 1px; font-size: 10pt; font-family: Calibri; vertical-align: middle; border: 0.5pt solid black; width: 91pt;&quot; class=&quot;xl1108&quot; width=&quot;121&quot;&gt;[ C = Contract, D = Device, G = Grouping ]&lt;/td&gt;&lt;/tr&gt;&lt;tr style=&quot;height: 135pt;&quot; height=&quot;180&quot;&gt;&lt;td style=&quot;padding-top: 1px; padding-right: 1px; padding-left: 1px; font-size: 10pt; font-family: Calibri; vertical-align: middle; border: 0.5pt solid black; text-wrap: nowrap; height: 135pt;&quot; class=&quot;xl1107&quot; height=&quot;180&quot;&gt;&lt;/td&gt;&lt;td style=&quot;padding-top: 1px; padding-right: 1px; padding-left: 1px; font-size: 10pt; font-family: Calibri; vertical-align: middle; border: 0.5pt solid black; text-wrap: nowrap;&quot; class=&quot;xl1107&quot;&gt;&lt;/td&gt;&lt;td style=&quot;padding-top: 1px; padding-right: 1px; padding-left: 1px; font-size: 10pt; font-family: Calibri; vertical-align: middle; border: 0.5pt solid black; text-wrap: nowrap;&quot; class=&quot;xl1107&quot;&gt;&lt;/td&gt;&lt;td style=&quot;padding-top: 1px; padding-right: 1px; padding-left: 1px; font-size: 10pt; font-family: Calibri; vertical-align: middle; border: 0.5pt solid black; text-wrap: nowrap;&quot; class=&quot;xl1107&quot;&gt;&lt;/td&gt;&lt;td style=&quot;padding-top: 1px; padding-right: 1px; padding-left: 1px; font-size: 10pt; font-family: Calibri; vertical-align: middle; border: 0.5pt solid black; text-wrap: nowrap;&quot; class=&quot;xl1107&quot;&gt;&lt;/td&gt;&lt;td style=&quot;padding-top: 1px; padding-right: 1px; padding-left: 1px; font-size: 10pt; font-family: Calibri; vertical-align: middle; border: 0.5pt solid black; text-wrap: nowrap;&quot; class=&quot;xl1107&quot;&gt;&lt;/td&gt;&lt;td style=&quot;padding-top: 1px; padding-right: 1px; padding-left: 1px; font-size: 10pt; font-family: Calibri; vertical-align: middle; border: 0.5pt solid black; width: 152pt;&quot; class=&quot;xl1108&quot; width=&quot;203&quot;&gt;&lt;/td&gt;&lt;td style=&quot;padding-top: 1px; padding-right: 1px; padding-left: 1px; font-size: 10pt; font-family: Calibri; vertical-align: middle; border: 0.5pt solid black; text-wrap: nowrap;&quot; class=&quot;xl1107&quot;&gt;&lt;/td&gt;&lt;td style=&quot;padding-top: 1px; padding-right: 1px; padding-left: 1px; font-size: 10pt; font-family: Calibri; vertical-align: middle; border: 0.5pt solid black; width: 230pt;&quot; class=&quot;xl1108&quot; width=&quot;307&quot;&gt;&lt;/td&gt;&lt;td style=&quot;padding-top: 1px; padding-right: 1px; padding-left: 1px; font-size: 10pt; font-family: Calibri; vertical-align: middle; border: 0.5pt solid black; width: 91pt;&quot; class=&quot;xl1108&quot; width=&quot;121&quot;&gt;&lt;/td&gt;&lt;/tr&gt;&lt;tr style=&quot;height: 27pt;&quot; height=&quot;36&quot;&gt;&lt;td style=&quot;padding-top: 1px; padding-right: 1px; padding-left: 1px; font-size: 10pt; font-family: Calibri; vertical-align: middle; border: 0.5pt solid black; text-wrap: nowrap; height: 27pt;&quot; class=&quot;xl1107&quot; height=&quot;36&quot;&gt;cadastral-domain-api&lt;/td&gt;&lt;td style=&quot;padding-top: 1px; padding-right: 1px; padding-left: 1px; font-size: 10pt; font-family: Calibri; vertical-align: middle; border: 0.5pt solid black; text-wrap: nowrap;&quot; class=&quot;xl1107&quot;&gt;/life-cycle/v3/block-codes&lt;/td&gt;&lt;td style=&quot;padding-top: 1px; padding-right: 1px; padding-left: 1px; font-size: 10pt; font-family: Calibri; vertical-align: middle; border: 0.5pt solid black; text-wrap: nowrap;&quot; class=&quot;xl1107&quot;&gt;GET&lt;/td&gt;&lt;td style=&quot;padding-top: 1px; padding-right: 1px; padding-left: 1px; font-size: 10pt; font-family: Calibri; vertical-align: middle; border: 0.5pt solid black; text-wrap: nowrap;&quot; class=&quot;xl1107&quot;&gt;blockList[].operactivityBlockingIndicator&lt;/td&gt;&lt;td style=&quot;padding-top: 1px; padding-right: 1px; padding-left: 1px; font-size: 10pt; font-family: Calibri; vertical-align: middle; border: 0.5pt solid black; text-wrap: nowrap;&quot; align=&quot;right&quot; class=&quot;xl1107&quot;&gt;1&lt;/td&gt;&lt;td style=&quot;padding-top: 1px; padding-right: 1px; padding-left: 1px; font-size: 10pt; font-family: Calibri; vertical-align: middle; border: 0.5pt solid black; text-wrap: nowrap;&quot; class=&quot;xl1107&quot;&gt;string&lt;/td&gt;&lt;td style=&quot;padding-top: 1px; padding-right: 1px; padding-left: 1px; font-size: 10pt; font-family: Calibri; vertical-align: middle; border: 0.5pt solid black; width: 152pt;&quot; class=&quot;xl1108&quot; width=&quot;203&quot;&gt;Operational blocking indicator&lt;/td&gt;&lt;td style=&quot;padding-top: 1px; padding-right: 1px; padding-left: 1px; font-size: 10pt; font-family: Calibri; vertical-align: middle; border: 0.5pt solid black; text-wrap: nowrap;&quot; class=&quot;xl1107&quot;&gt;&lt;/td&gt;&lt;td style=&quot;padding-top: 1px; padding-right: 1px; padding-left: 1px; font-size: 10pt; font-family: Calibri; vertical-align: middle; border: 0.5pt solid black; width: 230pt;&quot; class=&quot;xl1108&quot; width=&quot;307&quot;&gt;example: D&lt;/td&gt;&lt;td style=&quot;padding-top: 1px; padding-right: 1px; padding-left: 1px; font-size: 10pt; font-family: Calibri; vertical-align: middle; border: 0.5pt solid black; width: 91pt;&quot; class=&quot;xl1108&quot; width=&quot;121&quot;&gt;[ D = Debit, C = Credit, A = Both ]&lt;/td&gt;&lt;/tr&gt;&lt;tr style=&quot;height: 40.5pt;&quot; height=&quot;54&quot;&gt;&lt;td style=&quot;padding-top: 1px; padding-right: 1px; padding-left: 1px; font-size: 10pt; font-family: Calibri; vertical-align: middle; border: 0.5pt solid black; text-wrap: nowrap; height: 40.5pt;&quot; class=&quot;xl1107&quot; height=&quot;54&quot;&gt;cadastral-domain-api&lt;/td&gt;&lt;td style=&quot;padding-top: 1px; padding-right: 1px; padding-left: 1px; font-size: 10pt; font-family: Calibri; vertical-align: middle; border: 0.5pt solid black; text-wrap: nowrap;&quot; class=&quot;xl1107&quot;&gt;/life-cycle/v3/block-codes&lt;/td&gt;&lt;td style=&quot;padding-top: 1px; padding-right: 1px; padding-left: 1px; font-size: 10pt; font-family: Calibri; vertical-align: middle; border: 0.5pt solid black; text-wrap: nowrap;&quot; class=&quot;xl1107&quot;&gt;GET&lt;/td&gt;&lt;td style=&quot;padding-top: 1px; padding-right: 1px; padding-left: 1px; color: rgb(59, 65, 81); font-size: 9pt; font-family: &amp;quot;Courier New&amp;quot;; vertical-align: bottom; border: none; width: 215pt;&quot; class=&quot;xl1619&quot; width=&quot;287&quot;&gt;blockList[].renewalPermissionIndicator&lt;/td&gt;&lt;td style=&quot;padding-top: 1px; padding-right: 1px; padding-left: 1px; font-size: 10pt; font-family: Calibri; vertical-align: middle; border: 0.5pt solid black; text-wrap: nowrap;&quot; class=&quot;xl1107&quot;&gt;&lt;/td&gt;&lt;td style=&quot;padding-top: 1px; padding-right: 1px; padding-left: 1px; font-size: 10pt; font-family: Calibri; vertical-align: middle; border: 0.5pt solid black; text-wrap: nowrap;&quot; class=&quot;xl1107&quot;&gt;boolean&lt;/td&gt;&lt;td style=&quot;padding-top: 1px; padding-right: 1px; padding-left: 1px; font-size: 10pt; font-family: Calibri; vertical-align: middle; border: 0.5pt solid black; width: 152pt;&quot; class=&quot;xl1108&quot; width=&quot;203&quot;&gt;Renewal permission indicator&lt;/td&gt;&lt;td style=&quot;padding-top: 1px; padding-right: 1px; padding-left: 1px; font-size: 10pt; font-family: Calibri; vertical-align: middle; border: 0.5pt solid black; text-wrap: nowrap;&quot; class=&quot;xl1107&quot;&gt;&lt;/td&gt;&lt;td style=&quot;padding-top: 1px; padding-right: 1px; padding-left: 1px; font-size: 10pt; font-family: Calibri; vertical-align: middle; border: 0.5pt solid black; width: 230pt;&quot; class=&quot;xl1108&quot; width=&quot;307&quot;&gt;&lt;/td&gt;&lt;td style=&quot;padding-top: 1px; padding-right: 1px; padding-left: 1px; font-size: 10pt; font-family: Calibri; vertical-align: middle; border: 0.5pt solid black; width: 91pt;&quot; class=&quot;xl1108&quot; width=&quot;121&quot;&gt;&lt;/td&gt;&lt;/tr&gt;&lt;tr style=&quot;height: 12.75pt;&quot; height=&quot;17&quot;&gt;&lt;td style=&quot;padding-top: 1px; padding-right: 1px; padding-left: 1px; font-size: 10pt; font-family: Calibri; vertical-align: middle; border: 0.5pt solid black; text-wrap: nowrap; height: 12.75pt;&quot; class=&quot;xl1107&quot; height=&quot;17&quot;&gt;cadastral-domain-api&lt;/td&gt;&lt;td style=&quot;padding-top: 1px; padding-right: 1px; padding-left: 1px; font-size: 10pt; font-family: Calibri; vertical-align: middle; border: 0.5pt solid black; text-wrap: nowrap;&quot; class=&quot;xl1107&quot;&gt;/life-cycle/v3/block-codes&lt;/td&gt;&lt;td style=&quot;padding-top: 1px; padding-right: 1px; padding-left: 1px; font-size: 10pt; font-family: Calibri; vertical-align: middle; border: 0.5pt solid black; text-wrap: nowrap;&quot; class=&quot;xl1107&quot;&gt;GET&lt;/td&gt;&lt;td style=&quot;padding-top: 1px; padding-right: 1px; padding-left: 1px; font-size: 10pt; font-family: Calibri; vertical-align: middle; border: 0.5pt solid black; text-wrap: nowrap;&quot; class=&quot;xl1107&quot;&gt;blockList[].networkSendingIndicator&lt;/td&gt;&lt;td style=&quot;padding-top: 1px; padding-right: 1px; padding-left: 1px; font-size: 10pt; font-family: Calibri; vertical-align: middle; border: 0.5pt solid black; text-wrap: nowrap;&quot; class=&quot;xl1107&quot;&gt;&lt;/td&gt;&lt;td style=&quot;padding-top: 1px; padding-right: 1px; padding-left: 1px; font-size: 10pt; font-family: Calibri; vertical-align: middle; border: 0.5pt solid black; text-wrap: nowrap;&quot; class=&quot;xl1107&quot;&gt;boolean&lt;/td&gt;&lt;td style=&quot;padding-top: 1px; padding-right: 1px; padding-left: 1px; font-size: 10pt; font-family: Calibri; vertical-align: middle; border: 0.5pt solid black; width: 152pt;&quot; class=&quot;xl1108&quot; width=&quot;203&quot;&gt;Displays in Self-Service Channels?&lt;/td&gt;&lt;td style=&quot;padding-top: 1px; padding-right: 1px; padding-left: 1px; font-size: 10pt; font-family: Calibri; vertical-align: middle; border: 0.5pt solid black; text-wrap: nowrap;&quot; class=&quot;xl1107&quot;&gt;&lt;/td&gt;&lt;td style=&quot;padding-top: 1px; padding-right: 1px; padding-left: 1px; font-size: 10pt; font-family: Calibri; vertical-align: middle; border: 0.5pt solid black; width: 230pt;&quot; class=&quot;xl1108&quot; width=&quot;307&quot;&gt;&lt;/td&gt;&lt;td style=&quot;padding-top: 1px; padding-right: 1px; padding-left: 1px; font-size: 10pt; font-family: Calibri; vertical-align: middle; border: 0.5pt solid black; width: 91pt;&quot; class=&quot;xl1108&quot; width=&quot;121&quot;&gt;&lt;/td&gt;&lt;/tr&gt;&lt;tr style=&quot;height: 24pt;&quot; height=&quot;32&quot;&gt;&lt;td style=&quot;padding-top: 1px; padding-right: 1px; padding-left: 1px; font-size: 10pt; font-family: Calibri; vertical-align: middle; border: 0.5pt solid black; text-wrap: nowrap; height: 24pt;&quot; class=&quot;xl1107&quot; height=&quot;32&quot;&gt;&lt;/td&gt;&lt;td style=&quot;padding-top: 1px; padding-right: 1px; padding-left: 1px; font-size: 10pt; font-family: Calibri; vertical-align: middle; border: 0.5pt solid black; text-wrap: nowrap;&quot; class=&quot;xl1107&quot;&gt;&lt;/td&gt;&lt;td style=&quot;padding-top: 1px; padding-right: 1px; padding-left: 1px; font-size: 10pt; font-family: Calibri; vertical-align: middle; border: 0.5pt solid black; text-wrap: nowrap;&quot; class=&quot;xl1107&quot;&gt;&lt;/td&gt;&lt;td style=&quot;padding-top: 1px; padding-right: 1px; padding-left: 1px; font-size: 10pt; font-family: Calibri; vertical-align: middle; border: 0.5pt solid black; text-wrap: nowrap;&quot; class=&quot;xl1107&quot;&gt;&lt;/td&gt;&lt;td style=&quot;padding-top: 1px; padding-right: 1px; padding-left: 1px; font-size: 10pt; font-family: Calibri; vertical-align: middle; border: 0.5pt solid black; text-wrap: nowrap;&quot; class=&quot;xl1107&quot;&gt;&lt;/td&gt;&lt;td style=&quot;padding-top: 1px; padding-right: 1px; padding-left: 1px; font-size: 10pt; font-family: Calibri; vertical-align: middle; border: 0.5pt solid black; text-wrap: nowrap;&quot; class=&quot;xl1107&quot;&gt;&lt;/td&gt;&lt;td style=&quot;padding-top: 1px; padding-right: 1px; padding-left: 1px; font-size: 10pt; font-family: Calibri; vertical-align: middle; border: 0.5pt solid black; width: 152pt;&quot; class=&quot;xl1108&quot; width=&quot;203&quot;&gt;&lt;/td&gt;&lt;td style=&quot;padding-top: 1px; padding-right: 1px; padding-left: 1px; font-size: 10pt; font-family: Calibri; vertical-align: middle; border: 0.5pt solid black; text-wrap: nowrap;&quot; class=&quot;xl1107&quot;&gt;&lt;/td&gt;&lt;td style=&quot;padding-top: 1px; padding-right: 1px; padding-left: 1px; font-size: 10pt; font-family: Calibri; vertical-align: middle; border: 0.5pt solid black; width: 230pt;&quot; class=&quot;xl1108&quot; width=&quot;307&quot;&gt;&lt;/td&gt;&lt;td style=&quot;padding-top: 1px; padding-right: 1px; padding-left: 1px; font-size: 10pt; font-family: Calibri; vertical-align: middle; border: 0.5pt solid black; width: 91pt;&quot; class=&quot;xl1108&quot; width=&quot;121&quot;&gt;&lt;/td&gt;&lt;/tr&gt;&lt;tr style=&quot;height: 24pt;&quot; height=&quot;32&quot;&gt;&lt;td style=&quot;padding-top: 1px; padding-right: 1px; padding-left: 1px; font-size: 10pt; font-family: Calibri; vertical-align: middle; border: 0.5pt solid black; text-wrap: nowrap; height: 24pt;&quot; class=&quot;xl1107&quot; height=&quot;32&quot;&gt;&lt;/td&gt;&lt;td style=&quot;padding-top: 1px; padding-right: 1px; padding-left: 1px; font-size: 10pt; font-family: Calibri; vertical-align: middle; border: 0.5pt solid black; text-wrap: nowrap;&quot; class=&quot;xl1107&quot;&gt;&lt;/td&gt;&lt;td style=&quot;padding-top: 1px; padding-right: 1px; padding-left: 1px; font-size: 10pt; font-family: Calibri; vertical-align: middle; border: 0.5pt solid black; text-wrap: nowrap;&quot; class=&quot;xl1107&quot;&gt;&lt;/td&gt;&lt;td style=&quot;padding-top: 1px; padding-right: 1px; padding-left: 1px; font-size: 10pt; font-family: Calibri; vertical-align: middle; border: 0.5pt solid black; text-wrap: nowrap;&quot; class=&quot;xl1107&quot;&gt;&lt;/td&gt;&lt;td style=&quot;padding-top: 1px; padding-right: 1px; padding-left: 1px; font-size: 10pt; font-family: Calibri; vertical-align: middle; border: 0.5pt solid black; text-wrap: nowrap;&quot; class=&quot;xl1107&quot;&gt;&lt;/td&gt;&lt;td style=&quot;padding-top: 1px; padding-right: 1px; padding-left: 1px; font-size: 10pt; font-family: Calibri; vertical-align: middle; border: 0.5pt solid black; text-wrap: nowrap;&quot; class=&quot;xl1107&quot;&gt;&lt;/td&gt;&lt;td style=&quot;padding-top: 1px; padding-right: 1px; padding-left: 1px; font-size: 10pt; font-family: Calibri; vertical-align: middle; border: 0.5pt solid black; width: 152pt;&quot; class=&quot;xl1108&quot; width=&quot;203&quot;&gt;&lt;/td&gt;&lt;td style=&quot;padding-top: 1px; padding-right: 1px; padding-left: 1px; font-size: 10pt; font-family: Calibri; vertical-align: middle; border: 0.5pt solid black; text-wrap: nowrap;&quot; class=&quot;xl1107&quot;&gt;&lt;/td&gt;&lt;td style=&quot;padding-top: 1px; padding-right: 1px; padding-left: 1px; font-size: 10pt; font-family: Calibri; vertical-align: middle; border: 0.5pt solid black; width: 230pt;&quot; class=&quot;xl1108&quot; width=&quot;307&quot;&gt;&lt;/td&gt;&lt;td style=&quot;padding-top: 1px; padding-right: 1px; padding-left: 1px; font-size: 10pt; font-family: Calibri; vertical-align: middle; border: 0.5pt solid black; width: 91pt;&quot; class=&quot;xl1108&quot; width=&quot;121&quot;&gt;&lt;/td&gt;&lt;/tr&gt;&lt;tr style=&quot;height: 12.75pt;&quot; height=&quot;17&quot;&gt;&lt;td style=&quot;padding-top: 1px; padding-right: 1px; padding-left: 1px; font-size: 10pt; font-family: Calibri; vertical-align: middle; border: 0.5pt solid black; text-wrap: nowrap; height: 12.75pt;&quot; class=&quot;xl1107&quot; height=&quot;17&quot;&gt;cadastral-domain-api&lt;/td&gt;&lt;td style=&quot;padding-top: 1px; padding-right: 1px; padding-left: 1px; font-size: 10pt; font-family: Calibri; vertical-align: middle; border: 0.5pt solid black; text-wrap: nowrap;&quot; class=&quot;xl1107&quot;&gt;/life-cycle/v3/block-codes&lt;/td&gt;&lt;td style=&quot;padding-top: 1px; padding-right: 1px; padding-left: 1px; font-size: 10pt; font-family: Calibri; vertical-align: middle; border: 0.5pt solid black; text-wrap: nowrap;&quot; class=&quot;xl1107&quot;&gt;GET&lt;/td&gt;&lt;td style=&quot;padding-top: 1px; padding-right: 1px; padding-left: 1px; color: rgb(59, 65, 81); font-size: 9pt; font-family: &amp;quot;Courier New&amp;quot;; vertical-align: bottom; border: none; width: 215pt;&quot; class=&quot;xl1619&quot; width=&quot;287&quot;&gt;blockList[].queryPermissionIndicator&lt;/td&gt;&lt;td style=&quot;padding-top: 1px; padding-right: 1px; padding-left: 1px; font-size: 10pt; font-family: Calibri; vertical-align: middle; border: 0.5pt solid black; text-wrap: nowrap;&quot; class=&quot;xl1107&quot;&gt;&lt;/td&gt;&lt;td style=&quot;padding-top: 1px; padding-right: 1px; padding-left: 1px; font-size: 10pt; font-family: Calibri; vertical-align: middle; border: 0.5pt solid black; text-wrap: nowrap;&quot; class=&quot;xl1107&quot;&gt;boolean&lt;/td&gt;&lt;td style=&quot;padding-top: 1px; padding-right: 1px; padding-left: 1px; font-size: 10pt; font-family: Calibri; vertical-align: middle; border: 0.5pt solid black; width: 152pt;&quot; class=&quot;xl1108&quot; width=&quot;203&quot;&gt;Does it allow queries?&lt;/td&gt;&lt;td style=&quot;padding-top: 1px; padding-right: 1px; padding-left: 1px; font-size: 10pt; font-family: Calibri; vertical-align: middle; border: 0.5pt solid black; text-wrap: nowrap;&quot; class=&quot;xl1107&quot;&gt;&lt;/td&gt;&lt;td style=&quot;padding-top: 1px; padding-right: 1px; padding-left: 1px; font-size: 10pt; font-family: Calibri; vertical-align: middle; border: 0.5pt solid black; width: 230pt;&quot; class=&quot;xl1108&quot; width=&quot;307&quot;&gt;&lt;/td&gt;&lt;td style=&quot;padding-top: 1px; padding-right: 1px; padding-left: 1px; font-size: 10pt; font-family: Calibri; vertical-align: middle; border: 0.5pt solid black; width: 91pt;&quot; class=&quot;xl1108&quot; width=&quot;121&quot;&gt;&lt;/td&gt;&lt;/tr&gt;&lt;tr style=&quot;height: 28.5pt;&quot; height=&quot;38&quot;&gt;&lt;td style=&quot;padding-top: 1px; padding-right: 1px; padding-left: 1px; font-size: 10pt; font-family: Calibri; vertical-align: middle; border: 0.5pt solid black; text-wrap: nowrap; height: 28.5pt;&quot; class=&quot;xl1107&quot; height=&quot;38&quot;&gt;&lt;/td&gt;&lt;td style=&quot;padding-top: 1px; padding-right: 1px; padding-left: 1px; font-size: 10pt; font-family: Calibri; vertical-align: middle; border: 0.5pt solid black; text-wrap: nowrap;&quot; class=&quot;xl1107&quot;&gt;&lt;/td&gt;&lt;td style=&quot;padding-top: 1px; padding-right: 1px; padding-left: 1px; font-size: 10pt; font-family: Calibri; vertical-align: middle; border: 0.5pt solid black; text-wrap: nowrap;&quot; class=&quot;xl1107&quot;&gt;&lt;/td&gt;&lt;td style=&quot;padding-top: 1px; padding-right: 1px; padding-left: 1px; font-size: 10pt; font-family: Calibri; vertical-align: middle; border: 0.5pt solid black; text-wrap: nowrap;&quot; class=&quot;xl1107&quot;&gt;&lt;/td&gt;&lt;td style=&quot;padding-top: 1px; padding-right: 1px; padding-left: 1px; font-size: 10pt; font-family: Calibri; vertical-align: middle; border: 0.5pt solid black; text-wrap: nowrap;&quot; class=&quot;xl1107&quot;&gt;&lt;/td&gt;&lt;td style=&quot;padding-top: 1px; padding-right: 1px; padding-left: 1px; font-size: 10pt; font-family: Calibri; vertical-align: middle; border: 0.5pt solid black; text-wrap: nowrap;&quot; class=&quot;xl1107&quot;&gt;&lt;/td&gt;&lt;td style=&quot;padding-top: 1px; padding-right: 1px; padding-left: 1px; font-size: 10pt; font-family: Calibri; vertical-align: middle; border: 0.5pt solid black; width: 152pt;&quot; class=&quot;xl1108&quot; width=&quot;203&quot;&gt;&lt;/td&gt;&lt;td style=&quot;padding-top: 1px; padding-right: 1px; padding-left: 1px; font-size: 10pt; font-family: Calibri; vertical-align: middle; border: 0.5pt solid black; text-wrap: nowrap;&quot; class=&quot;xl1107&quot;&gt;&lt;/td&gt;&lt;td style=&quot;padding-top: 1px; padding-right: 1px; padding-left: 1px; font-size: 10pt; font-family: Calibri; vertical-align: middle; border: 0.5pt solid black; width: 230pt;&quot; class=&quot;xl1108&quot; width=&quot;307&quot;&gt;&lt;/td&gt;&lt;td style=&quot;padding-top: 1px; padding-right: 1px; padding-left: 1px; font-size: 10pt; font-family: Calibri; vertical-align: middle; border: 0.5pt solid black; width: 91pt;&quot; class=&quot;xl1108&quot; width=&quot;121&quot;&gt;&lt;/td&gt;&lt;/tr&gt;&lt;tr style=&quot;height: 175.5pt;&quot; height=&quot;234&quot;&gt;&lt;td style=&quot;padding-top: 1px; padding-right: 1px; padding-left: 1px; font-size: 10pt; font-family: Calibri; vertical-align: middle; border: 0.5pt solid black; text-wrap: nowrap; height: 175.5pt;&quot; class=&quot;xl1107&quot; height=&quot;234&quot;&gt;cadastral-domain-api&lt;/td&gt;&lt;td style=&quot;padding-top: 1px; padding-right: 1px; padding-left: 1px; font-size: 10pt; font-family: Calibri; vertical-align: middle; border: 0.5pt solid black; text-wrap: nowrap;&quot; class=&quot;xl1107&quot;&gt;/life-cycle/v3/block-codes&lt;/td&gt;&lt;td style=&quot;padding-top: 1px; padding-right: 1px; padding-left: 1px; font-size: 10pt; font-family: Calibri; vertical-align: middle; border: 0.5pt solid black; text-wrap: nowrap;&quot; class=&quot;xl1107&quot;&gt;GET&lt;/td&gt;&lt;td style=&quot;padding-top: 1px; padding-right: 1px; padding-left: 1px; font-size: 10pt; font-family: Calibri; vertical-align: middle; border: 0.5pt solid black; text-wrap: nowrap;&quot; class=&quot;xl1107&quot;&gt;blockList[].importance&lt;/td&gt;&lt;td style=&quot;padding-top: 1px; padding-right: 1px; padding-left: 1px; font-size: 10pt; font-family: Calibri; vertical-align: middle; border: 0.5pt solid black; text-wrap: nowrap;&quot; class=&quot;xl1107&quot;&gt;&lt;/td&gt;&lt;td style=&quot;padding-top: 1px; padding-right: 1px; padding-left: 1px; font-size: 10pt; font-family: Calibri; vertical-align: middle; border: 0.5pt solid black; text-wrap: nowrap;&quot; class=&quot;xl1107&quot;&gt;string&lt;/td&gt;&lt;td style=&quot;padding-top: 1px; padding-right: 1px; padding-left: 1px; font-size: 10pt; font-family: Calibri; vertical-align: middle; border: 0.5pt solid black; width: 152pt;&quot; class=&quot;xl1108&quot; width=&quot;203&quot;&gt;Importance of blocking&lt;/td&gt;&lt;td style=&quot;padding-top: 1px; padding-right: 1px; padding-left: 1px; font-size: 10pt; font-family: Calibri; vertical-align: middle; border: 0.5pt solid black; text-wrap: nowrap;&quot; class=&quot;xl1107&quot;&gt;&lt;/td&gt;&lt;td style=&quot;padding-top: 1px; padding-right: 1px; padding-left: 1px; font-size: 10pt; font-family: Calibri; vertical-align: middle; border: 0.5pt solid black; width: 230pt;&quot; class=&quot;xl1108&quot; width=&quot;307&quot;&gt;example: lock cause 1&lt;/td&gt;&lt;td style=&quot;padding-top: 1px; padding-right: 1px; padding-left: 1px; font-size: 10pt; font-family: Calibri; vertical-align: middle; border: 0.5pt solid black; width: 91pt;&quot; class=&quot;xl1108&quot; width=&quot;121&quot;&gt;&lt;/td&gt;&lt;/tr&gt;&lt;tr style=&quot;height: 27pt;&quot; height=&quot;36&quot;&gt;&lt;td style=&quot;padding-top: 1px; padding-right: 1px; padding-left: 1px; font-size: 10pt; font-family: Calibri; vertical-align: middle; border: 0.5pt solid black; text-wrap: nowrap; height: 27pt;&quot; class=&quot;xl1107&quot; height=&quot;36&quot;&gt;cadastral-domain-api&lt;/td&gt;&lt;td style=&quot;padding-top: 1px; padding-right: 1px; padding-left: 1px; font-size: 10pt; font-family: Calibri; vertical-align: middle; border: 0.5pt solid black; text-wrap: nowrap;&quot; class=&quot;xl1107&quot;&gt;/life-cycle/v3/block-codes&lt;/td&gt;&lt;td style=&quot;padding-top: 1px; padding-right: 1px; padding-left: 1px; font-size: 10pt; font-family: Calibri; vertical-align: middle; border: 0.5pt solid black; text-wrap: nowrap;&quot; class=&quot;xl1107&quot;&gt;GET&lt;/td&gt;&lt;td style=&quot;padding-top: 1px; padding-right: 1px; padding-left: 1px; font-size: 10pt; font-family: Calibri; vertical-align: middle; border: 0.5pt solid black; text-wrap: nowrap;&quot; class=&quot;xl1107&quot;&gt;blockList[].indicatorReversalLock&lt;/td&gt;&lt;td style=&quot;padding-top: 1px; padding-right: 1px; padding-left: 1px; font-size: 10pt; font-family: Calibri; vertical-align: middle; border: 0.5pt solid black; text-wrap: nowrap;&quot; class=&quot;xl1107&quot;&gt;&lt;/td&gt;&lt;td style=&quot;padding-top: 1px; padding-right: 1px; padding-left: 1px; font-size: 10pt; font-family: Calibri; vertical-align: middle; border: 0.5pt solid black; text-wrap: nowrap;&quot; class=&quot;xl1107&quot;&gt;boolean&lt;/td&gt;&lt;td style=&quot;padding-top: 1px; padding-right: 1px; padding-left: 1px; font-size: 10pt; font-family: Calibri; vertical-align: middle; border: 0.5pt solid black; width: 152pt;&quot; class=&quot;xl1108&quot; width=&quot;203&quot;&gt;Blocking reversible indicator&lt;/td&gt;&lt;td style=&quot;padding-top: 1px; padding-right: 1px; padding-left: 1px; font-size: 10pt; font-family: Calibri; vertical-align: middle; border: 0.5pt solid black; text-wrap: nowrap;&quot; class=&quot;xl1107&quot;&gt;&lt;/td&gt;&lt;td style=&quot;padding-top: 1px; padding-right: 1px; padding-left: 1px; font-size: 10pt; font-family: Calibri; vertical-align: middle; border: 0.5pt solid black; width: 230pt;&quot; class=&quot;xl1108&quot; width=&quot;307&quot;&gt;example: true&lt;/td&gt;&lt;td style=&quot;padding-top: 1px; padding-right: 1px; padding-left: 1px; font-size: 10pt; font-family: Calibri; vertical-align: middle; border: 0.5pt solid black; width: 91pt;&quot; class=&quot;xl1108&quot; width=&quot;121&quot;&gt;&lt;/td&gt;&lt;/tr&gt;&lt;tr style=&quot;height: 27pt;&quot; height=&quot;36&quot;&gt;&lt;td style=&quot;padding-top: 1px; padding-right: 1px; padding-left: 1px; font-size: 10pt; font-family: Calibri; vertical-align: middle; border: 0.5pt solid black; text-wrap: nowrap; height: 27pt;&quot; class=&quot;xl1107&quot; height=&quot;36&quot;&gt;cadastral-domain-api&lt;/td&gt;&lt;td style=&quot;padding-top: 1px; padding-right: 1px; padding-left: 1px; font-size: 10pt; font-family: Calibri; vertical-align: middle; border: 0.5pt solid black; text-wrap: nowrap;&quot; class=&quot;xl1107&quot;&gt;/life-cycle/v3/block-codes&lt;/td&gt;&lt;td style=&quot;padding-top: 1px; padding-right: 1px; padding-left: 1px; font-size: 10pt; font-family: Calibri; vertical-align: middle; border: 0.5pt solid black; text-wrap: nowrap;&quot; class=&quot;xl1107&quot;&gt;GET&lt;/td&gt;&lt;td style=&quot;padding-top: 1px; padding-right: 1px; padding-left: 1px; font-size: 10pt; font-family: Calibri; vertical-align: middle; border: 0.5pt solid black; text-wrap: nowrap;&quot; class=&quot;xl1107&quot;&gt;blockList[].reissuePermissionIndicator&lt;/td&gt;&lt;td style=&quot;padding-top: 1px; padding-right: 1px; padding-left: 1px; font-size: 10pt; font-family: Calibri; vertical-align: middle; border: 0.5pt solid black; text-wrap: nowrap;&quot; class=&quot;xl1107&quot;&gt;&lt;/td&gt;&lt;td style=&quot;padding-top: 1px; padding-right: 1px; padding-left: 1px; font-size: 10pt; font-family: Calibri; vertical-align: middle; border: 0.5pt solid black; text-wrap: nowrap;&quot; class=&quot;xl1107&quot;&gt;boolean&lt;/td&gt;&lt;td style=&quot;padding-top: 1px; padding-right: 1px; padding-left: 1px; font-size: 10pt; font-family: Calibri; vertical-align: middle; border: 0.5pt solid black; width: 152pt;&quot; class=&quot;xl1108&quot; width=&quot;203&quot;&gt;Allow reissue?&lt;/td&gt;&lt;td style=&quot;padding-top: 1px; padding-right: 1px; padding-left: 1px; font-size: 10pt; font-family: Calibri; vertical-align: middle; border: 0.5pt solid black; text-wrap: nowrap;&quot; class=&quot;xl1107&quot;&gt;&lt;/td&gt;&lt;td style=&quot;padding-top: 1px; padding-right: 1px; padding-left: 1px; font-size: 10pt; font-family: Calibri; vertical-align: middle; border: 0.5pt solid black; width: 230pt;&quot; class=&quot;xl1108&quot; width=&quot;307&quot;&gt;example: true&lt;/td&gt;&lt;td style=&quot;padding-top: 1px; padding-right: 1px; padding-left: 1px; font-size: 10pt; font-family: Calibri; vertical-align: middle; border: 0.5pt solid black; width: 91pt;&quot; class=&quot;xl1108&quot; width=&quot;121&quot;&gt;&lt;/td&gt;&lt;/tr&gt;&lt;tr style=&quot;height: 94.5pt;&quot; height=&quot;126&quot;&gt;&lt;td style=&quot;padding-top: 1px; padding-right: 1px; padding-left: 1px; font-size: 10pt; font-family: Calibri; vertical-align: middle; border: 0.5pt solid black; text-wrap: nowrap; height: 94.5pt;&quot; class=&quot;xl1107&quot; height=&quot;126&quot;&gt;cadastral-domain-api&lt;/td&gt;&lt;td style=&quot;padding-top: 1px; padding-right: 1px; padding-left: 1px; font-size: 10pt; font-family: Calibri; vertical-align: middle; border: 0.5pt solid black; text-wrap: nowrap;&quot; class=&quot;xl1107&quot;&gt;/life-cycle/v3/block-codes&lt;/td&gt;&lt;td style=&quot;padding-top: 1px; padding-right: 1px; padding-left: 1px; font-size: 10pt; font-family: Calibri; vertical-align: middle; border: 0.5pt solid black; text-wrap: nowrap;&quot; class=&quot;xl1107&quot;&gt;GET&lt;/td&gt;&lt;td style=&quot;padding-top: 1px; padding-right: 1px; padding-left: 1px; font-size: 10pt; font-family: Calibri; vertical-align: middle; border: 0.5pt solid black; text-wrap: nowrap;&quot; class=&quot;xl1107&quot;&gt;blockList[].deviceNumberChangeIndicator&lt;/td&gt;&lt;td style=&quot;padding-top: 1px; padding-right: 1px; padding-left: 1px; font-size: 10pt; font-family: Calibri; vertical-align: middle; border: 0.5pt solid black; text-wrap: nowrap;&quot; class=&quot;xl1107&quot;&gt;&lt;/td&gt;&lt;td style=&quot;padding-top: 1px; padding-right: 1px; padding-left: 1px; font-size: 10pt; font-family: Calibri; vertical-align: middle; border: 0.5pt solid black; text-wrap: nowrap;&quot; class=&quot;xl1107&quot;&gt;boolean&lt;/td&gt;&lt;td style=&quot;padding-top: 1px; padding-right: 1px; padding-left: 1px; font-size: 10pt; font-family: Calibri; vertical-align: middle; border: 0.5pt solid black; width: 152pt;&quot; class=&quot;xl1108&quot; width=&quot;203&quot;&gt;Fraud blocking indicator&lt;/td&gt;&lt;td style=&quot;padding-top: 1px; padding-right: 1px; padding-left: 1px; font-size: 10pt; font-family: Calibri; vertical-align: middle; border: 0.5pt solid black; text-wrap: nowrap;&quot; class=&quot;xl1107&quot;&gt;&lt;/td&gt;&lt;td style=&quot;padding-top: 1px; padding-right: 1px; padding-left: 1px; font-size: 10pt; font-family: Calibri; vertical-align: middle; border: 0.5pt solid black; width: 230pt;&quot; class=&quot;xl1108&quot; width=&quot;307&quot;&gt;example: true&lt;/td&gt;&lt;td style=&quot;padding-top: 1px; padding-right: 1px; padding-left: 1px; font-size: 10pt; font-family: Calibri; vertical-align: middle; border: 0.5pt solid black; width: 91pt;&quot; class=&quot;xl1108&quot; width=&quot;121&quot;&gt;&lt;/td&gt;&lt;/tr&gt;&lt;tr style=&quot;height: 40.5pt;&quot; height=&quot;54&quot;&gt;&lt;td style=&quot;padding-top: 1px; padding-right: 1px; padding-left: 1px; font-size: 10pt; font-family: Calibri; vertical-align: middle; border: 0.5pt solid black; text-wrap: nowrap; height: 40.5pt;&quot; class=&quot;xl1107&quot; height=&quot;54&quot;&gt;&lt;/td&gt;&lt;td style=&quot;padding-top: 1px; padding-right: 1px; padding-left: 1px; font-size: 10pt; font-family: Calibri; vertical-align: middle; border: 0.5pt solid black; text-wrap: nowrap;&quot; class=&quot;xl1107&quot;&gt;&lt;/td&gt;&lt;td style=&quot;padding-top: 1px; padding-right: 1px; padding-left: 1px; font-size: 10pt; font-family: Calibri; vertical-align: middle; border: 0.5pt solid black; text-wrap: nowrap;&quot; class=&quot;xl1107&quot;&gt;&lt;/td&gt;&lt;td style=&quot;padding-top: 1px; padding-right: 1px; padding-left: 1px; font-size: 10pt; font-family: Calibri; vertical-align: middle; border: 0.5pt solid black; text-wrap: nowrap;&quot; class=&quot;xl1107&quot;&gt;&lt;/td&gt;&lt;td style=&quot;padding-top: 1px; padding-right: 1px; padding-left: 1px; font-size: 10pt; font-family: Calibri; vertical-align: middle; border: 0.5pt solid black; text-wrap: nowrap;&quot; class=&quot;xl1107&quot;&gt;&lt;/td&gt;&lt;td style=&quot;padding-top: 1px; padding-right: 1px; padding-left: 1px; font-size: 10pt; font-family: Calibri; vertical-align: middle; border: 0.5pt solid black; text-wrap: nowrap;&quot; class=&quot;xl1107&quot;&gt;&lt;/td&gt;&lt;td style=&quot;padding-top: 1px; padding-right: 1px; padding-left: 1px; font-size: 10pt; font-family: Calibri; vertical-align: middle; border: 0.5pt solid black; width: 152pt;&quot; class=&quot;xl1108&quot; width=&quot;203&quot;&gt;&lt;/td&gt;&lt;td style=&quot;padding-top: 1px; padding-right: 1px; padding-left: 1px; font-size: 10pt; font-family: Calibri; vertical-align: middle; border: 0.5pt solid black; text-wrap: nowrap;&quot; class=&quot;xl1107&quot;&gt;&lt;/td&gt;&lt;td style=&quot;padding-top: 1px; padding-right: 1px; padding-left: 1px; font-size: 10pt; font-family: Calibri; vertical-align: middle; border: 0.5pt solid black; width: 230pt;&quot; class=&quot;xl1108&quot; width=&quot;307&quot;&gt;En PLARD existe el campo pero no vienen dentro del API&lt;/td&gt;&lt;td style=&quot;padding-top: 1px; padding-right: 1px; padding-left: 1px; font-size: 10pt; font-family: Calibri; vertical-align: middle; border: 0.5pt solid black; width: 91pt;&quot; class=&quot;xl1108&quot; width=&quot;121&quot;&gt;&lt;/td&gt;&lt;/tr&gt;&lt;/tbody&gt;&lt;/table&gt;&lt;/div&gt;" style="rounded=0;whiteSpace=wrap;html=1;" parent="1" vertex="1">
          <mxGeometry x="1830" y="-1094" width="1400" height="1260" as="geometry" />
        </mxCell>
        <mxCell id="G5n_i2c-U77iiB8ooEL3-21" value="&lt;font style=&quot;font-size: 12px;&quot;&gt;Método:&amp;nbsp;GET&lt;/font&gt;&lt;div&gt;&lt;font style=&quot;font-size: 12px;&quot;&gt;Recurso:&amp;nbsp;/life-cycle/v3/block-codes&lt;/font&gt;&lt;/div&gt;" style="rounded=0;whiteSpace=wrap;html=1;fillColor=#EEEEEE;strokeColor=#23445d;fontSize=14;fontStyle=1;align=left;" parent="1" vertex="1">
          <mxGeometry x="1830" y="-1130" width="1400" height="39.11" as="geometry" />
        </mxCell>
        <mxCell id="G5n_i2c-U77iiB8ooEL3-22" value="&lt;div&gt;&lt;span style=&quot;background-color: transparent; color: light-dark(rgb(0, 0, 0), rgb(255, 255, 255));&quot;&gt;API PLARD -&amp;nbsp;&lt;/span&gt;&lt;span style=&quot;background-color: transparent;&quot;&gt;cadastral-domain-api&lt;/span&gt;&lt;br&gt;&lt;/div&gt;" style="rounded=0;whiteSpace=wrap;html=1;fillColor=#bac8d3;strokeColor=#23445d;fontSize=14;fontStyle=1;verticalAlign=top;container=0;" parent="1" vertex="1">
          <mxGeometry x="1830" y="-1173" width="1400" height="42" as="geometry" />
        </mxCell>
      </root>
    </mxGraphModel>
  </diagram>
</mxfile>
